ply
format ascii 1.0
comment VCGLIB generated
element vertex 436
property float x
property float y
property float z
property float nx
property float ny
property float nz
element face 806
property list uchar int vertex_indices
end_header
0.00034 0.001016 0.011721 0.5714011 5.013141 0.1677655 
-0.000673 0.000222 0.013692 -4.241104 1.90784 0.155327 
-0.000364 0.000724 0.059904 -4.264808 1.840658 0.00296108 
0.000916 0.001015 0.061473 0.4551368 4.931605 0.0009263004 
4e-05 -0.001034 0.014225 -3.339655 -3.737881 0.1403582 
-0.000364 -0.000604 0.059489 -2.983871 -3.783693 0.005341793 
0.001493 -0.001016 0.012518 2.314538 -4.150537 0.1386447 
0.000916 -0.001015 0.059359 2.409141 -4.32719 0.01145858 
0.001678 0.000406 0.011945 4.661491 1.170563 0.1245034 
0.001707 -6e-05 0.061127 4.639306 1.013621 0.01145852 
-0.000336 0.000667 -0.010119 -2.251353 0.9308523 -2.643187 
0.000931 0.001078 -0.010118 0.1933678 2.440033 -2.587293 
0.000563 0 -0.010118 0.00462467 2.910383e-11 -4.999998 
-0.000336 -0.000667 -0.010119 -1.577889 -1.861981 -2.627876 
0.000931 -0.001078 -0.010118 1.291451 -2.087203 -2.562196 
0.001715 0 -0.010117 2.389471 0.5783127 -2.537207 
0.000517 0.001208 0.164147 0.5095648 2.412206 2.480239 
-0.000644 0.000309 0.164147 -2.130156 1.224989 2.536947 
0.000555 -4e-05 0.164147 0 0 5 
-0.000148 -0.001072 0.164147 -1.819021 -1.648208 2.550324 
0.001319 -0.001028 0.164147 1.008263 -2.244854 2.502087 
0.00173 0.000382 0.164147 2.453794 0.2639014 2.458594 
0.000546 0.000797 0.157122 -0.2381396 0.9853079 -2.737771 
-0.000227 0.000198 0.15712 -0.9439392 0.06048518 -2.773974 
-0.002063 0.000643 0.157755 -3.28563 0.6143062 -2.214564 
0.000354 0.002515 0.157755 -0.4018042 3.405301 -2.21793 
0.000104 -0.000722 0.15712 -0.3253298 -0.914214 -2.765775 
-0.00103 -0.002233 0.157755 -1.554514 -2.946922 -2.237376 
0.001081 -0.000692 0.157122 0.8475332 -0.6368375 -2.720295 
0.002025 -0.00214 0.157755 2.370551 -2.446507 -2.258345 
0.001354 0.000247 0.157122 0.9063606 0.5969566 -2.701937 
0.00288 0.000795 0.157755 3.140328 1.473555 -2.243346 
-0.001056 0.001134 0.002318 -3.741808 1.989708 1.750798 
-0.001056 -0.001134 0.002318 -3.182149 -3.041501 1.77848 
0.001101 -0.001835 0.00232 1.892741 -3.868874 1.643044 
0.002434 -0 0.002321 4.322843 0.6557398 1.575975 
0.001101 0.001835 0.00232 0.8819103 4.392936 1.64857 
0.000289 0.001044 0.136141 0.3456661 4.815648 0.03408555 
0.001561 0.000387 0.135556 4.605659 0.8845814 0.02403682 
0.001249 -0.000673 0.134662 2.7528 -4.37275 0.02514542 
0.000265 -0.001061 0.135744 -2.785647 -3.861211 0.03850005 
-0.000512 0.000149 0.136253 -4.436228 1.676765 0.03361808 
0.000845 0.000864 0.150401 0.5152115 4.842207 0.0630929 
0.001473 -0 0.150402 4.712494 0.8280323 0.04981503 
0.000845 -0.000864 0.148762 2.580451 -4.370673 0.05255361 
-0.00017 -0.000534 0.148761 -3.142133 -3.773146 0.04161265 
-0.00017 0.000534 0.1504 -4.475292 1.868684 0.05430191 
0.000546 0.000797 0.157122 0.924202 2.319624 0.03468263 
0.001354 0.000247 0.157122 2.466161 -0.2128139 0.02678038 
0.001081 -0.000692 0.157122 0.6024216 -2.445301 0.01283519 
0.000104 -0.000722 0.15712 -2.102636 -1.381394 0.009247446 
-0.000227 0.000198 0.15712 -1.916298 1.571739 0.0293185 
0.001469 0.003471 -2e-06 1.474881 4.220191 0.9695604 
-0.002612 0.002145 -5e-06 -3.504513 2.670117 1.01284 
-0.002612 -0.002145 -5e-06 -3.610046 -2.5467 0.968459 
0.001469 -0.003471 -2e-06 1.350867 -4.281941 0.8937844 
0.00399 0 0 4.521012 -0.06155169 0.8931311 
0.00941 -0.006494 0.171512 -2.454397 -1.207326 0.7015395 
0.009544 -0.006817 0.170234 -1.196976 -2.339007 -0.8233404 
0.015729 -0.00776 0.17367 -1.203758 -3.015436 3.878139 
0.015755 -0.007712 0.171903 -0.1978274 -1.916772 -3.68189 
0.014415 -0.004181 0.173677 0.270267 1.201153 3.404096 
0.017841 -0.00227 0.172308 1.680564 0.8701895 2.477866 
0.008415 -0.002595 0.17093 -2.050863 0.8157719 4.92216 
0.014281 -0.00039 0.171761 -0.3672678 2.978128 2.696985 
0.014574 -0.000282 0.170425 2.213238 3.07965 -1.871288 
0.018371 -0.002349 0.171149 1.450683 -0.6070968 -1.098742 
0.01453 -0.004413 0.172375 1.317889 -0.9882626 -2.969931 
0.009511 -0.003386 0.168873 1.217145 -1.823595 -4.75619 
0.000245 -0.000835 0.162965 0.296637 -0.2599678 -2.579146 
2.9e-05 -0.000618 0.163985 -3.746422 1.132384 2.196649 
0.005744 0.001721 0.164332 0.1641168 2.015208 -1.282799 
0.006818 0.000756 0.167603 -1.139229 3.640752 2.322184 
0.003642 -0.005585 0.165102 -0.8476767 -1.909597 -0.7013178 
0.002875 -0.005256 0.166618 -1.135971 -1.286392 0.8324574 
0.005501 -0.0023 0.165885 2.524765 -2.419851 -4.847653 
0.004579 -0.001685 0.167633 -3.167782 0.9655253 4.40613 
0.005451 -0.005187 0.167567 -0.1772654 -1.701849 0.3927285 
0.019056 -0.009957 0.171933 -0.2177347 -1.534102 -0.1413457 
0.018501 -0.005945 0.171456 -0.8873436 -0.1230584 -4.889666 
0.025208 -0.008322 0.170207 0.3825274 -0.08189163 -0.1785729 
0.018834 -0.00579 0.172992 1.591142 0.326091 4.51569 
0.021095 -0.003574 0.171062 0.2244419 1.752048 -0.4554488 
0.008902 -0.006528 0.170036 0.4702943 -1.26233 0.3643478 
0.016103 0.000826 0.161761 1.182126 -1.71501 2.807968 
0.015765 1e-06 0.160841 -0.3989496 -2.344107 0.3093026 
0.020377 0.003037 0.159173 0.6648813 -1.422673 -0.541505 
0.011801 0.002946 0.162593 0.5035998 -0.1678807 5.471434 
0.018575 0.004665 0.161371 2.386633 0.4372119 5.012857 
0.013315 0.005623 0.161908 -0.05040191 2.681955 3.06609 
0.018592 0.008079 0.160188 0.471337 0.8144051 -0.4711018 
0.013041 0.005659 0.161159 -0.5300462 1.50629 -2.761771 
0.01156 0.002887 0.161556 -0.5304476 0.06787151 -5.746005 
0.018226 0.004589 0.160959 -1.778692 0.2601299 -4.154702 
0.007202 0.005429 0.160716 -0.1985633 0.2921642 -1.919914 
0.000245 7.3e-05 0.163831 -2.375698 -0.4209265 -1.467727 
0.007468 0.005339 0.162038 0.9960061 1.559561 1.514543 
-5.5e-05 5.2e-05 0.165023 -0.3000843 -0.1206056 1.659411 
0.006022 -0.001627 0.162718 1.037727 -3.820891 2.574978 
0.005814 -0.001938 0.162009 -0.4817277 -2.120073 -1.122984 
0.008525 -0.000605 0.162088 1.113096 -2.872504 2.999021 
0.014445 -7.8e-05 0.161555 1.19737 -0.4130125 -0.05015321 
0.006664 0.001704 0.163513 0.6944131 -0.01480222 4.574957 
0.008382 -0.000881 0.160423 0.3341796 -2.243878 -2.14905 
0.006307 0.001673 0.161727 0.5623512 0.41622 -4.965978 
0.003243 0.000798 0.162546 -1.686619 -0.419387 -4.592065 
0.003581 0.000907 0.163842 1.096274 -0.1091154 4.659795 
0.022399 0.005609 0.158024 4.521573 0.8165818 3.04196 
0.02348 0.00268 0.156004 0.2901362 0.173413 -0.6985812 
0.019397 0.008269 0.159496 -1.012242 1.015572 0.5549028 
0.021552 0.008339 0.155543 -0.1974053 0.6302466 -0.2288224 
0.021394 0.005345 0.157358 -4.6804 -1.251357 -3.425149 
0.024589 0.006196 0.150557 0.03172857 0.08503821 -0.312299 
0.023422 0.002445 0.154819 -0.1469958 -0.9308239 0.4895635 
0.008845 0.005994 0.161567 -0.8756627 2.04866 0.07072958 
0.01095 0.007445 0.164476 0.4104436 -2.256169 0.449411 
0.010332 0.00767 0.163271 1.159986 -2.233454 -1.707532 
0.014069 0.013346 0.162779 4.285826 -1.776689 2.282126 
0.013523 0.012937 0.161709 0.01442176 -1.883813 -3.816994 
0.01126 0.013517 0.165056 0.7544546 0.9664987 3.1009 
0.009889 0.017162 0.163366 0.5762478 2.070905 0.5315069 
0.006925 0.008419 0.164856 1.627227 -0.4968989 5.211267 
0.007023 0.014725 0.165383 -1.007451 1.175024 2.779615 
0.006686 0.014379 0.164033 -3.117521 2.705063 -2.266228 
0.009488 0.016706 0.162795 -0.4348918 0.8834212 -2.676735 
0.010557 0.013367 0.163014 -0.4491125 0.0289378 -4.341773 
0.006849 0.008417 0.163671 -0.8673475 -0.8193673 -5.810783 
-0.000455 0.000122 0.16326 -1.241749 -0.4145778 -3.025518 
-0.000556 -0.000291 0.164546 -0.3936175 -2.206959 3.375106 
4e-06 0.005936 0.16331 -2.377306 0.8871438 -0.5400587 
0.002335 0.0074 0.164491 -2.459729 1.298165 3.499822 
0.005237 0.001529 0.16167 1.019372 -1.74557 -0.50038 
0.005063 0.001852 0.162997 1.578248 -1.723417 1.381074 
0.003438 0.004689 0.162796 0.1341292 0.1844998 -5.892057 
0.003624 0.004495 0.165002 0.8545225 -1.161291 5.376359 
0.006426 0.004001 0.163202 1.849126 -1.48894 -0.0134418 
0.01589 0.015022 0.159633 1.285205 -1.009839 -0.5640054 
0.012713 0.016065 0.161156 -2.246098 -1.825447 -4.01777 
0.015567 0.020718 0.156106 0.06370345 0.1860158 -0.4153885 
0.013541 0.016863 0.162473 2.500521 2.070529 3.125537 
0.010939 0.019206 0.160483 -1.527024 0.7855015 0.04949933 
0.009956 0.006867 0.16324 1.284839 0.2545382 -0.3224927 
-0.006663 -0.013123 0.169128 -2.163072 1.093462 0.3111321 
-0.005946 -0.013623 0.168125 -1.890441 1.12352 -2.570809 
-0.006489 -0.019152 0.16915 -1.57477 -0.7429268 -1.883062 
-0.002157 -0.010519 0.168264 -0.9863911 2.95995 3.610504 
-0.003912 -0.016734 0.171917 -1.173666 0.6278001 5.077009 
-0.000427 -0.012782 0.169647 1.944694 1.189243 3.672509 
-0.000538 -0.018613 0.171452 0.7680703 -0.9575642 0.4513727 
0.000257 -0.013351 0.168516 1.75367 -1.346292 -1.67029 
-0.001994 -0.010771 0.167525 0.7927604 -2.478443 -5.209868 
-0.003285 -0.016948 0.170164 1.425449 -1.273359 -4.314615 
0.002169 -0.008392 0.16593 0.798044 -1.338416 -1.76588 
0.00083 0.000537 0.162599 0.9138422 0.893549 -2.602041 
0.002109 -0.00837 0.167246 0.3937171 -0.5324244 2.161097 
0.000499 0.001168 0.164135 -0.3323978 1.278669 1.584974 
-0.003765 -0.00439 0.164333 -3.756989 1.281492 -0.09980595 
-0.003432 -0.004653 0.16364 -1.503957 -0.2554672 -2.806361 
-0.003941 -0.006995 0.165311 -2.64989 1.037616 1.181946 
-0.006161 -0.013098 0.167792 -0.5047675 -1.022047 -0.2653624 
-0.000961 -0.00571 0.166128 -1.035817 1.985651 4.320665 
-0.003268 -0.007385 0.164587 -1.780053 -1.716046 -4.223522 
-0.000607 -0.00631 0.164823 0.4734346 -3.436217 -4.090372 
9e-06 -0.003359 0.163476 0.7801424 -1.69427 -4.568978 
-0.000308 -0.002809 0.165011 -1.32122 1.642574 4.47392 
-0.004072 -0.021817 0.170185 -1.819311 -2.460305 4.829456 
-0.00722 -0.02325 0.167947 0.3389629 -0.7690315 -0.2887675 
-0.000415 -0.019641 0.171394 1.177145 0.449814 0.1786476 
-0.001221 -0.02348 0.169087 0.408286 -0.1148279 -0.02200294 
-0.003878 -0.02154 0.169577 1.632887 1.797759 -5.329415 
-0.003479 -0.028556 0.165205 0.0673539 -0.1157663 -0.1118145 
-0.006701 -0.023547 0.167169 -0.7731688 0.7060094 0.04069938 
0.002444 -0.009709 0.167442 1.84569 0.4326416 0.4856042 
-0.006836 0.009952 0.168338 2.347969 0.5261869 0.121684 
-0.007289 0.009739 0.167206 2.154213 1.643015 -1.453807 
-0.0127 0.013477 0.167999 1.96859 3.379666 3.801981 
-0.012306 0.013464 0.167036 1.484311 1.145028 -3.38717 
-0.012809 0.01019 0.169303 -1.107157 -0.07274169 3.278531 
-0.016418 0.009546 0.167372 -2.297969 0.5167497 0.849573 
-0.007651 0.005837 0.168385 0.7197267 -0.4571187 5.069008 
-0.014209 0.006094 0.168235 -1.245651 -2.062535 2.27454 
-0.013955 0.006222 0.166671 -2.945235 -1.6942 -3.150904 
-0.01606 0.00939 0.166824 -0.9256986 0.6882739 -2.713569 
-0.01274 0.010256 0.167262 -0.3216563 1.287284 -4.234177 
-0.00789 0.006292 0.166555 0.5528628 1.463958 -5.819086 
-7e-05 -0.000284 0.163012 0.3749204 -0.2165457 -2.893567 
1.5e-05 -0.000451 0.16368 2.248178 -1.978604 2.617869 
-0.005847 -6.6e-05 0.163162 -0.8993677 -2.203779 -1.473859 
-0.007131 0.001511 0.165865 -0.7960335 -2.946693 2.431267 
-0.001349 0.005254 0.163769 1.624041 1.245111 -1.380613 
-0.000754 0.005328 0.165227 1.29287 0.8121858 0.3524801 
-0.004381 0.003569 0.163864 -0.4749423 2.261815 -5.304209 
-0.004188 0.003046 0.165589 1.75821 -1.2655 5.192608 
-0.00315 0.006668 0.165434 0.6321629 1.224166 0.07677859 
-0.014306 0.016559 0.165984 0.8073872 1.040942 0.1091064 
-0.015629 0.013082 0.166786 1.47345 -0.6575137 -4.532799 
-0.019762 0.017218 0.163198 -0.1418321 0.08841851 -0.2414875 
-0.016045 0.013278 0.167657 -1.903403 1.259238 3.968677 
-0.018273 0.012008 0.165399 -0.7426364 -1.096318 -0.3430911 
-0.00625 0.009918 0.166911 -0.277419 1.09038 0.1448653 
-0.01298 -0.00449 0.16539 0.08306724 2.385439 0.3826075 
-0.012585 -0.004833 0.164267 -0.8266474 2.660046 -1.653911 
-0.017669 -0.009275 0.164013 -3.342971 2.383195 2.764137 
-0.017098 -0.00901 0.162882 0.2193366 2.266766 -3.563702 
-0.014706 -0.010235 0.165827 -0.936441 -1.140248 3.201104 
-0.014677 -0.014342 0.164097 -1.023919 -1.888607 1.445876 
-0.009318 -0.006265 0.165839 -0.8203413 0.5082732 5.461645 
-0.01101 -0.012166 0.165399 1.35436 -1.881623 3.139349 
-0.010659 -0.012099 0.16444 2.575799 -3.390565 -1.770074 
-0.014158 -0.014204 0.162659 -0.247004 -0.6558495 -1.947374 
-0.014263 -0.010117 0.164175 -0.05363101 0.1065613 -3.758916 
-0.009456 -0.006295 0.163795 0.4221402 1.057535 -5.643579 
-0.000567 -0.000127 0.163387 0.9917794 0.2001095 -2.525706 
-0.000655 -0.000155 0.163918 1.785402 1.747971 3.578479 
-0.002256 -0.00546 0.163206 1.898241 -1.167121 -0.4041465 
-0.004725 -0.006399 0.164462 2.439203 -1.904132 3.477464 
-0.006299 3.4e-05 0.1623 -0.5650508 1.921063 -0.9941913 
-0.006437 0.000285 0.163875 -0.7141765 1.542801 0.6837464 
-0.00523 -0.003446 0.163307 -0.503767 0.06174192 -5.952753 
-0.005177 -0.003328 0.165263 0.3933614 0.9835155 5.330251 
-0.008099 -0.00189 0.163753 -1.23911 1.092385 -0.2096555 
-0.020544 -0.009979 0.160735 -0.9111744 1.242081 -0.3089318 
-0.016917 -0.012035 0.161778 2.549391 1.366089 -4.039508 
-0.020903 -0.015228 0.15813 -0.1617186 -0.3573699 -0.3776208 
-0.017748 -0.012621 0.163117 -2.661297 -1.890716 3.458678 
-0.016606 -0.015072 0.161363 1.396385 -1.445032 -0.01370972 
-0.011647 -0.004146 0.1642 -1.377376 0.2855815 -0.201209 
0.006829 -0.014334 0.161635 -2.005666 -1.342984 1.618173 
0.006735 -0.014028 0.160848 -3.145369 -0.1700064 -0.5992724 
0.010071 -0.017712 0.158454 -2.64531 -1.334534 -1.449333 
0.007642 -0.009439 0.16217 -0.7408081 -0.3483122 4.974646 
0.01173 -0.015707 0.161658 1.26003 -2.194917 4.470693 
0.011335 -0.009707 0.162272 2.271551 1.068247 2.382531 
0.014265 -0.014067 0.159585 1.542419 -0.1353568 -0.8708717 
0.010797 -0.009489 0.160344 1.026508 1.420422 -3.22416 
0.007479 -0.009241 0.16147 -1.323741 0.8048471 -5.720981 
0.011268 -0.014589 0.159594 -0.6485038 1.771506 -4.348485 
0.00847 -0.004261 0.160583 0.1490133 0.1777667 -1.937463 
0.001122 0.000694 0.164258 -1.300276 2.312191 -1.010198 
0.00882 -0.00471 0.16205 1.789737 -0.5103915 1.720085 
0.001396 0.000268 0.164908 0.05485791 0.343976 2.52151 
0.001098 -0.005844 0.16338 -3.005493 -1.845163 1.523499 
0.001154 -0.005388 0.162366 -2.496737 -0.212226 -2.143466 
0.003153 -0.007583 0.162261 -1.672687 -1.971664 2.159577 
0.006092 -0.012927 0.161092 0.02628356 -1.00042 -0.6205057 
0.004818 -0.00502 0.163418 0.5960965 -0.9563686 4.647179 
0.003255 -0.007214 0.161403 -2.077761 -1.111026 -3.79363 
0.004621 -0.004744 0.16227 0.1157612 -0.5747436 -5.113403 
0.002755 -0.001999 0.162435 -1.007397 0.957112 -4.47039 
0.00311 -0.002404 0.164049 0.7901099 -1.02583 4.714698 
0.013644 -0.018914 0.157486 2.408692 -3.84366 2.296726 
0.010461 -0.021072 0.154662 0.112817 -0.1596295 -0.6839828 
0.014838 -0.014919 0.158708 1.199863 1.595884 0.1292405 
0.015051 -0.01703 0.154907 0.8785099 0.7632512 -0.461016 
0.012699 -0.017503 0.156546 -2.695898 3.960722 -3.352078 
0.0143 -0.020162 0.149344 0.1026092 0.116194 -0.4827597 
0.010982 -0.020102 0.154155 -1.099006 -0.3149478 0.4117469 
0.009416 -0.00577 0.161436 1.05422 1.779568 -0.04210974 
-0.008711 0.004503 0.171443 1.867766 1.704317 -0.02030927 
-0.009079 0.00431 0.170526 0.3356101 2.41854 -1.696773 
-0.015131 0.00434 0.173413 1.265899 4.065541 2.987805 
-0.015132 0.004208 0.172633 -0.04044993 2.166451 -4.150059 
-0.013068 0.001593 0.174032 0.7460443 -0.5146765 3.256201 
-0.016577 -0.001222 0.173665 -1.239691 -0.8475785 1.900504 
-0.007322 0.000871 0.170739 2.408955 0.3173226 4.977363 
-0.012289 -0.002179 0.172524 1.282383 -2.373601 3.20706 
-0.012576 -0.00255 0.171411 -1.667576 -3.003706 -1.561377 
-0.016221 -0.001112 0.172421 -1.741446 -0.06821889 -2.230278 
-0.013713 0.001563 0.172099 -1.61846 0.9332302 -3.902563 
-0.007753 0.000938 0.169875 -1.85 1.414187 -5.391423 
0.00094 -0.000216 0.162906 -0.5003181 0.05113803 -2.547784 
0.001156 -0.000263 0.163891 3.944838 -0.03361666 1.868455 
-0.00387 -0.003559 0.164899 0.1743686 -2.094578 -1.007833 
-0.004951 -0.00248 0.168101 1.95893 -3.171996 2.620674 
-0.002988 0.003485 0.165314 0.2083247 2.079783 -1.383488 
-0.002472 0.003721 0.166114 0.7652467 1.648507 0.1971617 
-0.004275 0.000533 0.166095 -3.406512 1.412405 -4.542011 
-0.003133 0.000303 0.167865 3.403672 0.2326727 4.425545 
-0.004758 0.003458 0.167403 -0.1957136 1.964356 -0.1882799 
-0.018847 0.006409 0.172187 0.4388992 1.858719 -0.4017144 
-0.017488 0.002295 0.17212 0.4730307 0.2972758 -4.935802 
-0.024633 0.003233 0.171106 -0.5608454 0.008437514 -0.33297 
-0.01785 0.002181 0.174586 -0.6957069 0.1902089 4.21831 
-0.019706 -0.000893 0.172061 0.04852366 -1.985115 -0.5305125 
-0.008012 0.004013 0.16984 -1.027406 0.8696034 0.4267223 
0.006513 0.00847 0.171342 2.075659 -1.045255 0.720397 
0.006059 0.008871 0.170259 2.102287 -1.62344 -2.149317 
0.006371 0.014292 0.1702 2.695493 -0.1987078 -2.018261 
0.002055 0.006297 0.170249 0.1744029 -2.882516 3.823842 
0.00393 0.01272 0.17311 0.5101182 0.06849962 5.006755 
0.000248 0.008814 0.171113 -2.775486 -0.5526711 3.158603 
0.000917 0.01465 0.171533 -0.8576905 1.216263 0.06032449 
-8.8e-05 0.009355 0.169664 -1.532841 1.059475 -2.307328 
0.002028 0.006546 0.169512 0.625735 2.186216 -5.165903 
0.003433 0.012685 0.170804 -0.7777418 0.4314918 -4.629543 
-0.002175 0.005967 0.166964 0.3114238 1.782365 -1.133745 
-0.000519 -0.000587 0.161938 -0.2226131 -0.04258907 -2.791054 
-0.00218 0.00522 0.168433 -1.444598 -0.1919602 1.780795 
-0.000799 -0.001789 0.16287 -0.710336 -1.868852 0.6296021 
0.004059 0.000921 0.166166 3.077563 -2.492073 0.5933707 
0.003976 0.001665 0.165038 1.999415 0.3216914 -2.211627 
0.003939 0.00306 0.167514 2.235538 -2.302325 2.189702 
0.005695 0.007078 0.169987 0.9020115 1.001728 0.6190013 
0.000739 0.002265 0.167713 -0.4424131 -2.813601 3.691559 
0.004175 0.00413 0.165955 2.714089 1.488139 -2.140988 
0.000841 0.00347 0.166233 0.4963569 4.542309 -2.697449 
0.000433 0.001735 0.164275 0.8186437 3.023298 -3.665255 
0.000127 0.000641 0.165442 -0.7813061 -3.326468 3.35688 
0.005131 0.017923 0.170922 1.442078 2.731389 4.040599 
0.008311 0.018004 0.168289 0.1130124 0.4894987 -0.5714462 
0.001038 0.015747 0.171184 -1.831752 -0.3353993 0.07168913 
0.002048 0.019189 0.168214 -0.9055654 0.2437999 -0.279571 
0.004703 0.016889 0.169341 -1.002713 -2.685549 -5.131042 
0.00577 0.023155 0.164038 -0.02168775 0.18959 -0.4181553 
0.008007 0.018293 0.167317 0.9122882 -0.752683 0.1156297 
-0.001305 0.006186 0.16874 -2.194303 -0.1055406 -0.07182157 
0.000508 -0.010338 0.172528 -2.220933 -0.1307669 1.025208 
0.000972 -0.010466 0.1715 -3.112572 0.1813026 -1.940023 
0.003043 -0.015629 0.171267 -2.226628 -1.299923 -1.404753 
0.002736 -0.005886 0.171648 -1.097573 2.387003 3.614394 
0.005006 -0.012418 0.173637 0.369039 -0.1212729 5.422629 
0.005701 -0.007382 0.171591 2.667878 1.623952 2.541806 
0.008047 -0.01171 0.172363 1.623905 -0.395495 -0.1895575 
0.005709 -0.007514 0.17086 2.917814 -0.4597482 -2.696048 
0.003147 -0.006936 0.169432 1.080178 -2.16462 -4.973467 
0.005202 -0.012255 0.171761 1.524223 -0.07881999 -4.543476 
0.005496 -0.003436 0.167565 0.6751697 -1.493324 -0.8799992 
0.000618 0.000685 0.162589 0.0526494 0.1932909 -2.43209 
0.005019 -0.002971 0.168151 1.660625 1.138258 1.981219 
0.000285 0.00189 0.163565 -0.1229794 2.081786 0.4758714 
-0.002341 -0.002808 0.167447 -3.776344 0.512202 0.9660465 
-0.002049 -0.003762 0.16582 -1.162733 -1.440313 -1.642182 
-0.000991 -0.004511 0.168821 -2.459824 0.6505194 2.335426 
0.000471 -0.009825 0.171304 -0.5292799 -1.218803 0.2711242 
0.001626 -0.002254 0.168379 -0.6375695 2.762687 3.635564 
-0.000388 -0.005561 0.167132 -1.504122 -3.04821 -2.161596 
0.002074 -0.003367 0.166946 1.555848 -3.594414 -3.162776 
0.001237 -0.001487 0.165216 1.04644 -3.081467 -3.65838 
0.001019 -0.000413 0.166311 -0.3896606 3.41111 3.355215 
0.006597 -0.017478 0.171801 0.646699 -3.059127 4.24968 
0.00376 -0.019484 0.169621 0.2778332 -0.5481559 -0.5612093 
0.009577 -0.01323 0.171892 1.000873 1.131952 -0.1060939 
0.009271 -0.017175 0.169071 0.7608168 0.1760233 -0.3753959 
0.006333 -0.016628 0.17051 -1.032936 2.51064 -5.215788 
0.008316 -0.022662 0.165062 0.05598111 -0.1075672 -0.3652074 
0.004524 -0.019435 0.1687 -1.190159 0.1304004 0.2104704 
0.005972 -0.004095 0.169144 2.603623 1.061087 -0.6000501 
-0.007063 -0.004382 0.156944 -2.460061 0.7322692 0.8070225 
-0.00648 -0.004034 0.156484 -0.1824046 2.799656 -0.1323808 
-0.006694 -0.006931 0.153683 -0.9785485 1.782515 -1.751007 
-0.003866 -0.005797 0.160061 -2.785835 -0.5741453 4.139251 
-0.005371 -0.008794 0.15686 -3.936529 -3.229678 2.415408 
-0.001869 -0.008528 0.159568 0.3354841 -2.559833 2.204016 
-0.002134 -0.010717 0.157205 1.029979 -1.309711 -0.6030797 
-0.00147 -0.007938 0.158801 3.559347 -0.06974205 -1.935713 
-0.002957 -0.005323 0.159071 3.238322 2.135418 -4.340855 
-0.003822 -0.007838 0.15589 3.611702 2.152385 -2.385146 
0.001451 -0.006337 0.160783 1.87168 0.19267 -1.099269 
-4.5e-05 -0.00031 0.163981 2.804385 2.719022 1.02381 
0.000689 -0.007006 0.161502 -0.2751597 -2.112792 0.8925593 
-0.000592 -0.00056 0.164932 -0.1457736 0.3680884 2.228162 
-0.004561 4.9e-05 0.160828 -3.196066 2.311707 0.6104347 
-0.00381 0.000478 0.160198 0.2274435 2.524875 -1.251212 
-0.004611 -0.001607 0.159809 -3.501597 0.1195866 0.6978816 
-0.006032 -0.003474 0.157583 -1.259655 -0.1646949 -1.299972 
-0.002194 -0.003476 0.161757 -3.045321 -1.897609 3.075997 
-0.003604 -0.001264 0.158871 -0.3030779 2.492594 -3.676128 
-0.00091 -0.002798 0.160347 2.341857 0.3683459 -4.775885 
-0.000295 -0.001398 0.16178 3.297183 2.40967 -2.63886 
-0.00192 -0.00246 0.163463 -3.163397 -1.918624 2.935483 
-0.005089 -0.00978 0.153428 -4.01658 -4.067611 -0.5133373 
-0.006894 -0.006706 0.150876 0.152784 -0.1206376 -0.7614777 
-0.001578 -0.0119 0.156461 0.9574506 -0.2779583 0.5798745 
-0.002483 -0.010854 0.153008 0.7344623 -0.5225968 -0.2576099 
-0.004196 -0.008829 0.15339 3.983554 4.185558 -0.737007 
-0.002931 -0.009574 0.147017 0.2432104 -0.1001859 -0.3242345 
-0.006118 -0.007276 0.150311 -0.6838671 0.7152178 0.3846597 
0.000378 -0.007086 0.160702 1.788465 -0.8098311 0.618516 
0.007071 0.004878 0.156786 3.40109 0.6191152 0.8603946 
0.007004 0.003963 0.156761 1.311336 -1.718975 0.9680776 
0.00643 0.005542 0.152513 1.635969 -1.972649 -0.6847634 
0.004601 0.006221 0.159432 3.345457 2.220942 3.800836 
0.006067 0.008009 0.154712 3.916086 3.771918 0.2787359 
0.0032 0.008669 0.158161 -0.2242543 3.280015 1.332129 
0.002862 0.009482 0.154277 -0.9590733 0.8922039 -1.149471 
0.002247 0.007451 0.157369 -3.459783 -0.5929109 -1.432949 
0.003622 0.005258 0.158508 -3.590279 -3.599149 -2.832432 
0.004807 0.006934 0.154519 -3.614128 -2.583044 -0.9264348 
1e-05 0.006314 0.159844 -0.5508386 -0.39672 -1.989313 
-0.000645 0.000675 0.163531 -1.838651 -1.629813 0.3515641 
0.000758 0.00691 0.160563 0.3653909 2.21803 0.9207641 
0.000117 0.001479 0.164599 0.1586411 0.4935292 2.364002 
0.004626 0.00142 0.162109 3.331614 -0.7723376 1.914541 
0.004116 0.000323 0.161279 0.3541261 -1.684686 -1.208567 
0.004428 0.002823 0.160586 3.469467 0.5434303 1.92752 
0.006682 0.004214 0.157429 1.11302 -0.4273864 -0.4939955 
0.00264 0.004141 0.161624 2.501799 2.000577 3.562865 
0.0042 0.002329 0.160134 1.142394 -1.894946 -2.713075 
0.002183 0.003743 0.161013 -1.664656 -1.690623 -4.59564 
0.001116 0.002393 0.161829 -1.72008 -1.927444 -4.168837 
0.001603 0.003006 0.162885 2.244279 2.445417 3.616194 
0.005153 0.007084 0.149964 3.93965 3.499315 -2.121343 
0.006543 0.004069 0.149253 -0.1268702 -0.4601353 -0.6221136 
0.00288 0.009355 0.15272 -1.160047 1.005439 0.8301361 
0.001965 0.007755 0.148542 -0.822413 0.5814621 -0.1805224 
0.004178 0.005941 0.150767 -3.541567 -4.358771 1.645695 
0.002242 0.0042 0.141774 -0.1672004 -0.07599372 -0.3150072 
0.006051 0.003735 0.147778 0.9843175 -0.5246316 0.4531067 
0.001016 0.007126 0.159804 -2.3003 0.7108228 0.8975987 
0.00228 -0.005023 0.157358 -0.1453888 -2.253116 1.653629 
0.001638 -0.004861 0.157427 -1.471175 -1.673338 0.5040401 
0.003238 -0.004558 0.153045 1.560423 -5.688794 -0.729272 
0.002338 -0.004208 0.153245 -3.571345 0.8304144 0.08114906 
0.005166 -0.003009 0.15488 3.379201 -1.805863 -0.4826043 
0.006733 0.000155 0.152726 2.931125 -0.8089647 -1.716964 
0.004592 -0.002911 0.159186 4.048117 -3.512622 1.257718 
0.006607 0.000376 0.156078 4.452913 -0.3236193 1.39043 
0.006251 0.001719 0.156057 0.9421994 2.942483 -0.42292 
0.005617 0.001132 0.152466 -1.309857 0.9717582 -1.285726 
0.004449 -0.002436 0.154816 -3.096308 1.811628 -1.079551 
0.003509 -0.002099 0.158633 -4.552252 2.238374 -0.8513339 
-9.1e-05 2.9e-05 0.165008 -2.153426 1.616305 -0.2251473 
0.001141 -0.000811 0.165218 1.507033 -1.44951 3.725266 
0.003128 0.001847 0.161873 0.2892476 2.383322 0.8339356 
0.004407 0.000679 0.160939 4.038524 0.4982008 2.373836 
-0.000466 -0.003351 0.161575 -2.522155 -0.4546928 -0.1089808 
-0.000218 -0.004159 0.161848 -0.8069916 -1.123294 0.1477558 
0.001749 -0.001037 0.161121 -4.383124 2.516493 -3.055328 
0.003044 -0.001949 0.161873 3.407625 -3.071325 2.869724 
0.000842 -0.003596 0.160293 -1.377306 -1.173414 -0.8906344 
0.001518 -0.004314 0.15005 -0.6807847 -1.139427 -0.2204458 
0.003815 -0.001961 0.151701 -3.911581 2.73098 1.389497 
0.001723 -0.000196 0.144723 -0.1169766 0.1052962 -0.2019373 
0.004532 -0.002405 0.151271 3.75019 -2.423902 -1.765421 
0.005069 0.001028 0.150385 0.6464025 1.163279 0.5341431 
0.001518 -0.004729 0.157969 -0.350152 -0.7482103 -1.01482 
3 0 1 2 
3 0 2 3 
3 1 4 5 
3 1 5 2 
3 4 6 7 
3 4 7 5 
3 6 8 9 
3 6 9 7 
3 8 0 3 
3 8 3 9 
3 10 11 12 
3 13 10 12 
3 14 13 12 
3 15 14 12 
3 11 15 12 
3 16 17 18 
3 17 19 18 
3 19 20 18 
3 20 21 18 
3 21 16 18 
3 22 23 24 
3 22 24 25 
3 23 26 27 
3 23 27 24 
3 26 28 29 
3 26 29 27 
3 28 30 31 
3 28 31 29 
3 30 22 25 
3 30 25 31 
3 25 24 17 
3 25 17 16 
3 24 27 19 
3 24 19 17 
3 27 29 20 
3 27 20 19 
3 29 31 21 
3 29 21 20 
3 31 25 16 
3 31 16 21 
3 32 33 4 
3 32 4 1 
3 33 34 6 
3 33 6 4 
3 34 35 8 
3 34 8 6 
3 35 36 0 
3 35 0 8 
3 36 32 1 
3 36 1 0 
3 9 3 37 
3 9 37 38 
3 7 9 38 
3 7 38 39 
3 5 7 39 
3 5 39 40 
3 2 5 40 
3 2 40 41 
3 3 2 41 
3 3 41 37 
3 38 37 42 
3 38 42 43 
3 39 38 43 
3 39 43 44 
3 40 39 44 
3 40 44 45 
3 41 40 45 
3 41 45 46 
3 37 41 46 
3 37 46 42 
3 43 42 47 
3 43 47 48 
3 44 43 48 
3 44 48 49 
3 45 44 49 
3 45 49 50 
3 46 45 50 
3 46 50 51 
3 42 46 51 
3 42 51 47 
3 32 36 52 
3 32 52 53 
3 33 32 53 
3 33 53 54 
3 34 33 54 
3 34 54 55 
3 35 34 55 
3 35 55 56 
3 36 35 56 
3 36 56 52 
3 53 52 11 
3 53 11 10 
3 54 53 10 
3 54 10 13 
3 55 54 13 
3 55 13 14 
3 56 55 14 
3 56 14 15 
3 52 56 15 
3 52 15 11 
3 57 58 59 
3 59 58 60 
3 61 62 63 
3 64 63 62 
3 64 62 65 
3 65 62 66 
3 67 68 66 
3 68 65 66 
3 69 70 71 
3 71 70 72 
3 69 73 70 
3 70 73 74 
3 61 63 59 
3 63 57 59 
3 67 60 68 
3 58 68 60 
3 71 65 75 
3 75 65 68 
3 71 72 65 
3 65 72 64 
3 72 76 64 
3 64 76 63 
3 69 71 75 
3 73 77 74 
3 73 69 77 
3 77 69 75 
3 78 79 80 
3 59 60 78 
3 61 59 81 
3 81 59 78 
3 79 82 80 
3 81 78 80 
3 82 81 80 
3 67 79 60 
3 60 79 78 
3 74 77 70 
3 70 77 76 
3 72 70 76 
3 82 61 81 
3 67 82 79 
3 77 83 76 
3 76 83 63 
3 77 75 83 
3 83 75 68 
3 63 68 57 
3 57 68 58 
3 61 67 62 
3 62 67 66 
3 61 82 67 
3 63 83 68 
3 84 85 86 
3 87 88 89 
3 89 88 90 
3 91 89 90 
3 92 91 93 
3 91 90 93 
3 94 95 96 
3 96 95 97 
3 97 95 98 
3 98 95 99 
3 86 88 84 
3 87 84 88 
3 93 86 92 
3 85 92 86 
3 100 101 102 
3 102 101 87 
3 103 101 100 
3 103 104 101 
3 101 104 92 
3 105 94 104 
3 97 106 96 
3 98 106 97 
3 99 103 98 
3 98 103 100 
3 99 105 103 
3 103 105 104 
3 88 86 107 
3 107 86 108 
3 88 107 109 
3 109 107 110 
3 111 110 112 
3 107 113 112 
3 110 107 112 
3 93 111 86 
3 86 111 108 
3 93 109 111 
3 111 109 110 
3 95 105 99 
3 94 105 95 
3 98 100 106 
3 106 100 102 
3 96 106 102 
3 113 111 112 
3 102 87 114 
3 114 87 89 
3 91 114 89 
3 104 114 92 
3 92 114 91 
3 87 101 92 
3 102 104 96 
3 96 104 94 
3 88 109 93 
3 107 108 111 
3 107 111 113 
3 88 93 90 
3 84 87 85 
3 85 87 92 
3 102 114 104 
3 115 116 117 
3 117 116 118 
3 119 120 121 
3 122 121 120 
3 122 120 123 
3 123 120 124 
3 125 126 124 
3 126 123 124 
3 127 128 129 
3 129 128 130 
3 127 131 128 
3 128 131 132 
3 119 121 117 
3 121 115 117 
3 125 118 126 
3 116 126 118 
3 129 123 133 
3 133 123 126 
3 129 130 123 
3 123 130 122 
3 130 134 122 
3 122 134 121 
3 127 129 133 
3 131 135 132 
3 131 127 135 
3 135 127 133 
3 136 137 138 
3 117 118 136 
3 119 117 139 
3 139 117 136 
3 137 140 138 
3 139 136 138 
3 140 139 138 
3 125 137 118 
3 118 137 136 
3 132 135 128 
3 128 135 134 
3 130 128 134 
3 140 119 139 
3 125 140 137 
3 135 141 134 
3 134 141 121 
3 135 133 141 
3 141 133 126 
3 121 126 115 
3 115 126 116 
3 119 125 120 
3 120 125 124 
3 119 140 125 
3 121 141 126 
3 142 143 144 
3 145 146 147 
3 147 146 148 
3 149 147 148 
3 150 149 151 
3 149 148 151 
3 152 153 154 
3 154 153 155 
3 155 153 156 
3 156 153 157 
3 144 146 142 
3 145 142 146 
3 151 144 150 
3 143 150 144 
3 158 159 160 
3 160 159 145 
3 161 159 158 
3 161 162 159 
3 159 162 150 
3 163 152 162 
3 155 164 154 
3 156 164 155 
3 157 161 156 
3 156 161 158 
3 157 163 161 
3 161 163 162 
3 146 144 165 
3 165 144 166 
3 146 165 167 
3 167 165 168 
3 169 168 170 
3 165 171 170 
3 168 165 170 
3 151 169 144 
3 144 169 166 
3 151 167 169 
3 169 167 168 
3 153 163 157 
3 152 163 153 
3 156 158 164 
3 164 158 160 
3 154 164 160 
3 171 169 170 
3 160 145 172 
3 172 145 147 
3 149 172 147 
3 162 172 150 
3 150 172 149 
3 145 159 150 
3 160 162 154 
3 154 162 152 
3 146 167 151 
3 165 166 169 
3 165 169 171 
3 146 151 148 
3 142 145 143 
3 143 145 150 
3 160 172 162 
3 173 174 175 
3 175 174 176 
3 177 178 179 
3 180 179 178 
3 180 178 181 
3 181 178 182 
3 183 184 182 
3 184 181 182 
3 185 186 187 
3 187 186 188 
3 185 189 186 
3 186 189 190 
3 177 179 175 
3 179 173 175 
3 183 176 184 
3 174 184 176 
3 187 181 191 
3 191 181 184 
3 187 188 181 
3 181 188 180 
3 188 192 180 
3 180 192 179 
3 185 187 191 
3 189 193 190 
3 189 185 193 
3 193 185 191 
3 194 195 196 
3 175 176 194 
3 177 175 197 
3 197 175 194 
3 195 198 196 
3 197 194 196 
3 198 197 196 
3 183 195 176 
3 176 195 194 
3 190 193 186 
3 186 193 192 
3 188 186 192 
3 198 177 197 
3 183 198 195 
3 193 199 192 
3 192 199 179 
3 193 191 199 
3 199 191 184 
3 179 184 173 
3 173 184 174 
3 177 183 178 
3 178 183 182 
3 177 198 183 
3 179 199 184 
3 200 201 202 
3 202 201 203 
3 204 205 206 
3 207 206 205 
3 207 205 208 
3 208 205 209 
3 210 211 209 
3 211 208 209 
3 212 213 214 
3 214 213 215 
3 212 216 213 
3 213 216 217 
3 204 206 202 
3 206 200 202 
3 210 203 211 
3 201 211 203 
3 214 208 218 
3 218 208 211 
3 214 215 208 
3 208 215 207 
3 215 219 207 
3 207 219 206 
3 212 214 218 
3 216 220 217 
3 216 212 220 
3 220 212 218 
3 221 222 223 
3 202 203 221 
3 204 202 224 
3 224 202 221 
3 222 225 223 
3 224 221 223 
3 225 224 223 
3 210 222 203 
3 203 222 221 
3 217 220 213 
3 213 220 219 
3 215 213 219 
3 225 204 224 
3 210 225 222 
3 220 226 219 
3 219 226 206 
3 220 218 226 
3 226 218 211 
3 206 211 200 
3 200 211 201 
3 204 210 205 
3 205 210 209 
3 204 225 210 
3 206 226 211 
3 227 228 229 
3 230 231 232 
3 232 231 233 
3 234 232 233 
3 235 234 236 
3 234 233 236 
3 237 238 239 
3 239 238 240 
3 240 238 241 
3 241 238 242 
3 229 231 227 
3 230 227 231 
3 236 229 235 
3 228 235 229 
3 243 244 245 
3 245 244 230 
3 246 244 243 
3 246 247 244 
3 244 247 235 
3 248 237 247 
3 240 249 239 
3 241 249 240 
3 242 246 241 
3 241 246 243 
3 242 248 246 
3 246 248 247 
3 231 229 250 
3 250 229 251 
3 231 250 252 
3 252 250 253 
3 254 253 255 
3 250 256 255 
3 253 250 255 
3 236 254 229 
3 229 254 251 
3 236 252 254 
3 254 252 253 
3 238 248 242 
3 237 248 238 
3 241 243 249 
3 249 243 245 
3 239 249 245 
3 256 254 255 
3 245 230 257 
3 257 230 232 
3 234 257 232 
3 247 257 235 
3 235 257 234 
3 230 244 235 
3 245 247 239 
3 239 247 237 
3 231 252 236 
3 250 251 254 
3 250 254 256 
3 231 236 233 
3 227 230 228 
3 228 230 235 
3 245 257 247 
3 258 259 260 
3 260 259 261 
3 262 263 264 
3 265 264 263 
3 265 263 266 
3 266 263 267 
3 268 269 267 
3 269 266 267 
3 270 271 272 
3 272 271 273 
3 270 274 271 
3 271 274 275 
3 262 264 260 
3 264 258 260 
3 268 261 269 
3 259 269 261 
3 272 266 276 
3 276 266 269 
3 272 273 266 
3 266 273 265 
3 273 277 265 
3 265 277 264 
3 270 272 276 
3 274 278 275 
3 274 270 278 
3 278 270 276 
3 279 280 281 
3 260 261 279 
3 262 260 282 
3 282 260 279 
3 280 283 281 
3 282 279 281 
3 283 282 281 
3 268 280 261 
3 261 280 279 
3 275 278 271 
3 271 278 277 
3 273 271 277 
3 283 262 282 
3 268 283 280 
3 278 284 277 
3 277 284 264 
3 278 276 284 
3 284 276 269 
3 264 269 258 
3 258 269 259 
3 262 268 263 
3 263 268 267 
3 262 283 268 
3 264 284 269 
3 285 286 287 
3 288 289 290 
3 290 289 291 
3 292 290 291 
3 293 292 294 
3 292 291 294 
3 295 296 297 
3 297 296 298 
3 298 296 299 
3 299 296 300 
3 287 289 285 
3 288 285 289 
3 294 287 293 
3 286 293 287 
3 301 302 303 
3 303 302 288 
3 304 302 301 
3 304 305 302 
3 302 305 293 
3 306 295 305 
3 298 307 297 
3 299 307 298 
3 300 304 299 
3 299 304 301 
3 300 306 304 
3 304 306 305 
3 289 287 308 
3 308 287 309 
3 289 308 310 
3 310 308 311 
3 312 311 313 
3 308 314 313 
3 311 308 313 
3 294 312 287 
3 287 312 309 
3 294 310 312 
3 312 310 311 
3 296 306 300 
3 295 306 296 
3 299 301 307 
3 307 301 303 
3 297 307 303 
3 314 312 313 
3 303 288 315 
3 315 288 290 
3 292 315 290 
3 305 315 293 
3 293 315 292 
3 288 302 293 
3 303 305 297 
3 297 305 295 
3 289 310 294 
3 308 309 312 
3 308 312 314 
3 289 294 291 
3 285 288 286 
3 286 288 293 
3 303 315 305 
3 316 317 318 
3 319 320 321 
3 321 320 322 
3 323 321 322 
3 324 323 325 
3 323 322 325 
3 326 327 328 
3 328 327 329 
3 329 327 330 
3 330 327 331 
3 318 320 316 
3 319 316 320 
3 325 318 324 
3 317 324 318 
3 332 333 334 
3 334 333 319 
3 335 333 332 
3 335 336 333 
3 333 336 324 
3 337 326 336 
3 329 338 328 
3 330 338 329 
3 331 335 330 
3 330 335 332 
3 331 337 335 
3 335 337 336 
3 320 318 339 
3 339 318 340 
3 320 339 341 
3 341 339 342 
3 343 342 344 
3 339 345 344 
3 342 339 344 
3 325 343 318 
3 318 343 340 
3 325 341 343 
3 343 341 342 
3 327 337 331 
3 326 337 327 
3 330 332 338 
3 338 332 334 
3 328 338 334 
3 345 343 344 
3 334 319 346 
3 346 319 321 
3 323 346 321 
3 336 346 324 
3 324 346 323 
3 319 333 324 
3 334 336 328 
3 328 336 326 
3 320 341 325 
3 339 340 343 
3 339 343 345 
3 320 325 322 
3 316 319 317 
3 317 319 324 
3 334 346 336 
3 347 348 349 
3 350 351 352 
3 352 351 353 
3 354 352 353 
3 355 354 356 
3 354 353 356 
3 357 358 359 
3 359 358 360 
3 360 358 361 
3 361 358 362 
3 349 351 347 
3 350 347 351 
3 356 349 355 
3 348 355 349 
3 363 364 365 
3 365 364 350 
3 366 364 363 
3 366 367 364 
3 364 367 355 
3 368 357 367 
3 360 369 359 
3 361 369 360 
3 362 366 361 
3 361 366 363 
3 362 368 366 
3 366 368 367 
3 351 349 370 
3 370 349 371 
3 351 370 372 
3 372 370 373 
3 374 373 375 
3 370 376 375 
3 373 370 375 
3 356 374 349 
3 349 374 371 
3 356 372 374 
3 374 372 373 
3 358 368 362 
3 357 368 358 
3 361 363 369 
3 369 363 365 
3 359 369 365 
3 376 374 375 
3 365 350 377 
3 377 350 352 
3 354 377 352 
3 367 377 355 
3 355 377 354 
3 350 364 355 
3 365 367 359 
3 359 367 357 
3 351 372 356 
3 370 371 374 
3 370 374 376 
3 351 356 353 
3 347 350 348 
3 348 350 355 
3 365 377 367 
3 378 379 380 
3 381 382 383 
3 383 382 384 
3 385 383 384 
3 386 385 387 
3 385 384 387 
3 388 389 390 
3 390 389 391 
3 391 389 392 
3 392 389 393 
3 380 382 378 
3 381 378 382 
3 387 380 386 
3 379 386 380 
3 394 395 396 
3 396 395 381 
3 397 395 394 
3 397 398 395 
3 395 398 386 
3 399 388 398 
3 391 400 390 
3 392 400 391 
3 393 397 392 
3 392 397 394 
3 393 399 397 
3 397 399 398 
3 382 380 401 
3 401 380 402 
3 382 401 403 
3 403 401 404 
3 405 404 406 
3 401 407 406 
3 404 401 406 
3 387 405 380 
3 380 405 402 
3 387 403 405 
3 405 403 404 
3 389 399 393 
3 388 399 389 
3 392 394 400 
3 400 394 396 
3 390 400 396 
3 407 405 406 
3 396 381 408 
3 408 381 383 
3 385 408 383 
3 398 408 386 
3 386 408 385 
3 381 395 386 
3 396 398 390 
3 390 398 388 
3 382 403 387 
3 401 402 405 
3 401 405 407 
3 382 387 384 
3 378 381 379 
3 379 381 386 
3 396 408 398 
3 409 410 411 
3 411 410 412 
3 413 414 415 
3 416 415 414 
3 416 414 417 
3 417 414 418 
3 419 420 418 
3 420 417 418 
3 421 422 423 
3 423 422 424 
3 421 425 422 
3 422 425 426 
3 413 415 411 
3 415 409 411 
3 419 412 420 
3 410 420 412 
3 423 417 427 
3 427 417 420 
3 423 424 417 
3 417 424 416 
3 424 428 416 
3 416 428 415 
3 421 423 427 
3 425 429 426 
3 425 421 429 
3 429 421 427 
3 430 431 432 
3 411 412 430 
3 413 411 433 
3 433 411 430 
3 431 434 432 
3 433 430 432 
3 434 433 432 
3 419 431 412 
3 412 431 430 
3 426 429 422 
3 422 429 428 
3 424 422 428 
3 434 413 433 
3 419 434 431 
3 429 435 428 
3 428 435 415 
3 429 427 435 
3 435 427 420 
3 415 420 409 
3 409 420 410 
3 413 419 414 
3 414 419 418 
3 413 434 419 
3 415 435 420 
