ply
format ascii 1.0
comment VCGLIB generated
element vertex 441
property float x
property float y
property float z
property float nx
property float ny
property float nz
element face 806
property list uchar int vertex_indices
end_header
-0.000758 0.001169 0.014685 0.7660855 5.05475 0.207404 
-0.001886 0.000255 0.016865 -4.135392 2.061664 0.7118744 
0.0047 0.000681 0.041672 -4.053938 2.125335 0.7296258 
0.006492 0.000954 0.042791 0.6289068 4.928366 -0.1612175 
-0.001061 -0.00119 0.0172 -3.295873 -3.671375 0.4663694 
0.004506 -0.000568 0.041291 -2.889706 -3.587384 0.6391718 
0.00053 -0.001169 0.015409 2.159131 -4.406788 -0.169978 
0.005674 -0.000954 0.040885 2.148338 -4.781005 -0.2772738 
0.00078 0.000467 0.014896 4.584289 0.992065 -0.3136882 
0.007088 -5.6e-05 0.042275 4.40576 0.5338234 -0.7490038 
-0.001578 0.000889 -0.009135 -2.22759 0.9254767 -2.864448 
0.000119 0.001438 -0.009151 0.1745039 2.387655 -2.797444 
-0.000397 0 -0.009145 -0.04653641 -0.002807105 -4.999783 
-0.001591 -0.000889 -0.009134 -1.576239 -1.81882 -2.848828 
8.6e-05 -0.001438 -0.009149 1.243336 -2.061401 -2.763845 
0.001139 0 -0.00916 2.342113 0.5480135 -2.735159 
0.01106 0.001135 0.139501 0.6313246 2.40907 2.462219 
0.009971 0.00029 0.139552 -2.020815 1.247084 2.559217 
0.011091 -3.8e-05 0.1395 0.2356236 0.001691569 4.994444 
0.010417 -0.001008 0.139532 -1.713313 -1.626557 2.572075 
0.011809 -0.000966 0.139466 1.132647 -2.246188 2.47799 
0.0122 0.000359 0.139447 2.562697 0.256326 2.411461 
0.011059 0.000749 0.132657 -0.5452949 1.14653 -2.590459 
0.010337 0.000186 0.132743 -1.354752 0.08517906 -2.580135 
0.008584 0.000605 0.133675 -3.682415 0.7121117 -1.994922 
0.010848 0.002364 0.133422 -0.5930521 3.615349 -2.104258 
0.010631 -0.000678 0.132709 -0.6637591 -1.078197 -2.615437 
0.009503 -0.002099 0.133573 -1.906378 -3.029364 -2.053799 
0.011553 -0.00065 0.132599 0.7780596 -0.7906336 -2.65233 
0.012391 -0.002011 0.133253 2.204299 -2.644382 -2.198139 
0.011813 0.000232 0.132568 0.8354669 0.7237517 -2.636245 
0.013211 0.000747 0.133156 3.148559 1.469268 -2.229413 
-0.002351 0.001397 0.002303 -2.397355 0.3747593 0.130247 
-0.00237 -0.001397 0.002305 -1.25389 -2.231346 0.1375151 
0.000264 -0.00226 0.00228 1.702609 -1.751731 0.1385055 
0.001918 -0 0.002263 2.194077 1.157251 0.1736909 
0.000316 0.00226 0.002278 -0.2942831 2.537255 0.1671146 
0.010469 0.000982 0.081842 0.4072595 4.739773 -0.08763595 
0.011535 0.000364 0.080989 4.358704 0.3607118 -0.2553324 
0.010978 -0.000632 0.080216 2.615371 -4.79426 -0.1117482 
0.010367 -0.000998 0.081464 -2.643622 -3.579656 0.2519963 
0.009762 0.00014 0.082119 -4.478861 2.018056 0.2456477 
0.0109 0.000812 0.124971 0.5487592 4.796004 0.05097894 
0.011484 -0 0.124868 4.563985 0.5253701 -0.1073086 
0.010748 -0.000812 0.123208 2.643501 -4.525523 -0.07488183 
0.009803 -0.000502 0.12338 -3.125242 -3.477355 0.08361407 
0.009956 0.000502 0.125139 -4.539668 2.041503 0.1649606 
0.011059 0.000749 0.132657 0.9280998 2.317708 -0.02428139 
0.011813 0.000232 0.132568 2.446441 -0.2477242 -0.1224205 
0.011553 -0.00065 0.132599 0.5941187 -2.462285 -0.02425489 
0.010631 -0.000678 0.132709 -2.108951 -1.320681 0.1347461 
0.010337 0.000186 0.132743 -1.914947 1.603364 0.1370402 
-0.002351 0.001397 0.002303 -1.189506 1.454529 1.980797 
0.000316 0.00226 0.002278 1.081403 1.645132 1.849234 
0.00084 0.004444 2.8e-05 1.479979 3.946542 1.132378 
-0.004405 0.002747 7.9e-05 -3.246517 2.569438 1.16471 
-0.00237 -0.001397 0.002305 -1.696324 -0.7108431 2.013214 
-0.004442 -0.002747 8.2e-05 -3.406234 -2.337069 1.119905 
0.000264 -0.00226 0.00228 0.1899285 -1.914871 1.901142 
0.000737 -0.004444 3.3e-05 1.249661 -4.063665 1.045797 
0.001918 -0 0.002263 1.9557 -0.48297 1.790254 
0.00399 0 0 4.31351 -0.1377299 1.061691 
0.020169 -0.006553 0.146711 -2.217584 -1.131005 0.4290162 
0.020487 -0.006683 0.145412 -1.095548 -2.491415 -0.9463773 
0.026734 -0.007437 0.148329 -1.406754 -3.1693 3.987631 
0.026666 -0.007563 0.147115 -0.2136714 -1.949423 -3.44735 
0.025299 -0.004169 0.148708 -0.09170766 0.8860463 3.348559 
0.029478 -0.002122 0.147894 1.464982 0.6686594 1.365187 
0.019523 -0.002675 0.145644 -2.11392 0.7832116 5.070856 
0.02516 -0.0003 0.146908 -0.4527606 3.054315 2.312436 
0.025351 -0.000423 0.145684 2.19953 3.040471 -2.683005 
0.028808 -0.00232 0.146532 1.604139 -0.6750437 -2.105758 
0.025507 -0.00441 0.147261 1.38697 -1.319262 -3.524139 
0.020415 -0.003389 0.143917 1.256946 -1.751858 -5.093724 
0.011145 -0.000812 0.138098 0.3176209 -0.4093818 -2.41089 
0.011153 -0.000684 0.139038 -3.362377 1.24633 2.008675 
0.016517 0.001386 0.139679 0.08752418 1.885594 -0.8846519 
0.017878 0.000393 0.142316 -1.086952 3.965702 2.123552 
0.014453 -0.004844 0.140751 -0.2596444 -2.061225 -1.523116 
0.013604 -0.005386 0.141836 -0.4746431 -1.195469 -0.006397128 
0.016251 -0.002175 0.141194 2.483548 -2.302631 -4.933547 
0.015418 -0.00164 0.142784 -3.124053 1.136845 4.257424 
0.01644 -0.004674 0.142627 0.01444069 -1.911928 -0.3466159 
0.029948 -0.010216 0.146997 -0.4302286 -1.382472 0.01278865 
0.02943 -0.005886 0.146837 -0.8092169 -0.2783746 -4.909087 
0.035686 -0.008162 0.145427 0.3580628 -0.08423096 -0.2032785 
0.02975 -0.005741 0.148247 1.341336 0.1832841 4.506603 
0.032067 -0.003375 0.146083 0.1855531 1.552736 -0.4867558 
0.019888 -0.006843 0.145235 0.3926744 -1.186661 0.2795846 
0.027051 0.000553 0.137108 0.4050938 -2.255913 1.390591 
0.026762 0.000736 0.136266 -1.010689 -3.09387 -1.012938 
0.031633 0.002327 0.134024 0.3102667 -2.74745 -1.250892 
0.022669 0.002972 0.137634 0.09918979 -0.2395492 4.721213 
0.029762 0.004771 0.137066 2.144961 0.8075872 4.843296 
0.024193 0.005627 0.136976 -0.4292085 2.839613 3.302053 
0.02845 0.008171 0.135235 0.4111271 1.30766 -0.3045729 
0.023883 0.005786 0.136109 -0.8596522 1.477455 -2.448727 
0.022437 0.002914 0.136677 -0.8084676 -0.4227461 -5.780543 
0.028943 0.004729 0.135605 -1.945522 0.1831213 -4.100708 
0.017989 0.005247 0.13606 -0.02576923 0.4018756 -2.106863 
0.010501 -1.1e-05 0.138733 -2.527174 -0.1516586 -1.024403 
0.018449 0.005496 0.137177 0.8695713 1.604344 1.644032 
0.011163 0.000125 0.1397 -0.3368142 0.1693389 2.501902 
0.017199 -0.002447 0.138486 0.984018 -3.116559 1.903528 
0.016587 -0.002544 0.136623 -0.2873113 -1.821829 -1.899196 
0.01947 -0.000759 0.137316 1.202886 -2.453029 2.115986 
0.025821 0.000297 0.136348 1.064754 -0.3353699 -0.5307528 
0.017593 0.001755 0.138851 0.6875585 0.1581544 4.468944 
0.019176 -0.000492 0.136209 0.8613335 -1.88369 -3.601552 
0.017213 0.001669 0.137108 0.8236634 0.3698587 -5.183472 
0.014015 0.000784 0.137186 -1.028634 0.05640647 -4.694979 
0.014418 0.000918 0.138765 0.7850274 0.4014231 4.618895 
0.033586 0.005696 0.133301 4.462122 1.023692 2.680774 
0.034868 0.002187 0.130557 0.3296461 -0.03110331 -0.6404935 
0.030121 0.008752 0.134649 -1.13764 1.556002 0.236676 
0.032641 0.007554 0.130937 -0.2755042 1.535367 -0.5670033 
0.031699 0.00517 0.131988 -4.556001 -1.003052 -3.421015 
0.035707 0.006321 0.125015 0.04022944 0.3571334 -0.5085145 
0.034254 0.002684 0.129945 -0.0326577 -1.182056 0.3612822 
0.020034 0.005432 0.136775 -1.023285 2.137665 0.2192315 
0.021906 0.007373 0.139652 0.6106917 -2.27652 0.2853905 
0.021215 0.007657 0.138333 1.298188 -2.208264 -1.429521 
0.024633 0.013472 0.137665 4.626598 -1.72092 2.970486 
0.024418 0.012888 0.136708 0.2456658 -1.533687 -3.277521 
0.021998 0.013457 0.139701 0.9632821 1.059896 3.281665 
0.020827 0.017338 0.138485 0.636646 2.245693 0.7367638 
0.017928 0.00825 0.14101 1.550444 -0.2037247 5.182885 
0.018007 0.014548 0.140138 -1.712193 1.621341 3.335921 
0.017485 0.014449 0.139082 -2.975324 2.577762 -1.719113 
0.020367 0.016693 0.137934 -0.5771615 0.9857404 -2.924037 
0.021363 0.013431 0.137867 -0.2512023 0.2953887 -4.544264 
0.017764 0.008473 0.138338 -0.9379748 -0.8734577 -5.884787 
0.010618 0.000344 0.138511 -1.153147 -0.6680288 -3.391812 
0.010395 -0.000153 0.13953 -0.4537301 -2.326063 2.810213 
0.01032 0.006213 0.138255 -1.930752 0.4828216 -0.4704346 
0.013282 0.007391 0.139344 -2.2835 1.217806 3.97557 
0.01589 0.001813 0.137319 1.020937 -1.781014 -1.367155 
0.016007 0.001804 0.138131 1.501719 -1.666548 0.7300118 
0.014313 0.004711 0.137928 0.06002784 -0.04520224 -5.936695 
0.014507 0.004507 0.140183 0.2405036 -1.169449 5.014501 
0.017259 0.004059 0.138307 1.88768 -1.536918 -0.4628248 
0.027085 0.014892 0.134515 1.157848 -0.8848162 -0.1683273 
0.023767 0.016253 0.136549 -2.087822 -1.608356 -4.025823 
0.02643 0.020719 0.131225 -0.04678401 0.18371 -0.3770611 
0.024492 0.016968 0.137689 2.229624 1.798847 3.180728 
0.02215 0.018921 0.135627 -1.467063 0.7643667 0.01456046 
0.020949 0.006886 0.1383 1.400012 -0.2323996 -0.4678022 
0.00479 -0.013414 0.143998 -2.730153 1.316381 1.437258 
0.004763 -0.013556 0.143022 -2.253473 1.304942 -1.49959 
0.0045 -0.019098 0.144285 -2.048393 -0.3763725 -1.153785 
0.008559 -0.010184 0.143911 -1.378343 2.786725 4.160442 
0.007034 -0.016742 0.146731 -1.356903 0.4967688 5.250238 
0.01066 -0.012654 0.145058 2.099994 0.4209615 2.50858 
0.010112 -0.017619 0.146405 1.070294 -1.314228 -0.09188758 
0.010467 -0.012871 0.144082 2.60021 -2.314398 -2.589764 
0.00895 -0.011028 0.142127 0.9289984 -3.016341 -4.80188 
0.007489 -0.016853 0.145416 2.125426 -1.110904 -3.912633 
0.013165 -0.008556 0.14096 0.9609414 -0.9476652 -1.594063 
0.011375 -2.8e-05 0.138377 1.237588 1.331414 -2.394886 
0.012884 -0.008179 0.142097 0.8426507 -0.2198893 2.2875 
0.011264 0.000195 0.138902 0.04071894 1.544405 1.55973 
0.006493 -0.004103 0.139651 -3.486812 1.45646 0.6405053 
0.006976 -0.00462 0.137995 -0.9607049 -0.06180446 -2.43022 
0.006924 -0.006966 0.140405 -3.093974 1.419529 1.451305 
0.004723 -0.011297 0.142759 -1.437585 -0.860454 -0.003288805 
0.009822 -0.005481 0.141746 -0.7939487 2.326823 3.778126 
0.007393 -0.007653 0.139103 -1.886429 -1.454089 -3.248754 
0.010404 -0.00653 0.139523 0.5927404 -3.110933 -3.85107 
0.010811 -0.003188 0.138946 1.473526 -1.116107 -4.635988 
0.010606 -0.00286 0.139904 -0.6533322 1.962256 4.226406 
0.00681 -0.021783 0.145258 -1.917212 -2.412944 4.847778 
0.003601 -0.023272 0.143002 0.1031868 -0.709365 -0.3030729 
0.010778 -0.019611 0.146593 1.332998 0.640884 0.2904572 
0.009919 -0.023536 0.144167 0.7380631 -0.30021 0.009381711 
0.007161 -0.021277 0.143968 1.529785 1.96788 -5.343383 
0.007297 -0.027711 0.140821 0.05129229 -0.3159363 -0.208862 
0.004455 -0.023543 0.142388 -0.9581463 0.6069115 -0.08007427 
0.012909 -0.009678 0.142539 2.584446 -0.2632388 0.07953222 
0.003825 0.009887 0.143207 2.553277 0.481347 0.9535699 
0.003905 0.009908 0.142086 2.13156 1.483003 -0.8237173 
-0.001743 0.013648 0.14329 1.851383 3.476065 3.787663 
-0.001414 0.013501 0.142107 1.9381 1.378669 -3.705271 
-0.001982 0.010192 0.144746 -1.201186 0.1051922 3.193502 
-0.005595 0.00959 0.142482 -2.352639 0.4694849 0.7325878 
0.003222 0.005866 0.143462 0.9694852 -0.3357849 5.049098 
-0.003393 0.006053 0.143411 -1.222662 -2.147016 2.269202 
-0.00313 0.006191 0.141695 -2.777278 -1.613481 -3.115135 
-0.005196 0.009419 0.141901 -0.9784681 0.5613821 -2.805522 
-0.00193 0.01031 0.142032 -0.1129858 0.9543513 -4.338758 
0.003001 0.006251 0.141776 0.8786376 1.47162 -5.463172 
0.011361 -0.000653 0.137412 0.1479449 -0.02166373 -2.347208 
0.010972 -0.000506 0.138818 2.143538 -1.950329 3.310266 
0.005121 0.000115 0.138361 -0.9886966 -2.051302 -1.028175 
0.003778 0.001718 0.14072 -0.8410724 -3.075574 2.518107 
0.009541 0.005302 0.138833 1.506122 1.428573 -1.040496 
0.010101 0.005341 0.140301 1.164819 0.9414617 0.4970244 
0.006533 0.003473 0.139269 -0.5616351 2.480579 -5.307576 
0.006677 0.003087 0.140625 1.820407 -1.481548 5.128417 
0.007272 0.006097 0.140517 0.6072401 1.461667 0.001615286 
-0.003469 0.016495 0.141095 0.8942157 1.262363 -0.04405034 
-0.004486 0.012995 0.141227 1.632926 -0.6085159 -4.649237 
-0.009199 0.017531 0.13802 -0.2003709 0.1803662 -0.2220949 
-0.004996 0.013241 0.142395 -2.178097 1.482372 4.05857 
-0.007651 0.011808 0.140367 -0.8773057 -1.131171 -0.36158 
0.005488 0.009321 0.141982 0.06111354 1.232927 0.0884646 
-0.002043 -0.004606 0.140355 -0.04869765 2.585678 0.5003936 
-0.00171 -0.004815 0.139361 -0.6253112 2.417664 -1.924399 
-0.006896 -0.009185 0.139197 -3.134279 2.534875 2.205402 
-0.006184 -0.00931 0.138325 0.4838418 2.589664 -4.210672 
-0.003827 -0.010207 0.140899 -0.817238 -1.224869 3.303946 
-0.003786 -0.014294 0.139182 -1.040991 -2.016162 1.165165 
0.00157 -0.006161 0.141436 -0.7106049 0.3725972 5.367519 
-0.000144 -0.012117 0.140457 1.330189 -1.989595 3.472246 
0.000364 -0.012225 0.139403 1.892513 -3.023642 -1.815811 
-0.003179 -0.013783 0.138307 -0.1774309 -0.6275629 -2.657457 
-0.003371 -0.010114 0.139138 0.1799315 0.3217165 -4.045439 
0.001547 -0.006269 0.139495 0.3433526 0.9671819 -5.835144 
0.01088 0.000287 0.138028 0.656957 0.4331639 -2.709291 
0.010676 0.000226 0.139422 1.275992 2.052246 3.360197 
0.009181 -0.005885 0.138043 1.833203 -1.186343 -0.4829349 
0.006292 -0.006478 0.139933 2.147535 -1.793196 3.689166 
0.004821 -0.000334 0.138017 -0.8766726 2.010073 -1.470742 
0.004674 -0.00014 0.138684 -0.9541559 1.669734 0.3625154 
0.005645 -0.003421 0.138393 -0.8864185 0.1640886 -5.847619 
0.005701 -0.003298 0.140401 0.2293329 1.308092 5.155262 
0.003168 -0.002347 0.138944 -1.584344 1.829264 -0.6657439 
-0.009454 -0.010129 0.135949 -0.8576137 1.639205 -0.5881709 
-0.005937 -0.011936 0.136687 2.440979 1.671424 -3.876302 
-0.010565 -0.015691 0.132505 -0.1770305 -0.3762974 -0.4608764 
-0.007063 -0.012753 0.138521 -2.489417 -1.801316 3.35592 
-0.005689 -0.015111 0.136437 1.710084 -1.672913 -0.02624109 
-0.001539 -0.003887 0.139174 -1.182623 0.3974586 -0.3359081 
0.017876 -0.014185 0.13654 -1.284756 -1.783841 2.843286 
0.017054 -0.014084 0.135709 -2.62169 -0.4331861 0.4198452 
0.020503 -0.018137 0.13337 -1.26732 -1.126902 -0.6367927 
0.018562 -0.009538 0.137996 -0.1564846 -0.6771291 5.303257 
0.022335 -0.015309 0.135996 1.777706 -2.406042 4.793968 
0.021858 -0.009836 0.136991 2.843027 0.9132125 2.867748 
0.025057 -0.013201 0.134437 1.363583 -0.2426103 -0.5796325 
0.021768 -0.00938 0.13526 1.054205 1.202382 -2.736006 
0.018285 -0.009181 0.136048 -0.9636768 0.8332421 -5.693295 
0.022109 -0.014774 0.135141 -0.5205815 1.659153 -4.294085 
0.019038 -0.004226 0.136058 0.04353526 0.2575884 -1.986349 
0.012196 0.000365 0.139445 -0.9960459 2.171527 -1.002005 
0.019163 -0.004489 0.137014 2.114273 -0.3669155 1.421677 
0.012272 0.00029 0.139995 -0.08984907 0.7106284 1.964056 
0.012147 -0.005665 0.138288 -3.226354 -2.264341 2.695299 
0.011287 -0.005468 0.136951 -1.506952 -0.1161423 -1.083575 
0.013976 -0.007606 0.137404 -1.584651 -2.109962 2.763624 
0.016286 -0.01307 0.136013 -0.2594991 -1.10983 -0.1930549 
0.015649 -0.004953 0.138307 0.6658665 -0.9983163 4.551885 
0.013831 -0.007334 0.135917 -1.759081 -0.9153391 -2.532777 
0.015497 -0.004695 0.137213 0.1267194 0.05475527 -4.986757 
0.013779 -0.002132 0.138228 -0.670756 1.641728 -4.591971 
0.01407 -0.002469 0.13954 0.8355227 -1.073443 4.54344 
0.024197 -0.018357 0.132257 2.536277 -4.280402 2.630048 
0.021629 -0.020516 0.130205 0.3911955 -0.1660811 -0.7666583 
0.026448 -0.01434 0.133897 0.4851266 1.126073 0.3890353 
0.026207 -0.016808 0.129863 0.4168463 0.3014386 -0.2386463 
0.023731 -0.017671 0.131804 -2.838437 3.978683 -3.291867 
0.02515 -0.020105 0.124524 0.03418577 0.01166415 -0.2406562 
0.021964 -0.020016 0.129262 -0.9405821 -0.2335585 0.5178687 
0.020436 -0.005585 0.136485 1.509071 2.08601 0.1482448 
0.002401 0.004792 0.146743 1.984099 1.625562 0.06395149 
0.001904 0.00463 0.145343 0.5716877 2.330585 -1.428198 
-0.004155 0.004762 0.14893 1.035803 3.870195 3.433854 
-0.004233 0.004732 0.147131 -0.1973127 1.658249 -3.878509 
-0.002138 0.001598 0.149359 0.5682087 -0.7747171 3.359866 
-0.005868 -0.001246 0.148888 -1.236736 -0.6582997 1.348634 
0.003738 0.000884 0.146082 2.548418 0.2377423 4.80649 
-0.001315 -0.002662 0.148155 0.7488738 -2.003564 1.593764 
-0.001494 -0.001955 0.146914 -2.070467 -3.337239 -3.178126 
-0.005716 -0.001178 0.147295 -1.338908 -0.237763 -1.872851 
-0.002709 0.00161 0.147411 -1.510359 0.5196913 -3.681934 
0.003113 0.000968 0.144954 -1.541759 0.6530061 -5.389062 
0.012036 -0.000214 0.137563 -0.7345187 -0.09241671 -2.12643 
0.011959 -0.000227 0.138974 3.717983 -0.2639216 2.055274 
0.007065 -0.002978 0.140285 -0.1127049 -2.072096 -1.036273 
0.005964 -0.0025 0.143249 1.425623 -2.92773 1.630697 
0.007914 0.003436 0.140478 -0.07560074 1.960894 -1.597239 
0.008583 0.004033 0.141355 0.4016124 1.379223 -0.1168588 
0.00693 0.00045 0.141653 -3.561337 1.036754 -4.603101 
0.007523 0.000359 0.142649 3.643191 0.3260458 4.366706 
0.006114 0.003388 0.142498 -0.5874659 1.219871 -0.2417607 
-0.007957 0.006376 0.147289 -0.07533414 1.868279 -0.2894177 
-0.006595 0.002327 0.147042 0.3427966 -0.1307091 -4.961212 
-0.013151 0.003196 0.146361 -0.6459869 -0.02308416 -0.325831 
-0.006954 0.002216 0.149545 -1.035156 -0.01761431 4.298014 
-0.008735 -0.000578 0.147218 -0.01792645 -2.159494 -0.5007467 
0.002691 0.004366 0.145014 -0.8417522 0.6066985 0.2798313 
0.016782 0.008912 0.145973 2.079948 -1.32291 2.677091 
0.017454 0.008638 0.14495 1.731632 -1.707277 -0.248472 
0.018109 0.01441 0.145052 2.018282 0.02917936 -0.8832104 
0.012932 0.006308 0.145363 0.4069147 -3.313118 4.546602 
0.014792 0.012735 0.148077 0.7042352 0.2191096 5.186771 
0.010768 0.008786 0.146623 -2.343374 -0.2666726 2.498141 
0.011314 0.014383 0.146661 -0.9665955 1.314907 -0.2506973 
0.011009 0.0092 0.144998 -1.575436 1.488495 -2.94796 
0.012901 0.006551 0.144635 -0.06814888 2.280001 -5.049162 
0.014302 0.012714 0.145878 -1.109548 0.6123763 -4.649373 
0.009005 0.005338 0.142191 -0.1284298 2.125303 -1.475539 
0.01032 -0.000597 0.136851 -0.1281938 0.5371346 -3.043821 
0.008719 0.005222 0.143481 -1.553033 0.2406132 1.63056 
0.01007 -0.001781 0.137957 -0.8597991 -1.980982 0.4060029 
0.01497 0.000912 0.141277 3.272685 -2.038908 -0.4825698 
0.014408 0.001675 0.140517 2.1736 0.8118718 -2.850393 
0.015023 0.002919 0.142758 1.947516 -1.737541 2.082438 
0.016881 0.008062 0.145148 0.6373509 1.101815 0.3151254 
0.011661 0.002505 0.142531 -0.2938445 -2.602437 4.101862 
0.014775 0.003951 0.141349 3.090913 1.569762 -3.347026 
0.011716 0.003705 0.14114 0.4504067 4.438807 -3.172968 
0.011311 0.001771 0.139356 0.9152877 2.92853 -3.802275 
0.010871 0.000267 0.140883 -0.7214993 -3.103312 3.543634 
0.015841 0.017593 0.145496 1.341645 3.125186 4.402253 
0.019148 0.018009 0.1434 -0.0832234 0.6971118 -0.5114105 
0.012101 0.015746 0.14624 -1.544604 -0.2323225 0.09793372 
0.012957 0.0192 0.143313 -0.548284 0.1711401 -0.1572472 
0.015601 0.017001 0.14459 -1.097817 -2.604207 -5.124528 
0.01657 0.022435 0.139813 -0.02837828 0.1659068 -0.2495475 
0.019131 0.01826 0.142342 0.7081737 -0.737652 0.2334436 
0.008574 0.006313 0.143673 -1.831167 0.05668092 -0.4501466 
0.011461 -0.010318 0.14756 -2.275984 -0.1323563 1.204662 
0.011804 -0.010447 0.146567 -2.995106 0.2656592 -1.859285 
0.013871 -0.015641 0.146347 -2.361119 -1.072544 -1.280054 
0.013594 -0.00583 0.1468 -1.265871 2.3756 3.624409 
0.015877 -0.012386 0.148635 0.2544632 -0.3549556 5.443573 
0.016739 -0.007222 0.146887 2.614531 1.79888 2.733597 
0.019258 -0.012469 0.14727 1.25058 -0.6218444 -0.1127486 
0.016965 -0.007553 0.145563 1.804585 -0.3375441 -2.671641 
0.013872 -0.006408 0.145369 0.527272 -2.209136 -5.105758 
0.016012 -0.012225 0.147022 0.4988579 0.1072285 -4.530962 
0.016028 -0.003184 0.142755 1.053191 -1.597502 -1.046256 
0.011499 0.000631 0.138019 0.1364551 0.2780874 -2.875554 
0.01589 -0.002946 0.143237 1.794401 1.141324 1.654875 
0.011321 0.001238 0.13877 -0.1267825 2.391898 0.3631901 
0.008506 -0.002777 0.142552 -3.408919 0.05603451 0.1696616 
0.009305 -0.003416 0.141325 -1.373229 -2.070338 -2.078342 
0.010054 -0.00451 0.143792 -2.190437 0.3146983 1.692795 
0.011533 -0.009249 0.146175 -0.3178557 -1.40887 -0.08420366 
0.012499 -0.002222 0.143477 -0.6906586 2.732551 3.550999 
0.010801 -0.004826 0.142815 -1.380455 -3.898433 -2.845332 
0.012863 -0.003176 0.142202 1.641867 -4.228882 -2.850119 
0.012163 -0.001748 0.140078 0.9234444 -3.411203 -3.424186 
0.011903 -0.000442 0.141358 -0.3689609 3.502719 3.111285 
0.017424 -0.01727 0.146629 0.7920995 -3.080337 4.457873 
0.014579 -0.019555 0.144669 0.1375468 -0.6041519 -0.4842299 
0.01987 -0.013471 0.14693 1.320818 1.307896 0.02349562 
0.020229 -0.017135 0.144132 1.081242 0.1856538 -0.3415762 
0.017037 -0.016281 0.144948 -1.058056 2.674355 -5.116482 
0.019046 -0.022272 0.140509 0.1468359 -0.2655527 -0.3858373 
0.015231 -0.019469 0.143763 -1.223114 0.04628655 0.2135549 
0.016509 -0.00424 0.144332 2.085676 1.28194 -0.5635464 
0.004021 -0.004669 0.130692 -3.222749 0.0385184 0.9674989 
0.004399 -0.004035 0.130901 -1.070853 2.450591 0.1126902 
0.00398 -0.006841 0.126884 -0.7509133 1.430667 -1.378819 
0.006998 -0.005777 0.135164 -3.573089 -1.421407 3.83475 
0.005949 -0.00841 0.131112 -4.266873 -3.247819 2.386511 
0.009014 -0.008298 0.134421 -0.2309192 -2.779372 2.284622 
0.009028 -0.011117 0.132282 0.7381009 -1.281756 -0.2541873 
0.009521 -0.007935 0.133749 3.578809 -0.7551627 -1.53936 
0.008451 -0.004976 0.133253 3.854085 1.894618 -3.911268 
0.007037 -0.00782 0.130235 4.039929 1.407176 -2.43714 
0.011843 -0.005995 0.136212 2.249211 0.04934138 -1.437771 
0.01125 0.000144 0.139237 2.567931 2.287793 0.9612626 
0.011558 -0.006626 0.13654 -0.2868742 -2.151923 1.020727 
0.010298 -0.000574 0.139823 -0.8302256 -0.3444823 2.58091 
0.005856 0.000265 0.13605 -2.967064 1.57992 0.6432137 
0.007063 0.000521 0.135279 0.5009223 2.712521 -1.599473 
0.006314 -0.001593 0.134857 -3.418634 -0.07517286 1.005193 
0.004401 -0.003772 0.131265 -1.060972 0.2732947 -1.003006 
0.00872 -0.003423 0.1368 -2.900934 -1.391455 3.490993 
0.007281 -0.001197 0.133765 -0.0925917 2.651507 -3.531183 
0.009993 -0.002762 0.135406 2.976373 0.9215183 -4.433664 
0.010621 -0.001346 0.136827 3.373711 2.165287 -2.796438 
0.009442 -0.002119 0.13804 -3.00388 -2.108829 3.312893 
0.00577 -0.00977 0.127105 -4.051031 -4.071921 -0.001116872 
0.003355 -0.006514 0.122097 0.3943014 -0.365992 -0.5930794 
0.009153 -0.011739 0.131109 0.7674066 0.008405209 0.7069085 
0.009213 -0.011408 0.126435 0.3572544 -0.2189602 -0.06875256 
0.006348 -0.00918 0.12708 4.064169 4.07405 -0.6588984 
0.007864 -0.009529 0.119569 0.1124493 -0.01486373 -0.1861503 
0.004691 -0.007178 0.122893 -0.6591213 0.6958387 0.4027758 
0.011674 -0.007229 0.135982 1.884526 -1.134135 0.8753159 
0.01826 0.004859 0.131852 3.375782 0.383861 0.7305162 
0.017982 0.003585 0.131696 1.181497 -2.000639 0.9522203 
0.017414 0.005445 0.126474 1.400016 -2.306373 -0.9255074 
0.0158 0.006512 0.134834 2.863864 2.576483 3.361106 
0.017037 0.008139 0.129307 3.900663 3.685889 0.5276234 
0.014079 0.008159 0.132961 -0.4897957 3.892839 1.005564 
0.013706 0.009728 0.127096 -0.8302562 0.7181655 -0.6883924 
0.013488 0.007498 0.132481 -3.70214 -0.112073 -1.269752 
0.014342 0.005116 0.133345 -3.907669 -3.634696 -2.320045 
0.015287 0.006735 0.128718 -3.722969 -2.972332 -0.9895222 
0.011397 0.00604 0.135548 -0.9713884 -0.1752907 -2.169395 
0.010671 0.00111 0.138577 -2.414298 -1.69506 0.460717 
0.011623 0.006579 0.135696 -0.6481181 2.152048 0.4175666 
0.011064 0.001549 0.139412 -0.4372967 -0.07516059 2.260321 
0.015141 0.001565 0.136981 3.4785 -2.019274 2.657146 
0.014962 0.000493 0.136412 0.4730587 -1.952298 -0.4632715 
0.01596 0.002779 0.136 3.338363 -0.2279039 1.977881 
0.018177 0.00417 0.13178 0.9241753 -0.3157678 -0.5305836 
0.01372 0.00441 0.137068 2.341607 2.363586 3.213965 
0.015094 0.001843 0.134749 0.8586005 -1.868585 -2.176412 
0.01329 0.003925 0.136485 -1.645753 -1.108174 -4.328011 
0.011888 0.002275 0.136627 -1.841999 -1.534176 -3.640545 
0.012694 0.003331 0.13858 1.762366 1.785903 3.739952 
0.016445 0.007515 0.123301 3.7388 3.531146 -1.631944 
0.017598 0.004009 0.121387 -0.4670321 -0.2212144 -0.5747766 
0.013272 0.009909 0.126862 -1.154745 0.6883626 0.6454566 
0.012821 0.007789 0.121588 -0.6804851 0.2956069 -0.1421541 
0.015584 0.006635 0.12402 -3.906104 -4.286436 1.048768 
0.013528 0.004561 0.11549 -0.2108526 -0.1320649 -0.2282436 
0.017155 0.003482 0.121076 0.8607416 -0.4736086 0.5054919 
0.011708 0.007244 0.134935 -2.455837 1.144748 0.6059296 
0.013183 -0.005601 0.132508 -0.4813448 -1.620715 1.757752 
0.012165 -0.004932 0.132372 -2.160969 -1.323641 0.6184575 
0.014291 -0.005208 0.126808 1.44506 -4.910284 -0.4561933 
0.012676 -0.004233 0.127148 -4.004315 0.9213704 -0.1592034 
0.015926 -0.002915 0.129207 3.716156 -1.515145 -0.1012817 
0.017748 0.000191 0.12655 2.51308 -0.6783258 -1.606344 
0.015046 -0.00255 0.133972 4.32615 -3.277153 1.608684 
0.017666 0.000426 0.130779 4.06309 -0.4832781 1.282136 
0.017126 0.001555 0.130702 0.6176248 3.848012 -0.3618794 
0.016594 0.000915 0.126705 -1.477884 1.554509 -1.238291 
0.014828 -0.001875 0.128773 -3.342337 1.930738 -1.472729 
0.013925 -0.001827 0.133305 -5.070448 2.940583 -0.1999716 
0.011231 -0.000224 0.139731 -2.363162 2.031706 -0.2860877 
0.011999 -0.000771 0.140236 1.45405 -1.227753 3.521978 
0.014003 0.001872 0.136963 -0.1054873 2.452941 0.7425302 
0.015408 0.000679 0.136104 3.681034 0.1768749 2.058527 
0.009978 -0.003395 0.136583 -2.402756 -0.323404 -0.004424512 
0.010584 -0.004667 0.137093 -0.5783255 -1.177786 0.1999391 
0.012862 -0.001156 0.136365 -4.608188 2.788441 -2.595576 
0.013373 -0.001523 0.136594 3.822765 -3.425838 2.656367 
0.011573 -0.003803 0.135306 -0.3205319 -0.619051 -1.075002 
0.012044 -0.004543 0.122837 -0.733672 -0.9068058 -0.3766805 
0.014803 -0.002006 0.125159 -3.976339 2.733272 0.6727244 
0.012657 -0.000226 0.117101 -0.0956338 0.1469394 -0.1841324 
0.015584 -0.002477 0.124712 3.979034 -2.099025 -1.488077 
0.015921 0.000995 0.123869 0.5843015 1.207007 0.3503004 
0.012369 -0.004756 0.132838 -0.1107733 -0.5367195 -0.7119262 
3 0 1 2 
3 0 2 3 
3 1 4 5 
3 1 5 2 
3 4 6 7 
3 4 7 5 
3 6 8 9 
3 6 9 7 
3 8 0 3 
3 8 3 9 
3 10 11 12 
3 13 10 12 
3 14 13 12 
3 15 14 12 
3 11 15 12 
3 16 17 18 
3 17 19 18 
3 19 20 18 
3 20 21 18 
3 21 16 18 
3 22 23 24 
3 22 24 25 
3 23 26 27 
3 23 27 24 
3 26 28 29 
3 26 29 27 
3 28 30 31 
3 28 31 29 
3 30 22 25 
3 30 25 31 
3 25 24 17 
3 25 17 16 
3 24 27 19 
3 24 19 17 
3 27 29 20 
3 27 20 19 
3 29 31 21 
3 29 21 20 
3 31 25 16 
3 31 16 21 
3 32 33 4 
3 32 4 1 
3 33 34 6 
3 33 6 4 
3 34 35 8 
3 34 8 6 
3 35 36 0 
3 35 0 8 
3 36 32 1 
3 36 1 0 
3 9 3 37 
3 9 37 38 
3 7 9 38 
3 7 38 39 
3 5 7 39 
3 5 39 40 
3 2 5 40 
3 2 40 41 
3 3 2 41 
3 3 41 37 
3 38 37 42 
3 38 42 43 
3 39 38 43 
3 39 43 44 
3 40 39 44 
3 40 44 45 
3 41 40 45 
3 41 45 46 
3 37 41 46 
3 37 46 42 
3 43 42 47 
3 43 47 48 
3 44 43 48 
3 44 48 49 
3 45 44 49 
3 45 49 50 
3 46 45 50 
3 46 50 51 
3 42 46 51 
3 42 51 47 
3 52 53 54 
3 52 54 55 
3 56 52 55 
3 56 55 57 
3 58 56 57 
3 58 57 59 
3 60 58 59 
3 60 59 61 
3 53 60 61 
3 53 61 54 
3 55 54 11 
3 55 11 10 
3 57 55 10 
3 57 10 13 
3 59 57 13 
3 59 13 14 
3 61 59 14 
3 61 14 15 
3 54 61 15 
3 54 15 11 
3 62 63 64 
3 64 63 65 
3 66 67 68 
3 69 68 67 
3 69 67 70 
3 70 67 71 
3 72 73 71 
3 73 70 71 
3 74 75 76 
3 76 75 77 
3 74 78 75 
3 75 78 79 
3 66 68 64 
3 68 62 64 
3 72 65 73 
3 63 73 65 
3 76 70 80 
3 80 70 73 
3 76 77 70 
3 70 77 69 
3 77 81 69 
3 69 81 68 
3 74 76 80 
3 78 82 79 
3 78 74 82 
3 82 74 80 
3 83 84 85 
3 64 65 83 
3 66 64 86 
3 86 64 83 
3 84 87 85 
3 86 83 85 
3 87 86 85 
3 72 84 65 
3 65 84 83 
3 79 82 75 
3 75 82 81 
3 77 75 81 
3 87 66 86 
3 72 87 84 
3 82 88 81 
3 81 88 68 
3 82 80 88 
3 88 80 73 
3 68 73 62 
3 62 73 63 
3 66 72 67 
3 67 72 71 
3 66 87 72 
3 68 88 73 
3 89 90 91 
3 92 93 94 
3 94 93 95 
3 96 94 95 
3 97 96 98 
3 96 95 98 
3 99 100 101 
3 101 100 102 
3 102 100 103 
3 103 100 104 
3 91 93 89 
3 92 89 93 
3 98 91 97 
3 90 97 91 
3 105 106 107 
3 107 106 92 
3 108 106 105 
3 108 109 106 
3 106 109 97 
3 110 99 109 
3 102 111 101 
3 103 111 102 
3 104 108 103 
3 103 108 105 
3 104 110 108 
3 108 110 109 
3 93 91 112 
3 112 91 113 
3 93 112 114 
3 114 112 115 
3 116 115 117 
3 112 118 117 
3 115 112 117 
3 98 116 91 
3 91 116 113 
3 98 114 116 
3 116 114 115 
3 100 110 104 
3 99 110 100 
3 103 105 111 
3 111 105 107 
3 101 111 107 
3 118 116 117 
3 107 92 119 
3 119 92 94 
3 96 119 94 
3 109 119 97 
3 97 119 96 
3 92 106 97 
3 107 109 101 
3 101 109 99 
3 93 114 98 
3 112 113 116 
3 112 116 118 
3 93 98 95 
3 89 92 90 
3 90 92 97 
3 107 119 109 
3 120 121 122 
3 122 121 123 
3 124 125 126 
3 127 126 125 
3 127 125 128 
3 128 125 129 
3 130 131 129 
3 131 128 129 
3 132 133 134 
3 134 133 135 
3 132 136 133 
3 133 136 137 
3 124 126 122 
3 126 120 122 
3 130 123 131 
3 121 131 123 
3 134 128 138 
3 138 128 131 
3 134 135 128 
3 128 135 127 
3 135 139 127 
3 127 139 126 
3 132 134 138 
3 136 140 137 
3 136 132 140 
3 140 132 138 
3 141 142 143 
3 122 123 141 
3 124 122 144 
3 144 122 141 
3 142 145 143 
3 144 141 143 
3 145 144 143 
3 130 142 123 
3 123 142 141 
3 137 140 133 
3 133 140 139 
3 135 133 139 
3 145 124 144 
3 130 145 142 
3 140 146 139 
3 139 146 126 
3 140 138 146 
3 146 138 131 
3 126 131 120 
3 120 131 121 
3 124 130 125 
3 125 130 129 
3 124 145 130 
3 126 146 131 
3 147 148 149 
3 150 151 152 
3 152 151 153 
3 154 152 153 
3 155 154 156 
3 154 153 156 
3 157 158 159 
3 159 158 160 
3 160 158 161 
3 161 158 162 
3 149 151 147 
3 150 147 151 
3 156 149 155 
3 148 155 149 
3 163 164 165 
3 165 164 150 
3 166 164 163 
3 166 167 164 
3 164 167 155 
3 168 157 167 
3 160 169 159 
3 161 169 160 
3 162 166 161 
3 161 166 163 
3 162 168 166 
3 166 168 167 
3 151 149 170 
3 170 149 171 
3 151 170 172 
3 172 170 173 
3 174 173 175 
3 170 176 175 
3 173 170 175 
3 156 174 149 
3 149 174 171 
3 156 172 174 
3 174 172 173 
3 158 168 162 
3 157 168 158 
3 161 163 169 
3 169 163 165 
3 159 169 165 
3 176 174 175 
3 165 150 177 
3 177 150 152 
3 154 177 152 
3 167 177 155 
3 155 177 154 
3 150 164 155 
3 165 167 159 
3 159 167 157 
3 151 172 156 
3 170 171 174 
3 170 174 176 
3 151 156 153 
3 147 150 148 
3 148 150 155 
3 165 177 167 
3 178 179 180 
3 180 179 181 
3 182 183 184 
3 185 184 183 
3 185 183 186 
3 186 183 187 
3 188 189 187 
3 189 186 187 
3 190 191 192 
3 192 191 193 
3 190 194 191 
3 191 194 195 
3 182 184 180 
3 184 178 180 
3 188 181 189 
3 179 189 181 
3 192 186 196 
3 196 186 189 
3 192 193 186 
3 186 193 185 
3 193 197 185 
3 185 197 184 
3 190 192 196 
3 194 198 195 
3 194 190 198 
3 198 190 196 
3 199 200 201 
3 180 181 199 
3 182 180 202 
3 202 180 199 
3 200 203 201 
3 202 199 201 
3 203 202 201 
3 188 200 181 
3 181 200 199 
3 195 198 191 
3 191 198 197 
3 193 191 197 
3 203 182 202 
3 188 203 200 
3 198 204 197 
3 197 204 184 
3 198 196 204 
3 204 196 189 
3 184 189 178 
3 178 189 179 
3 182 188 183 
3 183 188 187 
3 182 203 188 
3 184 204 189 
3 205 206 207 
3 207 206 208 
3 209 210 211 
3 212 211 210 
3 212 210 213 
3 213 210 214 
3 215 216 214 
3 216 213 214 
3 217 218 219 
3 219 218 220 
3 217 221 218 
3 218 221 222 
3 209 211 207 
3 211 205 207 
3 215 208 216 
3 206 216 208 
3 219 213 223 
3 223 213 216 
3 219 220 213 
3 213 220 212 
3 220 224 212 
3 212 224 211 
3 217 219 223 
3 221 225 222 
3 221 217 225 
3 225 217 223 
3 226 227 228 
3 207 208 226 
3 209 207 229 
3 229 207 226 
3 227 230 228 
3 229 226 228 
3 230 229 228 
3 215 227 208 
3 208 227 226 
3 222 225 218 
3 218 225 224 
3 220 218 224 
3 230 209 229 
3 215 230 227 
3 225 231 224 
3 224 231 211 
3 225 223 231 
3 231 223 216 
3 211 216 205 
3 205 216 206 
3 209 215 210 
3 210 215 214 
3 209 230 215 
3 211 231 216 
3 232 233 234 
3 235 236 237 
3 237 236 238 
3 239 237 238 
3 240 239 241 
3 239 238 241 
3 242 243 244 
3 244 243 245 
3 245 243 246 
3 246 243 247 
3 234 236 232 
3 235 232 236 
3 241 234 240 
3 233 240 234 
3 248 249 250 
3 250 249 235 
3 251 249 248 
3 251 252 249 
3 249 252 240 
3 253 242 252 
3 245 254 244 
3 246 254 245 
3 247 251 246 
3 246 251 248 
3 247 253 251 
3 251 253 252 
3 236 234 255 
3 255 234 256 
3 236 255 257 
3 257 255 258 
3 259 258 260 
3 255 261 260 
3 258 255 260 
3 241 259 234 
3 234 259 256 
3 241 257 259 
3 259 257 258 
3 243 253 247 
3 242 253 243 
3 246 248 254 
3 254 248 250 
3 244 254 250 
3 261 259 260 
3 250 235 262 
3 262 235 237 
3 239 262 237 
3 252 262 240 
3 240 262 239 
3 235 249 240 
3 250 252 244 
3 244 252 242 
3 236 257 241 
3 255 256 259 
3 255 259 261 
3 236 241 238 
3 232 235 233 
3 233 235 240 
3 250 262 252 
3 263 264 265 
3 265 264 266 
3 267 268 269 
3 270 269 268 
3 270 268 271 
3 271 268 272 
3 273 274 272 
3 274 271 272 
3 275 276 277 
3 277 276 278 
3 275 279 276 
3 276 279 280 
3 267 269 265 
3 269 263 265 
3 273 266 274 
3 264 274 266 
3 277 271 281 
3 281 271 274 
3 277 278 271 
3 271 278 270 
3 278 282 270 
3 270 282 269 
3 275 277 281 
3 279 283 280 
3 279 275 283 
3 283 275 281 
3 284 285 286 
3 265 266 284 
3 267 265 287 
3 287 265 284 
3 285 288 286 
3 287 284 286 
3 288 287 286 
3 273 285 266 
3 266 285 284 
3 280 283 276 
3 276 283 282 
3 278 276 282 
3 288 267 287 
3 273 288 285 
3 283 289 282 
3 282 289 269 
3 283 281 289 
3 289 281 274 
3 269 274 263 
3 263 274 264 
3 267 273 268 
3 268 273 272 
3 267 288 273 
3 269 289 274 
3 290 291 292 
3 293 294 295 
3 295 294 296 
3 297 295 296 
3 298 297 299 
3 297 296 299 
3 300 301 302 
3 302 301 303 
3 303 301 304 
3 304 301 305 
3 292 294 290 
3 293 290 294 
3 299 292 298 
3 291 298 292 
3 306 307 308 
3 308 307 293 
3 309 307 306 
3 309 310 307 
3 307 310 298 
3 311 300 310 
3 303 312 302 
3 304 312 303 
3 305 309 304 
3 304 309 306 
3 305 311 309 
3 309 311 310 
3 294 292 313 
3 313 292 314 
3 294 313 315 
3 315 313 316 
3 317 316 318 
3 313 319 318 
3 316 313 318 
3 299 317 292 
3 292 317 314 
3 299 315 317 
3 317 315 316 
3 301 311 305 
3 300 311 301 
3 304 306 312 
3 312 306 308 
3 302 312 308 
3 319 317 318 
3 308 293 320 
3 320 293 295 
3 297 320 295 
3 310 320 298 
3 298 320 297 
3 293 307 298 
3 308 310 302 
3 302 310 300 
3 294 315 299 
3 313 314 317 
3 313 317 319 
3 294 299 296 
3 290 293 291 
3 291 293 298 
3 308 320 310 
3 321 322 323 
3 324 325 326 
3 326 325 327 
3 328 326 327 
3 329 328 330 
3 328 327 330 
3 331 332 333 
3 333 332 334 
3 334 332 335 
3 335 332 336 
3 323 325 321 
3 324 321 325 
3 330 323 329 
3 322 329 323 
3 337 338 339 
3 339 338 324 
3 340 338 337 
3 340 341 338 
3 338 341 329 
3 342 331 341 
3 334 343 333 
3 335 343 334 
3 336 340 335 
3 335 340 337 
3 336 342 340 
3 340 342 341 
3 325 323 344 
3 344 323 345 
3 325 344 346 
3 346 344 347 
3 348 347 349 
3 344 350 349 
3 347 344 349 
3 330 348 323 
3 323 348 345 
3 330 346 348 
3 348 346 347 
3 332 342 336 
3 331 342 332 
3 335 337 343 
3 343 337 339 
3 333 343 339 
3 350 348 349 
3 339 324 351 
3 351 324 326 
3 328 351 326 
3 341 351 329 
3 329 351 328 
3 324 338 329 
3 339 341 333 
3 333 341 331 
3 325 346 330 
3 344 345 348 
3 344 348 350 
3 325 330 327 
3 321 324 322 
3 322 324 329 
3 339 351 341 
3 352 353 354 
3 355 356 357 
3 357 356 358 
3 359 357 358 
3 360 359 361 
3 359 358 361 
3 362 363 364 
3 364 363 365 
3 365 363 366 
3 366 363 367 
3 354 356 352 
3 355 352 356 
3 361 354 360 
3 353 360 354 
3 368 369 370 
3 370 369 355 
3 371 369 368 
3 371 372 369 
3 369 372 360 
3 373 362 372 
3 365 374 364 
3 366 374 365 
3 367 371 366 
3 366 371 368 
3 367 373 371 
3 371 373 372 
3 356 354 375 
3 375 354 376 
3 356 375 377 
3 377 375 378 
3 379 378 380 
3 375 381 380 
3 378 375 380 
3 361 379 354 
3 354 379 376 
3 361 377 379 
3 379 377 378 
3 363 373 367 
3 362 373 363 
3 366 368 374 
3 374 368 370 
3 364 374 370 
3 381 379 380 
3 370 355 382 
3 382 355 357 
3 359 382 357 
3 372 382 360 
3 360 382 359 
3 355 369 360 
3 370 372 364 
3 364 372 362 
3 356 377 361 
3 375 376 379 
3 375 379 381 
3 356 361 358 
3 352 355 353 
3 353 355 360 
3 370 382 372 
3 383 384 385 
3 386 387 388 
3 388 387 389 
3 390 388 389 
3 391 390 392 
3 390 389 392 
3 393 394 395 
3 395 394 396 
3 396 394 397 
3 397 394 398 
3 385 387 383 
3 386 383 387 
3 392 385 391 
3 384 391 385 
3 399 400 401 
3 401 400 386 
3 402 400 399 
3 402 403 400 
3 400 403 391 
3 404 393 403 
3 396 405 395 
3 397 405 396 
3 398 402 397 
3 397 402 399 
3 398 404 402 
3 402 404 403 
3 387 385 406 
3 406 385 407 
3 387 406 408 
3 408 406 409 
3 410 409 411 
3 406 412 411 
3 409 406 411 
3 392 410 385 
3 385 410 407 
3 392 408 410 
3 410 408 409 
3 394 404 398 
3 393 404 394 
3 397 399 405 
3 405 399 401 
3 395 405 401 
3 412 410 411 
3 401 386 413 
3 413 386 388 
3 390 413 388 
3 403 413 391 
3 391 413 390 
3 386 400 391 
3 401 403 395 
3 395 403 393 
3 387 408 392 
3 406 407 410 
3 406 410 412 
3 387 392 389 
3 383 386 384 
3 384 386 391 
3 401 413 403 
3 414 415 416 
3 416 415 417 
3 418 419 420 
3 421 420 419 
3 421 419 422 
3 422 419 423 
3 424 425 423 
3 425 422 423 
3 426 427 428 
3 428 427 429 
3 426 430 427 
3 427 430 431 
3 418 420 416 
3 420 414 416 
3 424 417 425 
3 415 425 417 
3 428 422 432 
3 432 422 425 
3 428 429 422 
3 422 429 421 
3 429 433 421 
3 421 433 420 
3 426 428 432 
3 430 434 431 
3 430 426 434 
3 434 426 432 
3 435 436 437 
3 416 417 435 
3 418 416 438 
3 438 416 435 
3 436 439 437 
3 438 435 437 
3 439 438 437 
3 424 436 417 
3 417 436 435 
3 431 434 427 
3 427 434 433 
3 429 427 433 
3 439 418 438 
3 424 439 436 
3 434 440 433 
3 433 440 420 
3 434 432 440 
3 440 432 425 
3 420 425 414 
3 414 425 415 
3 418 424 419 
3 419 424 423 
3 418 439 424 
3 420 440 425 
