ply
format ascii 1.0
comment VCGLIB generated
comment TextureFile LIGHT_SEA_GREEN.bmp
element vertex 84
property float x
property float y
property float z
property float nx
property float ny
property float nz
property float texture_u
property float texture_v
element face 28
property list uchar int vertex_indices
end_header
-1.082571 -0.342403 3.520466 -0.18583 0.3437141 -0.9205042 0.000977 0.752358
-1.221301 -0.18712 3.606455 -0.18583 0.3437141 -0.9205042 0.247642 0.999023
-1.191524 -0.171123 3.606417 -0.18583 0.3437141 -0.9205042 0.000977 0.999023
-1.082571 -0.342403 3.520466 -0.1858449 0.3437048 -0.9205046 0.249023 0.750977
-1.191524 -0.171123 3.606417 -0.1858449 0.3437048 -0.9205046 0.249023 0.997642
-1.048321 -0.324175 3.520358 -0.1858449 0.3437048 -0.9205046 0.002358 0.750977
-0.885723 -0.237635 3.519844 -0.1858411 0.3437051 -0.9205053 0.497642 0.999023
-0.921613 -0.256737 3.519957 -0.1858411 0.3437051 -0.9205053 0.250977 0.999023
-1.06521 -0.103264 3.606253 -0.1858411 0.3437051 -0.9205053 0.250977 0.752358
-0.885723 -0.237635 3.519844 -0.18584 0.343706 -0.9205051 0.499023 0.997642
-1.06521 -0.103264 3.606253 -0.18584 0.343706 -0.9205051 0.252358 0.750977
-1.026162 -0.082287 3.606202 -0.18584 0.343706 -0.9205051 0.499023 0.750977
-1.043148 -0.321422 3.520341 -0.185848 0.3436999 -0.9205058 0.500977 0.752358
-1.186367 -0.168352 3.60641 -0.185848 0.3436999 -0.9205058 0.747642 0.999023
-1.156659 -0.152393 3.606371 -0.185848 0.3436999 -0.9205058 0.500977 0.999023
-1.043148 -0.321422 3.520341 -0.185833 0.34371 -0.920505 0.749023 0.750977
-1.156659 -0.152393 3.606371 -0.185833 0.34371 -0.920505 0.749023 0.997642
-1.013348 -0.305561 3.520247 -0.185833 0.34371 -0.920505 0.502358 0.750977
-1.008175 -0.302808 3.520231 -0.18584 0.3437069 -0.9205048 0.750977 0.752358
-1.151503 -0.149623 3.606365 -0.18584 0.3437069 -0.9205048 0.997642 0.999023
-1.125361 -0.135579 3.606331 -0.18584 0.3437069 -0.9205048 0.750977 0.999023
-1.008175 -0.302808 3.520231 -0.185842 0.343705 -0.9205051 0.999023 0.750977
-1.125361 -0.135579 3.606331 -0.185842 0.343705 -0.9205051 0.999023 0.997642
-0.981952 -0.288851 3.520148 -0.185842 0.343705 -0.9205051 0.752358 0.750977
-0.97678 -0.286098 3.520132 -0.185842 0.343705 -0.9205051 0.000977 0.502358
-1.120205 -0.132809 3.606324 -0.185842 0.343705 -0.9205051 0.247642 0.749023
-1.095775 -0.119685 3.606292 -0.185842 0.343705 -0.9205051 0.000977 0.749023
-0.97678 -0.286098 3.520132 -0.185841 0.343706 -0.920505 0.249023 0.500977
-1.095775 -0.119685 3.606292 -0.185841 0.343706 -0.920505 0.249023 0.747642
-0.952274 -0.273056 3.520054 -0.185841 0.343706 -0.920505 0.002358 0.500977
-0.926786 -0.25949 3.519974 -0.18584 0.3437069 -0.9205048 0.497642 0.749023
-0.947101 -0.270303 3.520038 -0.18584 0.3437069 -0.9205048 0.250977 0.749023
-1.090619 -0.116915 3.606286 -0.18584 0.3437069 -0.9205048 0.250977 0.502358
-0.926786 -0.25949 3.519974 -0.185842 0.343705 -0.9205051 0.499023 0.747642
-1.090619 -0.116915 3.606286 -0.185842 0.343705 -0.9205051 0.252358 0.500977
-1.070366 -0.106034 3.60626 -0.185842 0.343705 -0.9205051 0.499023 0.500977
-0.885723 -0.237635 3.519844 -0.7622992 -0.6415341 -0.08563802 0.000977 0.002358
-1.026162 -0.082287 3.606202 -0.7622992 -0.6415341 -0.08563802 0.123619 0.125000
-1.029823 -0.075516 3.588068 -0.7622992 -0.6415341 -0.08563802 0.000977 0.247642
-0.885723 -0.237635 3.519844 -0.7622988 -0.6415348 -0.08563698 0.247642 0.249023
-1.029823 -0.075516 3.588068 -0.7622988 -0.6415348 -0.08563698 0.002358 0.249023
-0.889384 -0.230864 3.50171 -0.7622988 -0.6415348 -0.08563698 0.125000 0.126381
-1.496449 0.392825 3.606417 0.185852 -0.343702 -0.9205042 0.500977 0.749023
-1.52614 0.376668 3.606455 0.185852 -0.343702 -0.9205042 0.500977 0.502358
-1.580112 0.57778 3.520466 0.185852 -0.343702 -0.9205042 0.747642 0.749023
-1.496449 0.392825 3.606417 0.1858381 -0.3437091 -0.9205043 0.502358 0.500977
-1.580112 0.57778 3.520466 0.1858381 -0.3437091 -0.9205043 0.749023 0.500977
-1.546105 0.596458 3.520358 0.1858381 -0.3437091 -0.9205043 0.749023 0.747642
-1.370503 0.461363 3.606253 0.1858411 -0.3437051 -0.9205053 0.997642 0.749023
-1.420295 0.665556 3.519957 0.1858411 -0.3437051 -0.9205053 0.750977 0.749023
-1.384659 0.685128 3.519844 0.1858411 -0.3437051 -0.9205053 0.750977 0.502358
-1.370503 0.461363 3.606253 0.185843 -0.343705 -0.9205049 0.999023 0.747642
-1.384659 0.685128 3.519844 0.185843 -0.343705 -0.9205049 0.752358 0.500977
-1.331568 0.482551 3.606202 0.185843 -0.343705 -0.9205049 0.999023 0.500977
-1.461686 0.411743 3.606371 0.1858319 -0.3437089 -0.9205057 0.000977 0.499023
-1.491308 0.395623 3.60641 0.1858319 -0.3437089 -0.9205057 0.000977 0.252358
-1.540969 0.599279 3.520341 0.1858319 -0.3437089 -0.9205057 0.247642 0.499023
-1.461686 0.411743 3.606371 0.185848 -0.343702 -0.920505 0.002358 0.250977
-1.540969 0.599279 3.520341 0.185848 -0.343702 -0.920505 0.249023 0.250977
-1.511379 0.61553 3.520247 0.185848 -0.343702 -0.920505 0.249023 0.497642
-1.430479 0.428725 3.606331 0.185844 -0.3437049 -0.9205047 0.250977 0.499023
-1.456545 0.41454 3.606365 0.185844 -0.3437049 -0.9205047 0.250977 0.252358
-1.506244 0.618351 3.520231 0.185844 -0.3437049 -0.9205047 0.497642 0.499023
-1.430479 0.428725 3.606331 0.18584 -0.3437069 -0.9205048 0.252358 0.250977
-1.506244 0.618351 3.520231 0.18584 -0.3437069 -0.9205048 0.499023 0.250977
-1.480206 0.632651 3.520148 0.18584 -0.3437069 -0.9205048 0.499023 0.497642
-1.400979 0.444778 3.606292 0.1858411 -0.3437051 -0.9205053 0.500977 0.499023
-1.425338 0.431523 3.606324 0.1858411 -0.3437051 -0.9205053 0.500977 0.252358
-1.475071 0.635472 3.520132 0.1858411 -0.3437051 -0.9205053 0.747642 0.499023
-1.400979 0.444778 3.606292 0.18584 -0.343706 -0.9205051 0.502358 0.250977
-1.475071 0.635472 3.520132 0.18584 -0.343706 -0.9205051 0.749023 0.250977
-1.450738 0.648836 3.520054 0.18584 -0.343706 -0.9205051 0.749023 0.497642
-1.395838 0.447576 3.606286 0.1858471 -0.3437041 -0.9205044 0.997642 0.499023
-1.445602 0.651656 3.520038 0.1858471 -0.3437041 -0.9205044 0.750977 0.499023
-1.425431 0.662735 3.519974 0.1858471 -0.3437041 -0.9205044 0.750977 0.252358
-1.395838 0.447576 3.606286 0.185844 -0.3437049 -0.9205047 0.999023 0.497642
-1.425431 0.662735 3.519974 0.185844 -0.3437049 -0.9205047 0.752358 0.250977
-1.375644 0.458565 3.60626 0.185844 -0.3437049 -0.9205047 0.999023 0.250977
-1.327907 0.47578 3.588068 -0.9542195 -0.2865849 -0.08564095 0.249023 0.247642
-1.331568 0.482551 3.606202 -0.9542195 -0.2865849 -0.08564095 0.126381 0.125000
-1.384659 0.685128 3.519844 -0.9542195 -0.2865849 -0.08564095 0.249023 0.002358
-1.327907 0.47578 3.588068 -0.9542207 -0.2865829 -0.08563397 0.002358 0.000977
-1.384659 0.685128 3.519844 -0.9542207 -0.2865829 -0.08563397 0.247642 0.000977
-1.380998 0.678357 3.50171 -0.9542207 -0.2865829 -0.08563397 0.125000 0.123619
3 0 1 2 
3 3 4 5 
3 6 7 8 
3 9 10 11 
3 12 13 14 
3 15 16 17 
3 18 19 20 
3 21 22 23 
3 24 25 26 
3 27 28 29 
3 30 31 32 
3 33 34 35 
3 36 37 38 
3 39 40 41 
3 42 43 44 
3 45 46 47 
3 48 49 50 
3 51 52 53 
3 54 55 56 
3 57 58 59 
3 60 61 62 
3 63 64 65 
3 66 67 68 
3 69 70 71 
3 72 73 74 
3 75 76 77 
3 78 79 80 
3 81 82 83 
