ply
format ascii 1.0
comment VCGLIB generated
comment TextureFile BLACK.bmp
element vertex 588
property float x
property float y
property float z
property float nx
property float ny
property float nz
property float texture_u
property float texture_v
element face 196
property list uchar int vertex_indices
end_header
-0.935752 0.057063 3.863487 -0.179434 -0.105127 0.9781369 0.935142 0.311523
-0.943633 0.054578 3.861774 -0.179434 -0.105127 0.9781369 0.907227 0.311523
-0.980899 0.037589 3.853112 -0.179434 -0.105127 0.9781369 0.907227 0.283608
-0.935752 0.057063 3.863487 -0.179618 -0.104707 0.9781482 0.939858 0.436523
-0.980899 0.037589 3.853112 -0.179618 -0.104707 0.9781482 0.968750 0.407631
-1.011271 0.023273 3.846002 -0.179618 -0.104707 0.9781482 0.997642 0.436523
-0.935752 0.057063 3.863487 -0.179316 -0.105374 0.978132 0.497642 0.250977
-1.011271 0.023273 3.846002 -0.179316 -0.105374 0.978132 0.437500 0.311119
-1.033425 0.009189 3.840424 -0.179316 -0.105374 0.978132 0.377358 0.250977
-0.935752 0.057063 3.863487 -0.179407 -0.105189 0.9781352 0.247642 0.499023
-1.033425 0.009189 3.840424 -0.179407 -0.105189 0.9781352 0.125977 0.499023
-1.061681 -0.011177 3.833051 -0.179407 -0.105189 0.9781352 0.125977 0.377358
-0.935752 0.057063 3.863487 -0.179375 -0.105247 0.9781349 0.247642 0.999023
-1.061681 -0.011177 3.833051 -0.179375 -0.105247 0.9781349 0.000977 0.999023
-1.052146 -0.028749 3.832909 -0.179375 -0.105247 0.9781349 0.000977 0.752358
-0.935752 0.057063 3.863487 -0.1793809 -0.105239 0.9781346 0.249023 0.997642
-1.052146 -0.028749 3.832909 -0.1793809 -0.105239 0.9781346 0.002358 0.750977
-0.926154 0.039375 3.863344 -0.1793809 -0.105239 0.9781346 0.249023 0.750977
-1.302441 0.432746 3.832767 -0.196175 -0.110201 0.9743568 0.124023 0.377358
-1.293212 0.415011 3.832619 -0.196175 -0.110201 0.9743568 0.124023 0.499023
-1.260591 0.426877 3.840529 -0.196175 -0.110201 0.9743568 0.002358 0.499023
-1.302441 0.432746 3.832767 -0.196179 -0.110235 0.9743521 0.249023 0.252358
-1.260591 0.426877 3.840529 -0.196179 -0.110235 0.9743521 0.249023 0.374023
-1.236572 0.437239 3.846538 -0.196179 -0.110235 0.9743521 0.127358 0.374023
-1.302441 0.432746 3.832767 -0.196185 -0.110162 0.9743592 0.499023 0.747642
-1.236572 0.437239 3.846538 -0.196185 -0.110162 0.9743592 0.376381 0.625000
-1.207779 0.454248 3.854258 -0.196185 -0.110162 0.9743592 0.499023 0.502358
-1.302441 0.432746 3.832767 -0.1961719 -0.110217 0.9743556 0.497642 0.500977
-1.207779 0.454248 3.854258 -0.1961719 -0.110217 0.9743556 0.375000 0.623619
-1.172929 0.475441 3.863672 -0.1961719 -0.110217 0.9743556 0.252358 0.500977
-1.302441 0.432746 3.832767 -0.196175 -0.110208 0.974356 0.127358 0.375977
-1.172929 0.475441 3.863672 -0.196175 -0.110208 0.974356 0.249023 0.375977
-1.166476 0.480545 3.865549 -0.196175 -0.110208 0.974356 0.249023 0.497642
-1.302441 0.432746 3.832767 -0.196182 -0.110189 0.9743568 0.250977 0.752358
-1.166476 0.480545 3.865549 -0.196182 -0.110189 0.9743568 0.497642 0.999023
-1.175766 0.498397 3.865697 -0.196182 -0.110189 0.9743568 0.250977 0.999023
-1.079768 0.022153 3.83332 0.4769382 -0.8789082 -0.007093003 0.252358 0.750977
-1.016068 0.056596 3.848707 0.4769382 -0.8789082 -0.007093003 0.499023 0.750977
-1.023151 0.05244 3.887331 0.4769382 -0.8789082 -0.007093003 0.499023 0.997642
-1.020722 0.053753 3.887918 0.4769421 -0.8789061 -0.007095001 0.747642 0.999023
-1.013639 0.057909 3.849294 0.4769421 -0.8789061 -0.007095001 0.500977 0.999023
-0.953776 0.090277 3.863755 0.4769421 -0.8789061 -0.007095001 0.500977 0.752358
-1.020722 0.053753 3.887918 0.4769408 -0.8789068 -0.007097998 0.749023 0.997642
-0.953776 0.090277 3.863755 0.4769408 -0.8789068 -0.007097998 0.502358 0.750977
-0.960998 0.08604 3.903136 0.4769408 -0.8789068 -0.007097998 0.749023 0.750977
-1.023151 0.05244 3.887331 0.475343 -0.8798 0.001063 0.032227 0.232017
-1.020722 0.053753 3.887918 0.475343 -0.8798 0.001063 0.032227 0.227539
-0.960998 0.08604 3.903136 0.475343 -0.8798 0.001063 0.036705 0.227539
-1.023151 0.05244 3.887331 0.4769551 -0.8788983 -0.007189002 0.875977 0.438477
-0.960998 0.08604 3.903136 0.4769551 -0.8788983 -0.007189002 0.935142 0.438477
-1.08699 0.017916 3.872701 0.4769551 -0.8788983 -0.007189002 0.875977 0.497642
-1.079768 0.022153 3.83332 0.4769389 -0.8789079 -0.007094999 0.750977 0.752358
-1.023151 0.05244 3.887331 0.4769389 -0.8789079 -0.007094999 0.997642 0.999023
-1.08699 0.017916 3.872701 0.4769389 -0.8789079 -0.007094999 0.750977 0.999023
-1.020722 0.053753 3.887918 0.4768602 -0.8789504 -0.007112003 0.935142 0.436523
-1.023151 0.05244 3.887331 0.4768602 -0.8789504 -0.007112003 0.875977 0.436523
-1.016068 0.056596 3.848707 0.4768602 -0.8789504 -0.007112003 0.875977 0.377358
-1.020722 0.053753 3.887918 0.476896 -0.878931 -0.007107 0.938477 0.439858
-1.016068 0.056596 3.848707 0.476896 -0.878931 -0.007107 0.997642 0.499023
-1.013639 0.057909 3.849294 0.476896 -0.878931 -0.007107 0.938477 0.499023
-1.073526 0.015547 3.833754 -0.179354 -0.105292 0.9781339 0.153892 0.219727
-1.063349 0.02202 3.836317 -0.179354 -0.105292 0.9781339 0.140625 0.232994
-1.063486 0.023246 3.836423 -0.179354 -0.105292 0.9781339 0.127358 0.219727
-1.075426 0.014151 3.833255 -0.18031 -0.10403 0.9780931 0.016602 0.236733
-1.073526 0.015547 3.833754 -0.18031 -0.10403 0.9780931 0.018150 0.238281
-1.063486 0.023246 3.836423 -0.18031 -0.10403 0.9780931 0.016602 0.239830
-1.075426 0.014151 3.833255 -0.1794381 -0.1051891 0.9781295 0.905273 0.283608
-1.063486 0.023246 3.836423 -0.1794381 -0.1051891 0.9781295 0.905273 0.311523
-1.063016 0.026417 3.836851 -0.1794381 -0.1051891 0.9781295 0.877358 0.311523
-1.075426 0.014151 3.833255 -0.1794401 -0.105186 0.9781294 0.125977 0.221108
-1.063016 0.026417 3.836851 -0.1794401 -0.105186 0.9781294 0.139244 0.234375
-1.061748 0.029341 3.837398 -0.1794401 -0.105186 0.9781294 0.125977 0.247642
-1.075426 0.014151 3.833255 -0.1790101 -0.105583 0.9781654 0.064858 0.249023
-1.061748 0.029341 3.837398 -0.1790101 -0.105583 0.9781654 0.070313 0.243569
-1.059767 0.031819 3.838028 -0.1790101 -0.105583 0.9781654 0.075767 0.249023
-1.047942 0.034568 3.840492 -0.179415 -0.105207 0.9781318 0.125977 0.189858
-1.045431 0.033415 3.840829 -0.179415 -0.105207 0.9781318 0.139244 0.203125
-1.040106 0.036802 3.84217 -0.179415 -0.105207 0.9781318 0.125977 0.216392
-1.051088 0.035105 3.839973 -0.1793361 -0.105475 0.9781174 0.186523 0.221108
-1.047942 0.034568 3.840492 -0.1793361 -0.105475 0.9781174 0.186523 0.233398
-1.040106 0.036802 3.84217 -0.1793361 -0.105475 0.9781174 0.174233 0.233398
-1.054249 0.034802 3.83936 -0.1796499 -0.103624 0.9782577 0.036705 0.225586
-1.051088 0.035105 3.839973 -0.1796499 -0.103624 0.9782577 0.032227 0.225586
-1.040106 0.036802 3.84217 -0.1796499 -0.103624 0.9782577 0.032227 0.221108
-1.054249 0.034802 3.83936 -0.179405 -0.105186 0.9781359 0.936523 0.439858
-1.040106 0.036802 3.84217 -0.179405 -0.105186 0.9781359 0.936523 0.499023
-1.021057 0.048074 3.846876 -0.179405 -0.105186 0.9781359 0.877358 0.499023
-1.05721 0.033681 3.838697 -0.1791051 -0.105923 0.9781113 0.044517 0.233398
-1.054249 0.034802 3.83936 -0.1791051 -0.105923 0.9781113 0.040039 0.233398
-1.021057 0.048074 3.846876 -0.1791051 -0.105923 0.9781113 0.040039 0.228920
-1.05721 0.033681 3.838697 -0.1794099 -0.105171 0.9781366 0.999023 0.435142
-1.021057 0.048074 3.846876 -0.1794099 -0.105171 0.9781366 0.970131 0.406250
-1.020748 0.050151 3.847156 -0.1794099 -0.105171 0.9781366 0.999023 0.377358
-1.05721 0.033681 3.838697 -0.1793861 -0.1052221 0.9781355 0.999023 0.497642
-1.020748 0.050151 3.847156 -0.1793861 -0.1052221 0.9781355 0.970131 0.468750
-1.01948 0.053075 3.847703 -0.1793861 -0.1052221 0.9781355 0.999023 0.439858
-1.05721 0.033681 3.838697 -0.179316 -0.105358 0.9781337 0.997642 0.438477
-1.01948 0.053075 3.847703 -0.179316 -0.105358 0.9781337 0.968750 0.467369
-1.0175 0.055553 3.848333 -0.179316 -0.105358 0.9781337 0.939858 0.438477
-1.05721 0.033681 3.838697 -0.1798441 -0.104402 0.9781392 0.174233 0.235352
-1.0175 0.055553 3.848333 -0.1798441 -0.104402 0.9781392 0.186523 0.235352
-1.016068 0.056596 3.848707 -0.1798441 -0.104402 0.9781392 0.186523 0.247642
-1.05721 0.033681 3.838697 -0.179439 -0.105128 0.9781359 0.061523 0.155273
-1.016068 0.056596 3.848707 -0.179439 -0.105128 0.9781359 0.033608 0.155273
-1.079768 0.022153 3.83332 -0.179439 -0.105128 0.9781359 0.061523 0.127358
-1.059767 0.031819 3.838028 -0.179493 -0.105024 0.9781371 0.140625 0.204506
-1.05721 0.033681 3.838697 -0.179493 -0.105024 0.9781371 0.153892 0.217773
-1.079768 0.022153 3.83332 -0.179493 -0.105024 0.9781371 0.127358 0.217773
-1.075426 0.014151 3.833255 -0.179387 -0.105241 0.9781333 0.375977 0.372642
-1.059767 0.031819 3.838028 -0.179387 -0.105241 0.9781333 0.375977 0.252358
-1.079768 0.022153 3.83332 -0.179387 -0.105241 0.9781333 0.436119 0.312500
-1.005674 0.058302 3.850797 -0.179433 -0.106061 0.9780362 0.038086 0.228920
-1.008821 0.058839 3.850278 -0.179433 -0.106061 0.9780362 0.038086 0.233398
-1.011982 0.058536 3.849665 -0.179433 -0.106061 0.9780362 0.033608 0.233398
-1.005674 0.058302 3.850797 -0.1794091 -0.1046701 0.9781905 0.077148 0.247642
-1.011982 0.058536 3.849665 -0.1794091 -0.1046701 0.9781905 0.071694 0.242188
-1.013639 0.057909 3.849294 -0.1794091 -0.1046701 0.9781905 0.077148 0.236733
-1.005674 0.058302 3.850797 -0.1793601 -0.105407 0.9781203 0.158608 0.219727
-1.013639 0.057909 3.849294 -0.1793601 -0.105407 0.9781203 0.170898 0.219727
-1.016068 0.056596 3.848707 -0.1793601 -0.105407 0.9781203 0.170898 0.232017
-1.005674 0.058302 3.850797 -0.1794389 -0.104963 0.9781536 0.172852 0.232017
-1.016068 0.056596 3.848707 -0.1794389 -0.104963 0.9781536 0.172852 0.219727
-1.0175 0.055553 3.848333 -0.1794389 -0.104963 0.9781536 0.185142 0.219727
-1.005674 0.058302 3.850797 -0.1793489 -0.105331 0.9781306 0.033608 0.157227
-1.0175 0.055553 3.848333 -0.1793489 -0.105331 0.9781306 0.061523 0.157227
-1.01948 0.053075 3.847703 -0.1793489 -0.105331 0.9781306 0.061523 0.185142
-1.005674 0.058302 3.850797 -0.1793919 -0.10522 0.9781346 0.002358 0.125977
-1.01948 0.053075 3.847703 -0.1793919 -0.10522 0.9781346 0.030273 0.125977
-1.020748 0.050151 3.847156 -0.1793919 -0.10522 0.9781346 0.030273 0.153892
-1.005674 0.058302 3.850797 -0.179419 -0.105169 0.9781351 0.032227 0.153892
-1.020748 0.050151 3.847156 -0.179419 -0.105169 0.9781351 0.032227 0.125977
-1.021057 0.048074 3.846876 -0.179419 -0.105169 0.9781351 0.060142 0.125977
-1.005674 0.058302 3.850797 -0.179651 -0.104819 0.9781301 0.052330 0.243164
-1.021057 0.048074 3.846876 -0.179651 -0.104819 0.9781301 0.047852 0.247642
-1.019356 0.04908 3.847296 -0.179651 -0.104819 0.9781301 0.047852 0.243164
-1.005674 0.058302 3.850797 -0.1794139 -0.105173 0.9781356 0.092773 0.125977
-1.019356 0.04908 3.847296 -0.1794139 -0.105173 0.9781356 0.092773 0.153892
-1.00323 0.057181 3.851125 -0.1794139 -0.105173 0.9781356 0.064858 0.125977
-1.005674 0.058302 3.850797 -0.179406 -0.105156 0.978139 0.094727 0.153892
-1.00323 0.057181 3.851125 -0.179406 -0.105156 0.978139 0.094727 0.125977
-0.991782 0.062931 3.853843 -0.179406 -0.105156 0.978139 0.122642 0.125977
-1.008821 0.058839 3.850278 -0.179331 -0.105374 0.9781292 0.153892 0.157227
-1.005674 0.058302 3.850797 -0.179331 -0.105374 0.9781292 0.140625 0.170494
-0.991782 0.062931 3.853843 -0.179331 -0.105374 0.9781292 0.127358 0.157227
-1.011982 0.058536 3.849665 -0.1796539 -0.104098 0.9782066 0.064858 0.219727
-1.008821 0.058839 3.850278 -0.1796539 -0.104098 0.9782066 0.077148 0.219727
-0.991782 0.062931 3.853843 -0.1796539 -0.104098 0.9782066 0.077148 0.232017
-1.011982 0.058536 3.849665 -0.179389 -0.105248 0.9781321 0.936523 0.435142
-0.991782 0.062931 3.853843 -0.179389 -0.105248 0.9781321 0.907631 0.406250
-0.981475 0.068017 3.85628 -0.179389 -0.105248 0.9781321 0.936523 0.377358
-1.011982 0.058536 3.849665 -0.1793821 -0.105267 0.9781314 0.935142 0.375977
-0.981475 0.068017 3.85628 -0.1793821 -0.105267 0.9781314 0.906250 0.404869
-0.981074 0.070723 3.856645 -0.1793821 -0.105267 0.9781314 0.877358 0.375977
-1.013639 0.057909 3.849294 -0.173907 -0.118831 0.9775661 0.021080 0.243164
-1.011982 0.058536 3.849665 -0.173907 -0.118831 0.9775661 0.019531 0.244713
-0.981074 0.070723 3.856645 -0.173907 -0.118831 0.9775661 0.017983 0.243164
-1.013639 0.057909 3.849294 -0.179369 -0.105274 0.978133 0.997642 0.375977
-0.981074 0.070723 3.856645 -0.179369 -0.105274 0.978133 0.968750 0.404869
-0.979805 0.073647 3.857193 -0.179369 -0.105274 0.978133 0.939858 0.375977
-1.013639 0.057909 3.849294 -0.1794891 -0.105019 0.9781384 0.938477 0.377358
-0.979805 0.073647 3.857193 -0.1794891 -0.105019 0.9781384 0.967369 0.406250
-0.977824 0.076125 3.857822 -0.1794891 -0.105019 0.9781384 0.938477 0.435142
-1.013639 0.057909 3.849294 -0.179067 -0.105844 0.9781269 0.125977 0.158608
-0.977824 0.076125 3.857822 -0.179067 -0.105844 0.9781269 0.139244 0.171875
-0.975267 0.077988 3.858492 -0.179067 -0.105844 0.9781269 0.125977 0.185142
-0.963081 0.077535 3.860678 -0.1792201 -0.1054951 0.9781365 0.052330 0.241211
-0.962748 0.07726 3.860709 -0.1792201 -0.1054951 0.9781365 0.047852 0.241211
-0.958049 0.079579 3.86182 -0.1792201 -0.1054951 0.9781365 0.047852 0.236733
-0.965999 0.078874 3.860287 -0.179354 -0.10517 0.978147 0.125977 0.127358
-0.963081 0.077535 3.860678 -0.179354 -0.10517 0.978147 0.139244 0.140625
-0.958049 0.079579 3.86182 -0.179354 -0.10517 0.978147 0.125977 0.153892
-0.969146 0.079411 3.859767 -0.1793739 -0.104989 0.9781628 0.079102 0.232017
-0.965999 0.078874 3.860287 -0.1793739 -0.104989 0.9781628 0.079102 0.219727
-0.958049 0.079579 3.86182 -0.1793739 -0.104989 0.9781628 0.091392 0.219727
-0.969146 0.079411 3.859767 -0.179362 -0.105343 0.9781269 0.063477 0.185142
-0.958049 0.079579 3.86182 -0.179362 -0.105343 0.9781269 0.063477 0.157227
-0.949811 0.082971 3.863696 -0.179362 -0.105343 0.9781269 0.091392 0.157227
-0.972307 0.079108 3.859155 -0.1792681 -0.105813 0.9780934 0.080483 0.233398
-0.969146 0.079411 3.859767 -0.1792681 -0.105813 0.9780934 0.085938 0.227944
-0.949811 0.082971 3.863696 -0.1792681 -0.105813 0.9780934 0.091392 0.233398
-0.972307 0.079108 3.859155 -0.179378 -0.105222 0.978137 0.813477 0.439858
-0.949811 0.082971 3.863696 -0.179378 -0.105222 0.978137 0.872642 0.499023
-0.953776 0.090277 3.863755 -0.179378 -0.105222 0.978137 0.813477 0.499023
-0.975267 0.077988 3.858492 -0.1794609 -0.105084 0.9781366 0.127358 0.155273
-0.972307 0.079108 3.859155 -0.1794609 -0.105084 0.9781366 0.140625 0.142006
-0.953776 0.090277 3.863755 -0.1794609 -0.105084 0.9781366 0.153892 0.155273
-1.013639 0.057909 3.849294 -0.1795249 -0.104974 0.9781367 0.091392 0.155273
-0.975267 0.077988 3.858492 -0.1795249 -0.104974 0.9781367 0.063477 0.155273
-0.953776 0.090277 3.863755 -0.1795249 -0.104974 0.9781367 0.063477 0.127358
-1.047942 0.034568 3.840492 -0.1793961 -0.105882 0.9780625 0.060142 0.249023
-1.051088 0.035105 3.839973 -0.1793961 -0.105882 0.9780625 0.055664 0.249023
-1.054249 0.034802 3.83936 -0.1793961 -0.105882 0.9780625 0.055664 0.244545
-1.047942 0.034568 3.840492 -0.179385 -0.1052 0.978138 0.063477 0.247642
-1.054249 0.034802 3.83936 -0.179385 -0.1052 0.978138 0.063477 0.235352
-1.05721 0.033681 3.838697 -0.179385 -0.1052 0.978138 0.075767 0.235352
-1.047942 0.034568 3.840492 -0.179388 -0.105169 0.9781408 0.157227 0.158608
-1.05721 0.033681 3.838697 -0.179388 -0.105169 0.9781408 0.170494 0.171875
-1.059767 0.031819 3.838028 -0.179388 -0.105169 0.9781408 0.157227 0.185142
-1.047942 0.034568 3.840492 -0.1793559 -0.105299 0.9781328 0.002358 0.188477
-1.059767 0.031819 3.838028 -0.1793559 -0.105299 0.9781328 0.030273 0.188477
-1.061748 0.029341 3.837398 -0.1793559 -0.105299 0.9781328 0.030273 0.216392
-1.047942 0.034568 3.840492 -0.179391 -0.105209 0.978136 0.032227 0.216392
-1.061748 0.029341 3.837398 -0.179391 -0.105209 0.978136 0.032227 0.188477
-1.063016 0.026417 3.836851 -0.179391 -0.105209 0.978136 0.060142 0.188477
-1.047942 0.034568 3.840492 -0.179398 -0.105195 0.9781362 0.000977 0.247642
-1.063016 0.026417 3.836851 -0.179398 -0.105195 0.9781362 0.000977 0.219727
-1.063486 0.023246 3.836423 -0.179398 -0.105195 0.9781362 0.028892 0.219727
-1.047942 0.034568 3.840492 -0.1793301 -0.10529 0.9781384 0.158608 0.186523
-1.063486 0.023246 3.836423 -0.1793301 -0.10529 0.9781384 0.171875 0.173256
-1.063349 0.02202 3.836317 -0.1793301 -0.10529 0.9781384 0.185142 0.186523
-1.047942 0.034568 3.840492 -0.1794089 -0.1051919 0.9781345 0.843750 0.282631
-1.063349 0.02202 3.836317 -0.1794089 -0.1051919 0.9781345 0.872642 0.311523
-1.045431 0.033415 3.840829 -0.1794089 -0.1051919 0.9781345 0.814858 0.311523
-0.962748 0.07726 3.860709 -0.179821 -0.106246 0.9779449 0.017983 0.241211
-0.963081 0.077535 3.860678 -0.179821 -0.106246 0.9779449 0.019531 0.239662
-0.965999 0.078874 3.860287 -0.179821 -0.106246 0.9779449 0.021080 0.241211
-0.962748 0.07726 3.860709 -0.1794401 -0.105437 0.9781024 0.092773 0.232017
-0.965999 0.078874 3.860287 -0.1794401 -0.105437 0.9781024 0.087319 0.226563
-0.969146 0.079411 3.859767 -0.1794401 -0.105437 0.9781024 0.092773 0.221108
-0.962748 0.07726 3.860709 -0.179345 -0.105132 0.9781527 0.075767 0.233398
-0.969146 0.079411 3.859767 -0.179345 -0.105132 0.9781527 0.063477 0.233398
-0.972307 0.079108 3.859155 -0.179345 -0.105132 0.9781527 0.063477 0.221108
-0.962748 0.07726 3.860709 -0.179375 -0.105308 0.9781283 0.127358 0.186523
-0.972307 0.079108 3.859155 -0.179375 -0.105308 0.9781283 0.140625 0.173256
-0.975267 0.077988 3.858492 -0.179375 -0.105308 0.9781283 0.153892 0.186523
-0.962748 0.07726 3.860709 -0.1793791 -0.105412 0.9781163 0.028892 0.217773
-0.975267 0.077988 3.858492 -0.1793791 -0.105412 0.9781163 0.000977 0.217773
-0.977824 0.076125 3.857822 -0.1793791 -0.105412 0.9781163 0.000977 0.189858
-0.962748 0.07726 3.860709 -0.179409 -0.105085 0.978146 0.000977 0.185142
-0.977824 0.076125 3.857822 -0.179409 -0.105085 0.978146 0.000977 0.157227
-0.979805 0.073647 3.857193 -0.179409 -0.105085 0.978146 0.028892 0.157227
-0.962748 0.07726 3.860709 -0.1793661 -0.105276 0.9781333 0.028892 0.155273
-0.979805 0.073647 3.857193 -0.1793661 -0.105276 0.9781333 0.000977 0.155273
-0.981074 0.070723 3.856645 -0.1793661 -0.105276 0.9781333 0.000977 0.127358
-0.962748 0.07726 3.860709 -0.1793679 -0.10527 0.9781336 0.874023 0.310142
-0.981074 0.070723 3.856645 -0.1793679 -0.10527 0.9781336 0.845131 0.281250
-0.981475 0.068017 3.85628 -0.1793679 -0.10527 0.9781336 0.874023 0.252358
-0.926313 0.039668 3.863346 -0.860483 -0.465126 -0.207911 0.622642 0.375977
-0.940708 0.050188 3.899385 -0.860483 -0.465126 -0.207911 0.562500 0.436119
-0.944736 0.056073 3.902894 -0.860483 -0.465126 -0.207911 0.502358 0.375977
-0.926313 0.039668 3.863346 -0.8604414 -0.4652312 -0.2078471 0.002358 0.250977
-0.944736 0.056073 3.902894 -0.8604414 -0.4652312 -0.2078471 0.124023 0.250977
-0.949272 0.064431 3.902962 -0.8604414 -0.4652312 -0.2078471 0.124023 0.372642
-0.926313 0.039668 3.863346 -0.8604383 -0.4652402 -0.2078401 0.500977 0.747642
-0.949272 0.064431 3.902962 -0.8604383 -0.4652402 -0.2078401 0.500977 0.502358
-0.935757 0.057072 3.863487 -0.8604383 -0.4652402 -0.2078401 0.623619 0.625000
-0.949815 0.082978 3.863696 -0.8604267 -0.4652618 -0.2078399 0.500977 0.377358
-0.957292 0.079211 3.903081 -0.8604267 -0.4652618 -0.2078399 0.561119 0.437500
-0.960998 0.08604 3.903136 -0.8604267 -0.4652618 -0.2078399 0.500977 0.497642
-0.949815 0.082978 3.863696 -0.8604559 -0.4652019 -0.207853 0.500977 0.372642
-0.960998 0.08604 3.903136 -0.8604559 -0.4652019 -0.207853 0.500977 0.252358
-0.953776 0.090277 3.863755 -0.8604559 -0.4652019 -0.207853 0.561119 0.312500
-0.943612 0.054 3.902877 0.179398 0.105205 -0.9781351 0.502358 0.749023
-1.069604 -0.014123 3.872442 0.179398 0.105205 -0.9781351 0.625000 0.626381
-1.073211 -0.007475 3.872496 0.179398 0.105205 -0.9781351 0.747642 0.749023
-0.943612 0.054 3.902877 0.179371 0.105261 -0.978134 0.749023 0.502358
-1.073211 -0.007475 3.872496 0.179371 0.105261 -0.978134 0.749023 0.747642
-0.947475 0.06112 3.902935 0.179371 0.105261 -0.978134 0.626381 0.625000
-1.0752 -0.00381 3.872525 0.179456 0.105124 -0.9781332 0.874023 0.372642
-1.046905 0.016485 3.879898 0.179456 0.105124 -0.9781332 0.845131 0.343750
-1.024735 0.03054 3.885476 0.179456 0.105124 -0.9781332 0.874023 0.314858
-1.0752 -0.00381 3.872525 0.179401 0.105204 -0.9781347 0.502358 0.374023
-1.024735 0.03054 3.885476 0.179401 0.105204 -0.9781347 0.562500 0.313881
-0.994379 0.044885 3.892586 0.179401 0.105204 -0.9781347 0.622642 0.374023
-1.0752 -0.00381 3.872525 0.179346 0.105296 -0.9781349 0.125977 0.372642
-0.994379 0.044885 3.892586 0.179346 0.105296 -0.9781349 0.125977 0.250977
-0.957138 0.061919 3.901248 0.179346 0.105296 -0.9781349 0.247642 0.250977
-1.0752 -0.00381 3.872525 0.1794861 0.105044 -0.9781362 0.625977 0.377358
-0.957138 0.061919 3.901248 0.1794861 0.105044 -0.9781362 0.686119 0.437500
-0.949272 0.064431 3.902962 0.1794861 0.105044 -0.9781362 0.625977 0.497642
-1.0752 -0.00381 3.872525 0.179389 0.105224 -0.9781348 0.250977 0.497642
-0.949272 0.064431 3.902962 0.179389 0.105224 -0.9781348 0.250977 0.375977
-0.947475 0.06112 3.902935 0.179389 0.105224 -0.9781348 0.372642 0.375977
-1.0752 -0.00381 3.872525 0.179354 0.105292 -0.9781339 0.250977 0.252358
-0.947475 0.06112 3.902935 0.179354 0.105292 -0.9781339 0.372642 0.374023
-1.073211 -0.007475 3.872496 0.179354 0.105292 -0.9781339 0.250977 0.374023
-0.960998 0.08604 3.903136 0.1793699 0.105248 -0.9781356 0.872642 0.313477
-0.95729 0.079206 3.903081 0.1793699 0.105248 -0.9781356 0.843750 0.342369
-0.965289 0.076074 3.901277 0.1793699 0.105248 -0.9781356 0.814858 0.313477
-0.960998 0.08604 3.903136 0.179389 0.105239 -0.9781331 0.627358 0.499023
-0.965289 0.076074 3.901277 0.179389 0.105239 -0.9781331 0.687500 0.438881
-0.999134 0.059629 3.893301 0.179389 0.105239 -0.9781331 0.747642 0.499023
-0.960998 0.08604 3.903136 0.1793339 0.105319 -0.9781346 0.502358 0.499023
-0.999134 0.059629 3.893301 0.1793339 0.105319 -0.9781346 0.562500 0.438881
-1.026783 0.045913 3.886755 0.1793339 0.105319 -0.9781346 0.622642 0.499023
-0.960998 0.08604 3.903136 0.179011 0.105847 -0.9781368 0.155273 0.185142
-1.026783 0.045913 3.886755 0.179011 0.105847 -0.9781368 0.142006 0.171875
-1.047458 0.0335 3.881627 0.179011 0.105847 -0.9781368 0.155273 0.158608
-1.080653 0.011837 3.873209 0.179409 0.105288 -0.9781241 0.032227 0.186523
-1.082793 0.010182 3.872638 0.179409 0.105288 -0.9781241 0.032227 0.158608
-1.08699 0.017916 3.872701 0.179409 0.105288 -0.9781241 0.060142 0.186523
-1.047458 0.0335 3.881627 0.179376 0.105253 -0.978134 0.624023 0.497642
-1.080653 0.011837 3.873209 0.179376 0.105253 -0.978134 0.563881 0.437500
-1.08699 0.017916 3.872701 0.179376 0.105253 -0.978134 0.624023 0.377358
-0.960998 0.08604 3.903136 0.1793829 0.105236 -0.9781346 0.747642 0.500977
-1.047458 0.0335 3.881627 0.1793829 0.105236 -0.9781346 0.625000 0.623619
-1.08699 0.017916 3.872701 0.1793829 0.105236 -0.9781346 0.502358 0.500977
-1.0752 -0.00381 3.872525 0.8604468 0.4653519 0.207555 0.216392 0.219727
-1.073156 -0.007576 3.872495 0.8604468 0.4653519 0.207555 0.203125 0.232994
-1.06986 -0.012111 3.868997 0.8604468 0.4653519 0.207555 0.189858 0.219727
-1.0752 -0.00381 3.872525 0.8604438 0.4652168 0.2078699 0.627358 0.374023
-1.06986 -0.012111 3.868997 0.8604438 0.4652168 0.2078699 0.687500 0.313881
-1.052946 -0.027275 3.832921 0.8604438 0.4652168 0.2078699 0.747642 0.374023
-1.0752 -0.00381 3.872525 0.8604354 0.4652412 0.2078501 0.375977 0.377358
-1.052946 -0.027275 3.832921 0.8604354 0.4652412 0.2078501 0.497642 0.499023
-1.061669 -0.011201 3.83305 0.8604354 0.4652412 0.2078501 0.375977 0.499023
-1.079768 0.022153 3.83332 0.860437 0.465239 0.207848 0.749023 0.372642
-1.08699 0.017916 3.872701 0.860437 0.465239 0.207848 0.688881 0.312500
-1.082793 0.010182 3.872638 0.860437 0.465239 0.207848 0.749023 0.252358
-1.079768 0.022153 3.83332 0.8604383 0.4652372 0.2078471 0.749023 0.377358
-1.082793 0.010182 3.872638 0.8604383 0.4652372 0.2078471 0.749023 0.497642
-1.075421 0.014143 3.833255 0.8604383 0.4652372 0.2078471 0.688881 0.437500
-1.156929 0.442587 3.904499 -0.4616399 0.8870367 0.007378998 0.752358 0.750977
-1.14903 0.447024 3.86527 -0.4616399 0.8870367 0.007378998 0.999023 0.750977
-1.209218 0.415831 3.849624 -0.4616399 0.8870367 0.007378998 0.999023 0.997642
-1.156929 0.442587 3.904499 -0.4616371 0.8870382 0.007375002 0.000977 0.502358
-1.209218 0.415831 3.849624 -0.4616371 0.8870382 0.007375002 0.247642 0.749023
-1.216964 0.41148 3.888098 -0.4616371 0.8870382 0.007375002 0.000977 0.749023
-1.156929 0.442587 3.904499 -0.4618241 0.8869331 0.008255002 0.053711 0.244545
-1.216964 0.41148 3.888098 -0.4618241 0.8869331 0.008255002 0.053711 0.249023
-1.219407 0.410214 3.887463 -0.4618241 0.8869331 0.008255002 0.049233 0.249023
-1.219407 0.410214 3.887463 -0.4616391 0.8870372 0.007375002 0.002358 0.500977
-1.21166 0.414566 3.848989 -0.4616391 0.8870372 0.007375002 0.249023 0.500977
-1.275706 0.381373 3.83234 -0.4616391 0.8870372 0.007375002 0.249023 0.747642
-1.219407 0.410214 3.887463 -0.4616359 0.8870389 0.007369999 0.250977 0.502358
-1.275706 0.381373 3.83234 -0.4616359 0.8870389 0.007369999 0.497642 0.749023
-1.283604 0.376936 3.871569 -0.4616359 0.8870389 0.007369999 0.250977 0.749023
-1.156929 0.442587 3.904499 -0.4616277 0.8870435 0.007330996 0.811523 0.439858
-1.219407 0.410214 3.887463 -0.4616277 0.8870435 0.007330996 0.811523 0.499023
-1.283604 0.376936 3.871569 -0.4616277 0.8870435 0.007330996 0.752358 0.499023
-1.21166 0.414566 3.848989 -0.4616458 0.8870337 0.007372997 0.874023 0.377358
-1.219407 0.410214 3.887463 -0.4616458 0.8870337 0.007372997 0.874023 0.436523
-1.216964 0.41148 3.888098 -0.4616458 0.8870337 0.007372997 0.814858 0.436523
-1.21166 0.414566 3.848989 -0.461634 0.8870399 0.007375999 0.874023 0.497642
-1.216964 0.41148 3.888098 -0.461634 0.8870399 0.007375999 0.814858 0.438477
-1.209218 0.415831 3.849624 -0.461634 0.8870399 0.007375999 0.874023 0.438477
-1.219607 0.414324 3.847362 -0.196157 -0.110257 0.9743541 0.030273 0.158608
-1.221498 0.415237 3.847084 -0.196157 -0.110257 0.9743541 0.030273 0.186523
-1.241456 0.405857 3.842005 -0.196157 -0.110257 0.9743541 0.002358 0.186523
-1.216478 0.413728 3.847924 -0.1961759 -0.110209 0.9743557 0.002358 0.063477
-1.219607 0.414324 3.847362 -0.1961759 -0.110209 0.9743557 0.030273 0.063477
-1.241456 0.405857 3.842005 -0.1961759 -0.110209 0.9743557 0.030273 0.091392
-1.213322 0.41397 3.848587 -0.196162 -0.11025 0.9743539 0.188477 0.221108
-1.216478 0.413728 3.847924 -0.196162 -0.11025 0.9743539 0.201744 0.234375
-1.241456 0.405857 3.842005 -0.196162 -0.11025 0.9743539 0.188477 0.247642
-1.213322 0.41397 3.848587 -0.196174 -0.11021 0.974356 0.032227 0.091392
-1.241456 0.405857 3.842005 -0.196174 -0.11021 0.974356 0.032227 0.063477
-1.247229 0.403368 3.840561 -0.196174 -0.11021 0.974356 0.060142 0.063477
-1.213322 0.41397 3.848587 -0.196218 -0.110076 0.9743623 0.811523 0.310142
-1.247229 0.403368 3.840561 -0.196218 -0.110076 0.9743623 0.782631 0.281250
-1.247676 0.400649 3.840164 -0.196218 -0.110076 0.9743623 0.811523 0.252358
-1.21166 0.414566 3.848989 -0.196286 -0.109905 0.9743679 0.044517 0.249023
-1.213322 0.41397 3.848587 -0.196286 -0.109905 0.9743679 0.040039 0.249023
-1.247676 0.400649 3.840164 -0.196286 -0.109905 0.9743679 0.040039 0.244545
-1.21166 0.414566 3.848989 -0.196168 -0.110202 0.9743581 0.810142 0.250977
-1.247676 0.400649 3.840164 -0.196168 -0.110202 0.9743581 0.781250 0.279869
-1.248986 0.397753 3.839572 -0.196168 -0.110202 0.9743581 0.752358 0.250977
-1.21166 0.414566 3.848989 -0.196108 -0.110334 0.9743552 0.872642 0.250977
-1.248986 0.397753 3.839572 -0.196108 -0.110334 0.9743552 0.843750 0.279869
-1.251 0.395315 3.838891 -0.196108 -0.110334 0.9743552 0.814858 0.250977
-1.21166 0.414566 3.848989 -0.196275 -0.109996 0.9743599 0.188477 0.189858
-1.251 0.395315 3.838891 -0.196275 -0.109996 0.9743599 0.201744 0.203125
-1.253579 0.393503 3.838167 -0.196275 -0.109996 0.9743599 0.188477 0.216392
-1.265719 0.394188 3.8358 -0.1961519 -0.110253 0.9743556 0.189858 0.217773
-1.266658 0.39499 3.835702 -0.1961519 -0.110253 0.9743556 0.203125 0.204506
-1.277694 0.390232 3.832942 -0.1961519 -0.110253 0.9743556 0.216392 0.217773
-1.262832 0.392794 3.836224 -0.196201 -0.110109 0.974362 0.000977 0.122642
-1.265719 0.394188 3.8358 -0.196201 -0.110109 0.974362 0.000977 0.094727
-1.277694 0.390232 3.832942 -0.196201 -0.110109 0.974362 0.028892 0.094727
-1.259703 0.392198 3.836786 -0.196133 -0.110469 0.9743349 0.219727 0.221108
-1.262832 0.392794 3.836224 -0.196133 -0.110469 0.9743349 0.232994 0.234375
-1.277694 0.390232 3.832942 -0.196133 -0.110469 0.9743349 0.219727 0.247642
-1.256547 0.39244 3.837449 -0.196241 -0.109623 0.9744087 0.038086 0.244545
-1.259703 0.392198 3.836786 -0.196241 -0.109623 0.9744087 0.038086 0.249023
-1.277694 0.390232 3.832942 -0.196241 -0.109623 0.9744087 0.033608 0.249023
-1.256547 0.39244 3.837449 -0.1961381 -0.110456 0.9743354 0.221108 0.249023
-1.277694 0.390232 3.832942 -0.1961381 -0.110456 0.9743354 0.234375 0.235756
-1.279909 0.389449 3.832407 -0.1961381 -0.110456 0.9743354 0.247642 0.249023
-1.256547 0.39244 3.837449 -0.1961751 -0.110205 0.9743563 0.627358 0.375977
-1.279909 0.389449 3.832407 -0.1961751 -0.110205 0.9743563 0.747642 0.375977
-1.275706 0.381373 3.83234 -0.1961751 -0.110205 0.9743563 0.687500 0.436119
-1.253579 0.393503 3.838167 -0.1962979 -0.109992 0.9743556 0.189858 0.249023
-1.256547 0.39244 3.837449 -0.1962979 -0.109992 0.9743556 0.203125 0.235756
-1.275706 0.381373 3.83234 -0.1962979 -0.109992 0.9743556 0.216392 0.249023
-1.21166 0.414566 3.848989 -0.1960321 -0.110477 0.9743543 0.028892 0.092773
-1.253579 0.393503 3.838167 -0.1960321 -0.110477 0.9743543 0.000977 0.092773
-1.275706 0.381373 3.83234 -0.1960321 -0.110477 0.9743543 0.000977 0.064858
-1.219717 0.416074 3.847537 -0.1961289 -0.110195 0.9743668 0.087319 0.242188
-1.221498 0.415237 3.847084 -0.1961289 -0.110195 0.9743668 0.092773 0.236733
-1.219607 0.414324 3.847362 -0.1961289 -0.110195 0.9743668 0.092773 0.247642
-1.219717 0.416074 3.847537 -0.1961741 -0.110197 0.9743574 0.091392 0.235352
-1.219607 0.414324 3.847362 -0.1961741 -0.110197 0.9743574 0.085938 0.240806
-1.216478 0.413728 3.847924 -0.1961741 -0.110197 0.9743574 0.080483 0.235352
-1.219717 0.416074 3.847537 -0.1961681 -0.1101891 0.9743596 0.063477 0.216392
-1.216478 0.413728 3.847924 -0.1961681 -0.1101891 0.9743596 0.063477 0.204102
-1.213322 0.41397 3.848587 -0.1961681 -0.1101891 0.9743596 0.075767 0.204102
-1.219717 0.416074 3.847537 -0.196174 -0.110208 0.9743562 0.075767 0.202148
-1.213322 0.41397 3.848587 -0.196174 -0.110208 0.9743562 0.063477 0.202148
-1.21166 0.414566 3.848989 -0.196174 -0.110208 0.9743562 0.063477 0.189858
-1.219717 0.416074 3.847537 -0.196185 -0.110277 0.9743462 0.217773 0.247642
-1.21166 0.414566 3.848989 -0.196185 -0.110277 0.9743462 0.204506 0.234375
-1.209218 0.415831 3.849624 -0.196185 -0.110277 0.9743462 0.217773 0.221108
-1.219717 0.416074 3.847537 -0.196185 -0.110179 0.9743572 0.091392 0.217773
-1.209218 0.415831 3.849624 -0.196185 -0.110179 0.9743572 0.079102 0.217773
-1.207775 0.416845 3.850029 -0.196185 -0.110179 0.9743572 0.079102 0.205483
-1.219717 0.416074 3.847537 -0.196173 -0.110329 0.9743428 0.000977 0.060142
-1.207775 0.416845 3.850029 -0.196173 -0.110329 0.9743428 0.000977 0.032227
-1.205761 0.419283 3.85071 -0.196173 -0.110329 0.9743428 0.028892 0.032227
-1.219717 0.416074 3.847537 -0.196269 -0.109934 0.974368 0.028892 0.030273
-1.205761 0.419283 3.85071 -0.196269 -0.109934 0.974368 0.000977 0.030273
-1.20445 0.422179 3.851301 -0.196269 -0.109934 0.974368 0.000977 0.002358
-1.219717 0.416074 3.847537 -0.196071 -0.11042 0.9743529 0.060142 0.061523
-1.20445 0.422179 3.851301 -0.196071 -0.11042 0.9743529 0.032227 0.061523
-1.204015 0.424825 3.851689 -0.196071 -0.11042 0.9743529 0.032227 0.033608
-1.160271 0.449509 3.863288 -0.196438 -0.10974 0.9743559 0.045898 0.236733
-1.164811 0.446936 3.862082 -0.196438 -0.10974 0.9743559 0.045898 0.241211
-1.16477 0.446506 3.862042 -0.196438 -0.10974 0.9743559 0.041420 0.241211
-1.152868 0.454398 3.865331 -0.2016769 -0.101806 0.9741468 0.024414 0.244545
-1.160271 0.449509 3.863288 -0.2016769 -0.101806 0.9741468 0.025963 0.246094
-1.16477 0.446506 3.862042 -0.2016769 -0.101806 0.9741468 0.024414 0.247642
-1.152868 0.454398 3.865331 -0.196138 -0.110246 0.9743592 0.030273 0.033608
-1.16477 0.446506 3.862042 -0.196138 -0.110246 0.9743592 0.030273 0.061523
-1.165289 0.443347 3.861581 -0.196138 -0.110246 0.9743592 0.002358 0.061523
-1.152868 0.454398 3.865331 -0.196101 -0.110289 0.9743618 0.157227 0.221108
-1.165289 0.443347 3.861581 -0.196101 -0.110289 0.9743618 0.170494 0.234375
-1.1666 0.440451 3.860989 -0.196101 -0.110289 0.9743618 0.157227 0.247642
-1.152868 0.454398 3.865331 -0.19707 -0.109308 0.9742768 0.044517 0.235352
-1.1666 0.440451 3.860989 -0.19707 -0.109308 0.9742768 0.039063 0.240806
-1.168613 0.438013 3.860308 -0.19707 -0.109308 0.9742768 0.033608 0.235352
-1.180445 0.435493 3.857641 -0.196115 -0.110348 0.9743522 0.063477 0.122642
-1.182909 0.436682 3.857279 -0.196115 -0.110348 0.9743522 0.063477 0.094727
-1.192869 0.431038 3.854635 -0.196115 -0.110348 0.9743522 0.091392 0.094727
-1.177316 0.434897 3.858203 -0.1962021 -0.110112 0.9743614 0.158608 0.249023
-1.180445 0.435493 3.857641 -0.1962021 -0.110112 0.9743614 0.171875 0.235756
-1.192869 0.431038 3.854635 -0.1962021 -0.110112 0.9743614 0.185142 0.249023
-1.17416 0.435138 3.858866 -0.19609 -0.110538 0.9743358 0.077148 0.205483
-1.177316 0.434897 3.858203 -0.19609 -0.110538 0.9743358 0.077148 0.217773
-1.192869 0.431038 3.854635 -0.19609 -0.110538 0.9743358 0.064858 0.217773
-1.17416 0.435138 3.858866 -0.196173 -0.110183 0.9743592 0.813477 0.252358
-1.192869 0.431038 3.854635 -0.196173 -0.110183 0.9743592 0.842369 0.281250
-1.204015 0.424825 3.851689 -0.196173 -0.110183 0.9743592 0.813477 0.310142
-1.17416 0.435138 3.858866 -0.1960911 -0.110416 0.9743493 0.936523 0.310142
-1.204015 0.424825 3.851689 -0.1960911 -0.110416 0.9743493 0.907631 0.281250
-1.20445 0.422179 3.851301 -0.1960911 -0.110416 0.9743493 0.936523 0.252358
-1.171192 0.436202 3.859584 -0.196497 -0.10948 0.9743732 0.094727 0.247642
-1.17416 0.435138 3.858866 -0.196497 -0.10948 0.9743732 0.094727 0.235352
-1.20445 0.422179 3.851301 -0.196497 -0.10948 0.9743732 0.107017 0.235352
-1.171192 0.436202 3.859584 -0.196311 -0.109914 0.9743618 0.935142 0.250977
-1.20445 0.422179 3.851301 -0.196311 -0.109914 0.9743618 0.906250 0.279869
-1.205761 0.419283 3.85071 -0.196311 -0.109914 0.9743618 0.877358 0.250977
-1.171192 0.436202 3.859584 -0.1960589 -0.110427 0.9743546 0.997642 0.250977
-1.205761 0.419283 3.85071 -0.1960589 -0.110427 0.9743546 0.968750 0.279869
-1.207775 0.416845 3.850029 -0.1960589 -0.110427 0.9743546 0.939858 0.250977
-1.171192 0.436202 3.859584 -0.1962051 -0.1101501 0.9743565 0.107017 0.233398
-1.207775 0.416845 3.850029 -0.1962051 -0.1101501 0.9743565 0.094727 0.233398
-1.209218 0.415831 3.849624 -0.1962051 -0.1101501 0.9743565 0.094727 0.221108
-1.171192 0.436202 3.859584 -0.196167 -0.110222 0.974356 0.063477 0.092773
-1.209218 0.415831 3.849624 -0.196167 -0.110222 0.974356 0.063477 0.064858
-1.14903 0.447024 3.86527 -0.196167 -0.110222 0.974356 0.091392 0.092773
-1.168613 0.438013 3.860308 -0.196035 -0.110491 0.9743521 0.140625 0.235756
-1.171192 0.436202 3.859584 -0.196035 -0.110491 0.9743521 0.153892 0.249023
-1.14903 0.447024 3.86527 -0.196035 -0.110491 0.9743521 0.127358 0.249023
-1.152868 0.454398 3.865331 -0.196171 -0.110197 0.974358 0.938477 0.314858
-1.168613 0.438013 3.860308 -0.196171 -0.110197 0.974358 0.997642 0.374023
-1.14903 0.447024 3.86527 -0.196171 -0.110197 0.974358 0.938477 0.374023
-1.266658 0.39499 3.835702 -0.196404 -0.110558 0.9742702 0.016602 0.244545
-1.265719 0.394188 3.8358 -0.196404 -0.110558 0.9742702 0.018150 0.246094
-1.262832 0.392794 3.836224 -0.196404 -0.110558 0.9742702 0.016602 0.247642
-1.266658 0.39499 3.835702 -0.196036 -0.109881 0.9744209 0.032227 0.236733
-1.262832 0.392794 3.836224 -0.196036 -0.109881 0.9744209 0.037681 0.242188
-1.259703 0.392198 3.836786 -0.196036 -0.109881 0.9744209 0.032227 0.247642
-1.266658 0.39499 3.835702 -0.1961789 -0.110266 0.9743487 0.122642 0.249023
-1.259703 0.392198 3.836786 -0.1961789 -0.110266 0.9743487 0.110352 0.249023
-1.256547 0.39244 3.837449 -0.1961789 -0.110266 0.9743487 0.110352 0.236733
-1.266658 0.39499 3.835702 -0.196186 -0.110297 0.9743438 0.155273 0.247642
-1.256547 0.39244 3.837449 -0.196186 -0.110297 0.9743438 0.142006 0.234375
-1.253579 0.393503 3.838167 -0.196186 -0.110297 0.9743438 0.155273 0.221108
-1.266658 0.39499 3.835702 -0.196173 -0.110143 0.9743637 0.122642 0.124023
-1.253579 0.393503 3.838167 -0.196173 -0.110143 0.9743637 0.094727 0.124023
-1.251 0.395315 3.838891 -0.196173 -0.110143 0.9743637 0.094727 0.096108
-1.266658 0.39499 3.835702 -0.196167 -0.110284 0.974349 0.092773 0.096108
-1.251 0.395315 3.838891 -0.196167 -0.110284 0.974349 0.092773 0.124023
-1.248986 0.397753 3.839572 -0.196167 -0.110284 0.974349 0.064858 0.124023
-1.266658 0.39499 3.835702 -0.196182 -0.110196 0.974356 0.938477 0.252358
-1.248986 0.397753 3.839572 -0.196182 -0.110196 0.974356 0.967369 0.281250
-1.247676 0.400649 3.840164 -0.196182 -0.110196 0.974356 0.938477 0.310142
-1.266658 0.39499 3.835702 -0.196219 -0.110076 0.974362 0.935142 0.313477
-1.247676 0.400649 3.840164 -0.196219 -0.110076 0.974362 0.906250 0.342369
-1.247229 0.403368 3.840561 -0.196219 -0.110076 0.974362 0.877358 0.313477
-1.180445 0.435493 3.857641 -0.196158 -0.10984 0.974401 0.041420 0.243164
-1.177316 0.434897 3.858203 -0.196158 -0.10984 0.974401 0.045898 0.243164
-1.17416 0.435138 3.858866 -0.196158 -0.10984 0.974401 0.045898 0.247642
-1.180445 0.435493 3.857641 -0.196175 -0.110358 0.974339 0.108398 0.236733
-1.17416 0.435138 3.858866 -0.196175 -0.110358 0.974339 0.108398 0.249023
-1.171192 0.436202 3.859584 -0.196175 -0.110358 0.974339 0.096108 0.249023
-1.180445 0.435493 3.857641 -0.1961819 -0.110278 0.9743467 0.158608 0.217773
-1.171192 0.436202 3.859584 -0.1961819 -0.110278 0.9743467 0.171875 0.204506
-1.168613 0.438013 3.860308 -0.1961819 -0.110278 0.9743467 0.185142 0.217773
-1.180445 0.435493 3.857641 -0.196242 -0.110017 0.9743641 0.060142 0.124023
-1.168613 0.438013 3.860308 -0.196242 -0.110017 0.9743641 0.032227 0.124023
-1.1666 0.440451 3.860989 -0.196242 -0.110017 0.9743641 0.032227 0.096108
-1.180445 0.435493 3.857641 -0.1961511 -0.110265 0.9743544 0.030273 0.096108
-1.1666 0.440451 3.860989 -0.1961511 -0.110265 0.9743544 0.030273 0.124023
-1.165289 0.443347 3.861581 -0.1961511 -0.110265 0.9743544 0.002358 0.124023
-1.180445 0.435493 3.857641 -0.196163 -0.110241 0.9743547 0.061523 0.064858
-1.165289 0.443347 3.861581 -0.196163 -0.110241 0.9743547 0.061523 0.092773
-1.16477 0.446506 3.862042 -0.196163 -0.110241 0.9743547 0.033608 0.092773
-1.180445 0.435493 3.857641 -0.196508 -0.109745 0.9743412 0.091392 0.249023
-1.16477 0.446506 3.862042 -0.196508 -0.109745 0.9743412 0.079102 0.249023
-1.164811 0.446936 3.862082 -0.196508 -0.109745 0.9743412 0.079102 0.236733
-1.180445 0.435493 3.857641 -0.1960989 -0.110311 0.9743596 0.904869 0.343750
-1.164811 0.446936 3.862082 -0.1960989 -0.110311 0.9743596 0.875977 0.372642
-1.182909 0.436682 3.857279 -0.1960989 -0.110311 0.9743596 0.875977 0.314858
-1.168279 0.464397 3.90468 -0.8651173 -0.4483751 -0.2247931 0.033608 0.094727
-1.172669 0.472832 3.90475 -0.8651173 -0.4483751 -0.2247931 0.061523 0.094727
-1.175261 0.479535 3.901358 -0.8651173 -0.4483751 -0.2247931 0.061523 0.122642
-1.168279 0.464397 3.90468 -0.8650812 -0.4483851 -0.224912 0.374023 0.377358
-1.175261 0.479535 3.901358 -0.8650812 -0.4483851 -0.224912 0.374023 0.499023
-1.175612 0.498101 3.865695 -0.8650812 -0.4483851 -0.224912 0.252358 0.499023
-1.168279 0.464397 3.90468 -0.8651036 -0.4483563 -0.2248832 0.750977 0.747642
-1.175612 0.498101 3.865695 -0.8651036 -0.4483563 -0.2248832 0.750977 0.502358
-1.166471 0.480536 3.865549 -0.8651036 -0.4483563 -0.2248832 0.873619 0.625000
-1.156929 0.442587 3.904499 -0.865123 -0.448321 -0.224879 0.624023 0.372642
-1.160515 0.44948 3.904556 -0.865123 -0.448321 -0.224879 0.563881 0.312500
-1.152864 0.454391 3.865331 -0.865123 -0.448321 -0.224879 0.624023 0.252358
-1.156929 0.442587 3.904499 -0.8650962 -0.4483671 -0.2248901 0.502358 0.250977
-1.152864 0.454391 3.865331 -0.8650962 -0.4483671 -0.2248901 0.622642 0.250977
-1.14903 0.447024 3.86527 -0.8650962 -0.4483671 -0.2248901 0.562500 0.311119
-1.296941 0.402563 3.871782 0.196177 0.110195 -0.9743571 0.752358 0.749023
-1.300432 0.409272 3.871838 0.196177 0.110195 -0.9743571 0.875000 0.626381
-1.173757 0.474924 3.904768 0.196177 0.110195 -0.9743571 0.997642 0.749023
-1.296941 0.402563 3.871782 0.196189 0.110174 -0.974357 0.999023 0.502358
-1.173757 0.474924 3.904768 0.196189 0.110174 -0.974357 0.999023 0.747642
-1.170018 0.467738 3.904708 0.196189 0.110174 -0.974357 0.876381 0.625000
-1.170018 0.467738 3.904708 0.196176 0.110181 -0.9743589 0.127358 0.188477
-1.168279 0.464397 3.90468 0.196176 0.110181 -0.9743589 0.155273 0.188477
-1.174746 0.459319 3.902804 0.196176 0.110181 -0.9743589 0.155273 0.216392
-1.170018 0.467738 3.904708 0.1962079 0.110163 -0.9743545 0.747642 0.250977
-1.174746 0.459319 3.902804 0.1962079 0.110163 -0.9743545 0.687500 0.311119
-1.20962 0.438171 3.89339 0.1962079 0.110163 -0.9743545 0.627358 0.250977
-1.170018 0.467738 3.904708 0.196139 0.110256 -0.9743578 0.936523 0.314858
-1.20962 0.438171 3.89339 0.196139 0.110256 -0.9743578 0.936523 0.374023
-1.238429 0.421192 3.88567 0.196139 0.110256 -0.9743578 0.877358 0.374023
-1.170018 0.467738 3.904708 0.1961541 0.110233 -0.9743574 0.499023 0.252358
-1.238429 0.421192 3.88567 0.1961541 0.110233 -0.9743574 0.499023 0.374023
-1.262431 0.410801 3.879662 0.1961541 0.110233 -0.9743574 0.377358 0.374023
-1.170018 0.467738 3.904708 0.1961869 0.110181 -0.9743567 0.997642 0.500977
-1.262431 0.410801 3.879662 0.1961869 0.110181 -0.9743567 0.875000 0.623619
-1.295015 0.398863 3.871751 0.1961869 0.110181 -0.9743567 0.752358 0.500977
-1.170018 0.467738 3.904708 0.196177 0.110197 -0.9743569 0.499023 0.497642
-1.295015 0.398863 3.871751 0.196177 0.110197 -0.9743569 0.377358 0.375977
-1.296941 0.402563 3.871782 0.196177 0.110197 -0.9743569 0.499023 0.375977
-1.167573 0.444646 3.902588 0.196182 0.110248 -0.97435 0.875977 0.252358
-1.160518 0.449484 3.904556 0.196182 0.110248 -0.97435 0.904869 0.281250
-1.156929 0.442587 3.904499 0.196182 0.110248 -0.97435 0.875977 0.310142
-1.200066 0.425968 3.893934 0.1961731 0.110199 -0.9743574 0.625977 0.252358
-1.167573 0.444646 3.902588 0.1961731 0.110199 -0.9743574 0.686119 0.312500
-1.156929 0.442587 3.904499 0.1961731 0.110199 -0.9743574 0.625977 0.372642
-1.226843 0.410869 3.886835 0.196171 0.110206 -0.974357 0.872642 0.375977
-1.200066 0.425968 3.893934 0.196171 0.110206 -0.974357 0.812500 0.436119
-1.156929 0.442587 3.904499 0.196171 0.110206 -0.974357 0.752358 0.375977
-1.248653 0.400788 3.881304 0.1958549 0.1108939 -0.9743425 0.186523 0.216392
-1.226843 0.410869 3.886835 0.1958549 0.1108939 -0.9743425 0.173256 0.203125
-1.156929 0.442587 3.904499 0.1958549 0.1108939 -0.9743425 0.186523 0.189858
-1.248653 0.400788 3.881304 0.1961881 0.110172 -0.9743574 0.123619 0.375000
-1.156929 0.442587 3.904499 0.1961881 0.110172 -0.9743574 0.000977 0.497642
-1.283604 0.376936 3.871569 0.1961881 0.110172 -0.9743574 0.000977 0.252358
-1.285103 0.385577 3.872244 0.1961889 0.1101699 -0.9743575 0.811119 0.437500
-1.248653 0.400788 3.881304 0.1961889 0.1101699 -0.9743575 0.750977 0.497642
-1.283604 0.376936 3.871569 0.1961889 0.1101699 -0.9743575 0.750977 0.377358
-1.287666 0.384741 3.871634 0.196279 0.110184 -0.9743378 0.157227 0.216392
-1.285103 0.385577 3.872244 0.196279 0.110184 -0.9743378 0.157227 0.188477
-1.283604 0.376936 3.871569 0.196279 0.110184 -0.9743378 0.185142 0.188477
-1.301667 0.431258 3.832755 0.8650079 0.448487 0.224991 0.999023 0.252358
-1.298878 0.408006 3.868379 0.8650079 0.448487 0.224991 0.999023 0.311523
-1.296994 0.402664 3.871783 0.8650079 0.448487 0.224991 0.939858 0.311523
-1.301667 0.431258 3.832755 0.8651059 0.448353 0.224881 0.939858 0.313477
-1.296994 0.402664 3.871783 0.8651059 0.448353 0.224881 0.999023 0.313477
-1.295015 0.398863 3.871751 0.8651059 0.448353 0.224881 0.999023 0.372642
-1.301667 0.431258 3.832755 0.8651034 0.4483562 0.2248841 0.374023 0.372642
-1.295015 0.398863 3.871751 0.8651034 0.4483562 0.2248841 0.252358 0.250977
-1.293224 0.415035 3.83262 0.8651034 0.4483562 0.2248841 0.374023 0.250977
-1.287666 0.384741 3.871634 0.8651008 0.4483609 0.2248849 0.750977 0.252358
-1.283604 0.376936 3.871569 0.8651008 0.4483609 0.2248849 0.811119 0.312500
-1.275706 0.381373 3.83234 0.8651008 0.4483609 0.2248849 0.750977 0.372642
-1.287666 0.384741 3.871634 0.8651034 0.4483552 0.2248861 0.872642 0.374023
-1.275706 0.381373 3.83234 0.8651034 0.4483552 0.2248861 0.752358 0.374023
-1.279913 0.389457 3.832407 0.8651034 0.4483552 0.2248861 0.812500 0.313881
3 0 1 2 
3 3 4 5 
3 6 7 8 
3 9 10 11 
3 12 13 14 
3 15 16 17 
3 18 19 20 
3 21 22 23 
3 24 25 26 
3 27 28 29 
3 30 31 32 
3 33 34 35 
3 36 37 38 
3 39 40 41 
3 42 43 44 
3 45 46 47 
3 48 49 50 
3 51 52 53 
3 54 55 56 
3 57 58 59 
3 60 61 62 
3 63 64 65 
3 66 67 68 
3 69 70 71 
3 72 73 74 
3 75 76 77 
3 78 79 80 
3 81 82 83 
3 84 85 86 
3 87 88 89 
3 90 91 92 
3 93 94 95 
3 96 97 98 
3 99 100 101 
3 102 103 104 
3 105 106 107 
3 108 109 110 
3 111 112 113 
3 114 115 116 
3 117 118 119 
3 120 121 122 
3 123 124 125 
3 126 127 128 
3 129 130 131 
3 132 133 134 
3 135 136 137 
3 138 139 140 
3 141 142 143 
3 144 145 146 
3 147 148 149 
3 150 151 152 
3 153 154 155 
3 156 157 158 
3 159 160 161 
3 162 163 164 
3 165 166 167 
3 168 169 170 
3 171 172 173 
3 174 175 176 
3 177 178 179 
3 180 181 182 
3 183 184 185 
3 186 187 188 
3 189 190 191 
3 192 193 194 
3 195 196 197 
3 198 199 200 
3 201 202 203 
3 204 205 206 
3 207 208 209 
3 210 211 212 
3 213 214 215 
3 216 217 218 
3 219 220 221 
3 222 223 224 
3 225 226 227 
3 228 229 230 
3 231 232 233 
3 234 235 236 
3 237 238 239 
3 240 241 242 
3 243 244 245 
3 246 247 248 
3 249 250 251 
3 252 253 254 
3 255 256 257 
3 258 259 260 
3 261 262 263 
3 264 265 266 
3 267 268 269 
3 270 271 272 
3 273 274 275 
3 276 277 278 
3 279 280 281 
3 282 283 284 
3 285 286 287 
3 288 289 290 
3 291 292 293 
3 294 295 296 
3 297 298 299 
3 300 301 302 
3 303 304 305 
3 306 307 308 
3 309 310 311 
3 312 313 314 
3 315 316 317 
3 318 319 320 
3 321 322 323 
3 324 325 326 
3 327 328 329 
3 330 331 332 
3 333 334 335 
3 336 337 338 
3 339 340 341 
3 342 343 344 
3 345 346 347 
3 348 349 350 
3 351 352 353 
3 354 355 356 
3 357 358 359 
3 360 361 362 
3 363 364 365 
3 366 367 368 
3 369 370 371 
3 372 373 374 
3 375 376 377 
3 378 379 380 
3 381 382 383 
3 384 385 386 
3 387 388 389 
3 390 391 392 
3 393 394 395 
3 396 397 398 
3 399 400 401 
3 402 403 404 
3 405 406 407 
3 408 409 410 
3 411 412 413 
3 414 415 416 
3 417 418 419 
3 420 421 422 
3 423 424 425 
3 426 427 428 
3 429 430 431 
3 432 433 434 
3 435 436 437 
3 438 439 440 
3 441 442 443 
3 444 445 446 
3 447 448 449 
3 450 451 452 
3 453 454 455 
3 456 457 458 
3 459 460 461 
3 462 463 464 
3 465 466 467 
3 468 469 470 
3 471 472 473 
3 474 475 476 
3 477 478 479 
3 480 481 482 
3 483 484 485 
3 486 487 488 
3 489 490 491 
3 492 493 494 
3 495 496 497 
3 498 499 500 
3 501 502 503 
3 504 505 506 
3 507 508 509 
3 510 511 512 
3 513 514 515 
3 516 517 518 
3 519 520 521 
3 522 523 524 
3 525 526 527 
3 528 529 530 
3 531 532 533 
3 534 535 536 
3 537 538 539 
3 540 541 542 
3 543 544 545 
3 546 547 548 
3 549 550 551 
3 552 553 554 
3 555 556 557 
3 558 559 560 
3 561 562 563 
3 564 565 566 
3 567 568 569 
3 570 571 572 
3 573 574 575 
3 576 577 578 
3 579 580 581 
3 582 583 584 
3 585 586 587 
