ply
format ascii 1.0
comment Created by Blender 2.80 (sub 75) - www.blender.org, source file: 'FloatingCities.blend'
element vertex 120
property float x
property float y
property float z
property float nx
property float ny
property float nz
element face 232
property list uchar uint vertex_indices
end_header
1.240349 0.372761 -0.000333 0.347789 0.612079 -0.710166
1.240349 -1.000000 -0.000333 0.647542 -0.360607 -0.671255
0.000000 -1.000000 -0.000333 0.000000 0.000000 -1.000000
0.000000 0.372761 -0.000333 0.000000 0.202918 -0.979186
0.960107 0.372760 0.565249 0.767724 0.271401 0.580401
0.582431 1.000000 0.409363 0.389752 0.876003 0.283975
0.507604 1.000000 0.512063 0.261849 0.845241 0.465804
0.653542 0.372760 0.986010 0.417402 0.290017 0.861171
3.119281 -0.949260 -0.942804 -0.063997 0.588244 -0.806116
1.240349 0.372760 0.180615 0.262795 0.224219 0.938414
3.119281 -0.949260 -0.761855 0.478072 0.367748 0.797601
0.000000 1.000000 0.409363 0.000000 1.000000 0.000000
0.000000 1.000000 0.512063 0.000000 0.895199 0.445601
0.805783 -4.284117 -0.000335 0.720420 -0.286630 -0.631519
0.805782 -4.284118 0.180614 0.811640 -0.323283 0.486526
0.000000 -5.383713 0.180614 0.000000 -0.851650 0.524064
0.000000 -5.383713 -0.000335 0.000000 -0.826472 -0.562944
0.650832 1.000000 0.315481 0.423139 0.787500 0.448073
0.650832 1.000000 0.271315 0.302591 0.832789 -0.463515
0.000000 1.000000 0.271315 0.000000 0.835871 -0.548875
0.000000 1.000000 0.315481 0.000000 1.000000 0.000000
0.000000 -2.156063 -0.000333 0.000000 0.000000 -1.000000
1.125746 -1.866080 -0.000333 0.746483 -0.092563 -0.658925
1.125746 -1.542580 0.180615 0.875484 -0.121464 0.467666
3.119281 -0.949260 -0.761855 0.000000 0.447188 0.894406
3.457423 -0.949261 -0.761854 0.577349 0.577319 0.577349
3.457423 -0.949260 -0.942803 0.577349 0.577349 -0.577319
1.240348 -0.560630 0.180615 0.459212 -0.076998 0.884976
3.119281 -2.322021 -0.942804 -0.983123 -0.174444 -0.054781
3.119280 -1.882651 -0.761855 0.005219 -0.100833 0.994873
1.240348 -0.560630 0.180615 0.186071 0.000000 0.982513
3.119280 -1.882651 -0.761855 0.111209 0.000000 0.993774
1.240349 0.372760 0.180615 0.550462 0.294992 0.780999
0.000000 0.372761 0.986010 0.000000 0.317911 0.948088
0.000000 -1.000000 0.986010 0.000000 -0.062502 0.998016
0.556329 -1.000001 0.986010 0.426160 -0.087710 0.900357
0.845504 -1.630241 0.498033 0.689383 -0.138829 0.710929
0.960107 -0.770461 0.565249 0.785150 -0.075198 0.614704
0.538940 -1.726136 0.845265 0.472945 -0.167028 0.865078
0.650832 1.000000 0.315481 0.000000 0.000000 1.000000
3.457423 -1.882651 -0.761854 0.707083 0.000000 0.707083
3.457423 -2.322021 -0.942803 0.999969 0.000000 0.000000
3.119280 -2.321895 -0.761855 -0.577380 -0.577105 0.577502
3.457423 -2.321895 -0.761854 0.577380 -0.577105 0.577532
3.182715 -2.321919 -0.795800 -0.301492 -0.904294 0.302133
3.393988 -2.321919 -0.795800 0.301492 -0.904294 0.302133
3.119281 -2.322021 -0.942804 -0.577197 -0.577197 0.577593
3.457423 -2.322021 -0.942803 0.577197 -0.577197 0.577593
3.182715 -3.672926 -0.794866 -0.577349 -0.576922 0.577746
3.393988 -3.672926 -0.794866 0.577349 -0.576922 0.577746
3.182715 -2.321997 -0.908858 -0.301492 -0.904721 -0.300851
3.393988 -2.321997 -0.908857 0.301492 -0.904721 -0.300851
3.242466 -3.672948 -0.826840 -0.301492 -0.904324 0.302133
3.334237 -3.672948 -0.826840 0.301492 -0.904324 0.302133
3.393988 -3.673004 -0.907923 0.577349 -0.577746 -0.576922
3.182715 -3.673004 -0.907923 -0.577319 -0.577746 -0.576952
3.242466 -3.945849 -0.826652 -0.577349 -0.576922 0.577746
3.334237 -3.945849 -0.826652 0.577349 -0.576922 0.577746
3.242466 -3.672982 -0.875949 -0.301492 -0.904721 -0.300882
3.334237 -3.672982 -0.875949 0.301492 -0.904721 -0.300882
3.242466 -3.945883 -0.875761 -0.577349 -0.577746 -0.576922
3.334237 -3.945883 -0.875761 0.577349 -0.577746 -0.576922
0.525541 -4.030690 0.310370 0.525040 -0.163671 0.835170
0.000000 -5.130285 0.310370 0.000000 -0.245430 0.969390
0.000000 -1.700656 0.948491 0.000000 -0.156743 0.987610
-1.240349 0.372761 -0.000333 -0.347789 0.612079 -0.710166
-1.240349 -1.000000 -0.000333 -0.647542 -0.360607 -0.671255
-0.960107 0.372760 0.565249 -0.767724 0.271401 0.580401
-0.653542 0.372760 0.986010 -0.417402 0.290017 0.861171
-0.507604 1.000000 0.512063 -0.261849 0.845241 0.465804
-0.582431 1.000000 0.409363 -0.389752 0.876003 0.283975
-3.119281 -0.949260 -0.942804 0.063997 0.588244 -0.806116
-3.119281 -0.949260 -0.761855 -0.478072 0.367748 0.797601
-1.240349 0.372760 0.180615 -0.262795 0.224219 0.938414
-0.805783 -4.284117 -0.000335 -0.720420 -0.286630 -0.631519
-0.805782 -4.284118 0.180614 -0.811640 -0.323283 0.486526
-0.650832 1.000000 0.315481 -0.423139 0.787500 0.448073
-0.650832 1.000000 0.271315 -0.302591 0.832789 -0.463515
-1.125746 -1.866080 -0.000333 -0.746483 -0.092563 -0.658925
-1.125746 -1.542580 0.180615 -0.875484 -0.121464 0.467666
-3.457423 -0.949260 -0.942803 -0.577349 0.577349 -0.577319
-3.457423 -0.949261 -0.761854 -0.577349 0.577319 0.577349
-3.119281 -0.949260 -0.761855 0.000000 0.447188 0.894406
-1.240348 -0.560630 0.180615 -0.459212 -0.076998 0.884976
-3.119280 -1.882651 -0.761855 -0.005219 -0.100833 0.994873
-3.119281 -2.322021 -0.942804 0.983123 -0.174444 -0.054781
-3.119280 -1.882651 -0.761855 -0.111209 0.000000 0.993774
-1.240348 -0.560630 0.180615 -0.186071 0.000000 0.982513
-1.240349 0.372760 0.180615 -0.550462 0.294992 0.780999
-0.556329 -1.000001 0.986010 -0.426160 -0.087710 0.900357
-0.845504 -1.630241 0.498033 -0.689383 -0.138829 0.710929
-0.538940 -1.726136 0.845265 -0.472945 -0.167028 0.865078
-0.960107 -0.770461 0.565249 -0.785150 -0.075198 0.614704
-0.650832 1.000000 0.315481 0.000000 0.000000 1.000000
-3.457423 -2.322021 -0.942803 -0.999969 0.000000 0.000000
-3.457423 -1.882651 -0.761854 -0.707083 0.000000 0.707083
-3.457423 -2.321895 -0.761854 -0.577380 -0.577105 0.577532
-3.119280 -2.321895 -0.761855 0.577380 -0.577105 0.577502
-3.393988 -2.321919 -0.795800 -0.301492 -0.904294 0.302133
-3.182715 -2.321919 -0.795800 0.301492 -0.904294 0.302133
-3.119281 -2.322021 -0.942804 0.577197 -0.577197 0.577593
-3.457423 -2.322021 -0.942803 -0.577197 -0.577197 0.577593
-3.393988 -3.672926 -0.794866 -0.577349 -0.576922 0.577746
-3.182715 -3.672926 -0.794866 0.577349 -0.576922 0.577746
-3.182715 -2.321997 -0.908858 0.301492 -0.904721 -0.300851
-3.393988 -2.321997 -0.908857 -0.301492 -0.904721 -0.300851
-3.334237 -3.672948 -0.826840 -0.301492 -0.904324 0.302133
-3.242466 -3.672948 -0.826840 0.301492 -0.904324 0.302133
-3.182715 -3.673004 -0.907923 0.577319 -0.577746 -0.576952
-3.393988 -3.673004 -0.907923 -0.577349 -0.577746 -0.576922
-3.334237 -3.945849 -0.826652 -0.577349 -0.576922 0.577746
-3.242466 -3.945849 -0.826652 0.577349 -0.576922 0.577746
-3.242466 -3.672982 -0.875949 0.301492 -0.904721 -0.300882
-3.334237 -3.672982 -0.875949 -0.301492 -0.904721 -0.300882
-3.334237 -3.945883 -0.875761 -0.577349 -0.577746 -0.576922
-3.242466 -3.945883 -0.875761 0.577349 -0.577746 -0.576922
-0.525541 -4.030690 0.310370 -0.525040 -0.163671 0.835170
0.000000 -4.853053 0.452315 0.000000 -0.191107 0.981536
0.218978 -3.753458 0.452315 0.470260 -0.180975 0.863765
-0.218978 -3.753458 0.452315 -0.470260 -0.180975 0.863765
3 0 1 2
3 0 2 3
3 4 5 6
3 4 6 7
3 8 0 9
3 8 9 10
3 5 11 12
3 5 12 6
3 13 14 15
3 13 15 16
3 17 18 19
3 17 19 20
3 21 22 13
3 21 13 16
3 22 23 14
3 22 14 13
3 8 24 25
3 8 25 26
3 27 1 28
3 27 28 29
3 9 30 31
3 9 31 10
3 18 17 32
3 18 32 0
3 32 27 30
3 32 30 9
3 27 29 31
3 27 31 30
3 7 33 34
3 7 34 35
3 36 37 35
3 36 35 38
3 18 0 3
3 18 3 19
3 37 4 7
3 37 7 35
3 1 0 8
3 1 8 28
3 29 24 10
3 29 10 31
3 17 32 9
3 17 9 39
3 6 12 33
3 6 33 7
3 26 25 40
3 26 40 41
3 28 8 26
3 28 26 41
3 40 29 42
3 40 42 43
3 24 29 40
3 24 40 25
3 43 42 44
3 43 44 45
3 29 28 46
3 29 46 42
3 41 40 43
3 41 43 47
3 28 41 47
3 28 47 46
3 45 44 48
3 45 48 49
3 42 46 50
3 42 50 44
3 47 43 45
3 47 45 51
3 46 47 51
3 46 51 50
3 49 48 52
3 49 52 53
3 50 51 54
3 50 54 55
3 44 50 55
3 44 55 48
3 51 45 49
3 51 49 54
3 53 52 56
3 53 56 57
3 48 55 58
3 48 58 52
3 54 49 53
3 54 53 59
3 55 54 59
3 55 59 58
3 56 60 61
3 56 61 57
3 59 53 57
3 59 57 61
3 58 59 61
3 58 61 60
3 52 58 60
3 52 60 56
3 32 17 5
3 32 5 4
3 17 20 11
3 17 11 5
3 15 14 62
3 15 62 63
3 23 27 37
3 23 37 36
3 27 32 4
3 27 4 37
3 1 27 23
3 1 23 22
3 14 23 36
3 14 36 62
3 2 1 22
3 2 22 21
3 35 34 64
3 35 64 38
3 65 3 2
3 65 2 66
3 67 68 69
3 67 69 70
3 71 72 73
3 71 73 65
3 70 69 12
3 70 12 11
3 74 16 15
3 74 15 75
3 76 20 19
3 76 19 77
3 21 16 74
3 21 74 78
3 78 74 75
3 78 75 79
3 71 80 81
3 71 81 82
3 83 84 85
3 83 85 66
3 73 72 86
3 73 86 87
3 77 65 88
3 77 88 76
3 88 73 87
3 88 87 83
3 83 87 86
3 83 86 84
3 68 89 34
3 68 34 33
3 90 91 89
3 90 89 92
3 77 19 3
3 77 3 65
3 92 89 68
3 92 68 67
3 66 85 71
3 66 71 65
3 84 86 72
3 84 72 82
3 76 93 73
3 76 73 88
3 69 68 33
3 69 33 12
3 80 94 95
3 80 95 81
3 85 94 80
3 85 80 71
3 95 96 97
3 95 97 84
3 82 81 95
3 82 95 84
3 96 98 99
3 96 99 97
3 84 97 100
3 84 100 85
3 94 101 96
3 94 96 95
3 85 100 101
3 85 101 94
3 98 102 103
3 98 103 99
3 97 99 104
3 97 104 100
3 101 105 98
3 101 98 96
3 100 104 105
3 100 105 101
3 102 106 107
3 102 107 103
3 104 108 109
3 104 109 105
3 99 103 108
3 99 108 104
3 105 109 102
3 105 102 98
3 106 110 111
3 106 111 107
3 103 107 112
3 103 112 108
3 109 113 106
3 109 106 102
3 108 112 113
3 108 113 109
3 111 110 114
3 111 114 115
3 113 114 110
3 113 110 106
3 112 115 114
3 112 114 113
3 107 111 115
3 107 115 112
3 88 67 70
3 88 70 76
3 76 70 11
3 76 11 20
3 15 63 116
3 15 116 75
3 79 90 92
3 79 92 83
3 83 92 67
3 83 67 88
3 66 78 79
3 66 79 83
3 75 116 90
3 75 90 79
3 2 21 78
3 2 78 66
3 89 91 64
3 89 64 34
3 38 64 117
3 38 117 118
3 63 62 118
3 63 118 117
3 62 36 38
3 62 38 118
3 91 119 117
3 91 117 64
3 63 117 119
3 63 119 116
3 116 119 91
3 116 91 90
