ply
format ascii 1.0
comment VCGLIB generated
element vertex 441
property float x
property float y
property float z
property float nx
property float ny
property float nz
property float texture_u
property float texture_v
element face 806
property list uchar int vertex_indices
end_header
-0.001684 0.001169 0.011425 0.6874377 5.012158 0.3445682 0.211695 0.030905
-0.002812 0.000255 0.013604 -4.238699 1.98548 0.6042652 0.211700 0.030936
0.001067 0.000681 0.026573 -3.882707 1.950437 1.349835 0.238672 0.030932
0.00286 0.000954 0.027692 0.5660616 4.930521 -0.04614231 0.238668 0.030903
-0.001987 -0.00119 0.013939 -3.268708 -3.687965 0.3846375 0.211700 0.030936
0.000873 -0.000568 0.026193 -2.899752 -3.674164 0.9366745 0.238672 0.030932
-0.000396 -0.001169 0.012148 2.160362 -4.409338 -0.03121009 0.211695 0.030905
0.002041 -0.000954 0.025786 2.215416 -4.458402 -0.6982159 0.238668 0.030903
-0.000146 0.000467 0.011635 4.567482 1.011925 -0.01538906 0.211692 0.030885
0.003455 -5.6e-05 0.027177 4.298372 0.750437 -1.263605 0.238665 0.030885
-0.001578 0.000889 -0.009135 -2.22759 0.9254767 -2.864448 0.494311 0.175584
0.000119 0.001438 -0.009151 0.1745039 2.387655 -2.797444 0.494311 0.175584
-0.000397 0 -0.009145 -0.04653641 -0.002807105 -4.999783 0.494311 0.175584
-0.001591 -0.000889 -0.009134 -1.576239 -1.81882 -2.848828 0.494311 0.175584
8.6e-05 -0.001438 -0.009149 1.243336 -2.061401 -2.763845 0.494311 0.175584
0.001139 0 -0.00916 2.342113 0.5480135 -2.735159 0.494311 0.175584
0.01106 0.001135 0.070504 0.6313893 2.407359 2.462216 0.495925 0.152008
0.009971 0.00029 0.070555 -2.019156 1.246584 2.55914 0.495926 0.152008
0.011091 -3.8e-05 0.070502 0.2356458 0.001675945 4.994442 0.495926 0.152008
0.010417 -0.001008 0.070535 -1.712344 -1.625162 2.57203 0.495926 0.152008
0.011809 -0.000966 0.070469 1.131604 -2.244831 2.478039 0.495925 0.152008
0.0122 0.000359 0.07045 2.561094 0.2557532 2.411537 0.495925 0.152008
0.011059 0.000749 0.06366 -0.5451643 1.147964 -2.589926 0.495925 0.152008
0.010337 0.000186 0.063745 -1.354367 0.08500496 -2.579913 0.495926 0.152008
0.008584 0.000605 0.064678 -3.682123 0.7130996 -1.994411 0.495926 0.152008
0.010848 0.002364 0.064425 -0.5929856 3.616067 -2.103992 0.495926 0.152008
0.010631 -0.000678 0.063712 -0.6635989 -1.078642 -2.615459 0.495926 0.152008
0.009503 -0.002099 0.064576 -1.906058 -3.030256 -2.053843 0.495926 0.152008
0.011553 -0.00065 0.063602 0.7780594 -0.7906434 -2.652328 0.495925 0.152008
0.012391 -0.002011 0.064256 2.204299 -2.644387 -2.198138 0.495926 0.152008
0.011813 0.000232 0.063571 0.8354668 0.7237468 -2.636244 0.495926 0.152008
0.013211 0.000747 0.064159 3.148558 1.469258 -2.229411 0.495925 0.152008
-0.002351 0.001397 0.002303 -2.452411 0.3303807 -0.04912718 0.187308 0.030941
-0.00237 -0.001397 0.002305 -1.246825 -2.238475 0.07447785 0.187308 0.030941
0.000264 -0.00226 0.00228 1.69906 -1.715826 0.3437733 0.187302 0.030907
0.001918 -0 0.002263 2.171576 1.167964 0.4429384 0.187298 0.030885
0.000316 0.00226 0.002278 -0.4193889 2.470887 0.1615154 0.187302 0.030907
0.00774 0.000982 0.0419 0.2728049 4.832407 -0.1568863 0.267666 0.030901
0.008806 0.000364 0.041047 4.407815 0.9369138 -1.267745 0.267663 0.030885
0.008249 -0.000632 0.040274 2.658355 -4.30323 -0.6680464 0.267666 0.030901
0.007638 -0.000998 0.041522 -2.584978 -3.957103 0.9015752 0.267670 0.030927
0.007033 0.00014 0.042177 -4.202072 1.498301 1.215015 0.267670 0.030927
0.0109 0.000812 0.055974 0.5071993 4.844523 -0.06910568 0.295000 0.030899
0.011484 -0 0.055871 4.692981 0.8776571 -0.5566216 0.294998 0.030885
0.010748 -0.000812 0.054211 2.597441 -4.369545 -0.2430946 0.295000 0.030899
0.009803 -0.000502 0.054383 -3.030005 -3.903792 0.4578711 0.295004 0.030922
0.009956 0.000502 0.056142 -4.412491 1.84737 0.5704609 0.295004 0.030922
0.011059 0.000749 0.06366 0.9280912 2.317703 -0.02427758 0.313193 0.030898
0.011813 0.000232 0.063571 2.446441 -0.2477248 -0.1224204 0.313190 0.030885
0.011553 -0.00065 0.063602 0.5941186 -2.462285 -0.02425488 0.313193 0.030898
0.010631 -0.000678 0.063712 -2.108957 -1.320644 0.1347523 0.313196 0.030919
0.010337 0.000186 0.063745 -1.914967 1.603373 0.1370509 0.313196 0.030919
-0.002351 0.001397 0.002303 -1.189506 1.454529 1.980797 0.494311 0.175584
0.000316 0.00226 0.002278 1.081403 1.645132 1.849234 0.494311 0.175584
0.00084 0.004444 2.8e-05 1.479979 3.946542 1.132378 0.494311 0.175584
-0.004405 0.002747 7.9e-05 -3.246517 2.569438 1.16471 0.494311 0.175584
-0.00237 -0.001397 0.002305 -1.696324 -0.7108431 2.013214 0.494311 0.175584
-0.004442 -0.002747 8.2e-05 -3.406234 -2.337069 1.119905 0.494311 0.175584
0.000264 -0.00226 0.00228 0.1899285 -1.914871 1.901142 0.494311 0.175584
0.000737 -0.004444 3.3e-05 1.249661 -4.063665 1.045797 0.494311 0.175584
0.001918 -0 0.002263 1.9557 -0.48297 1.790254 0.494311 0.175584
0.00399 0 0 4.31351 -0.1377299 1.061691 0.494311 0.175584
0.020169 -0.006553 0.077714 -2.217432 -1.130978 0.4290411 0.484084 0.278556
0.020487 -0.006683 0.076415 -1.095663 -2.491434 -0.946401 0.484084 0.278556
0.026734 -0.007437 0.079331 -1.407041 -3.169879 3.987583 0.484084 0.278556
0.026666 -0.007563 0.078117 -0.2132918 -1.949299 -3.447517 0.484084 0.278556
0.025299 -0.004169 0.079711 -0.09180701 0.8854442 3.348433 0.484084 0.278556
0.029478 -0.002122 0.078897 1.464999 0.6686397 1.365035 0.484084 0.278556
0.019523 -0.002675 0.076647 -2.113786 0.7830057 5.07078 0.484084 0.278556
0.02516 -0.0003 0.077911 -0.4527608 3.054319 2.312436 0.484084 0.278556
0.025351 -0.000423 0.076687 2.199532 3.040466 -2.683006 0.484084 0.278556
0.028808 -0.00232 0.077535 1.604199 -0.6748358 -2.105963 0.484084 0.278556
0.025507 -0.00441 0.078263 1.387433 -1.31916 -3.524471 0.484084 0.278556
0.020415 -0.003389 0.07492 1.256735 -1.751713 -5.094023 0.484084 0.278556
0.011145 -0.000812 0.069101 0.3176207 -0.409382 -2.41089 0.484084 0.278556
0.011153 -0.000684 0.070041 -3.362378 1.246329 2.008676 0.484084 0.278556
0.016517 0.001386 0.070682 0.0875254 1.885596 -0.8846536 0.484084 0.278556
0.017878 0.000393 0.073319 -1.086952 3.965701 2.123552 0.484084 0.278556
0.014453 -0.004844 0.071754 -0.2596449 -2.061224 -1.523117 0.484084 0.278556
0.013604 -0.005386 0.072839 -0.4746436 -1.195469 -0.00639683 0.484084 0.278556
0.016251 -0.002175 0.072197 2.48355 -2.302632 -4.933546 0.484084 0.278556
0.015418 -0.00164 0.073787 -3.124054 1.136843 4.257425 0.484084 0.278556
0.01644 -0.004674 0.07363 0.0144414 -1.911929 -0.3466147 0.484084 0.278556
0.029948 -0.010216 0.078 -0.4302119 -1.382439 0.01280767 0.484084 0.278556
0.02943 -0.005886 0.07784 -0.8084099 -0.2784053 -4.909146 0.484084 0.278556
0.035686 -0.008162 0.07643 0.3580612 -0.08423007 -0.2032773 0.484084 0.278556
0.02975 -0.005741 0.07925 1.340908 0.1828972 4.50663 0.484084 0.278556
0.032067 -0.003375 0.077086 0.1857761 1.552579 -0.4866277 0.484084 0.278556
0.019888 -0.006843 0.076238 0.392675 -1.186662 0.2795841 0.484084 0.278556
0.027051 0.000553 0.068111 0.4051903 -2.25557 1.390685 0.484084 0.278556
0.026762 0.000736 0.067269 -1.010689 -3.09387 -1.012938 0.484084 0.278556
0.031633 0.002327 0.065027 0.3101656 -2.747234 -1.250723 0.484084 0.278556
0.022669 0.002972 0.068637 0.09944668 -0.239457 4.721228 0.484084 0.278556
0.029762 0.004771 0.068068 2.145212 0.80761 4.843688 0.484084 0.278556
0.024193 0.005627 0.067979 -0.4289154 2.839365 3.302157 0.484084 0.278556
0.02845 0.008171 0.066238 0.4111163 1.307454 -0.3047425 0.484084 0.278556
0.023883 0.005786 0.067112 -0.8596543 1.477459 -2.448723 0.484084 0.278556
0.022437 0.002914 0.06768 -0.8084685 -0.4227536 -5.780545 0.484084 0.278556
0.028943 0.004729 0.066608 -1.945532 0.1830904 -4.100733 0.484084 0.278556
0.017989 0.005247 0.067063 -0.02580404 0.4022696 -2.106799 0.484084 0.278556
0.010501 -1.1e-05 0.069736 -2.527544 -0.1515364 -1.024057 0.484084 0.278556
0.018449 0.005496 0.068179 0.8693751 1.604735 1.643707 0.484084 0.278556
0.011163 0.000125 0.070703 -0.3368587 0.1696205 2.501868 0.484084 0.278556
0.017199 -0.002447 0.069489 0.9840176 -3.116549 1.903522 0.484084 0.278556
0.016587 -0.002544 0.067626 -0.2872955 -1.822408 -1.899118 0.484084 0.278556
0.01947 -0.000759 0.068319 1.202881 -2.453026 2.115981 0.484084 0.278556
0.025821 0.000297 0.067351 1.064752 -0.3353714 -0.5307545 0.484084 0.278556
0.017593 0.001755 0.069854 0.6874866 0.1583108 4.468841 0.484084 0.278556
0.019176 -0.000492 0.067212 0.8617176 -1.883669 -3.601549 0.484084 0.278556
0.017213 0.001669 0.068111 0.8241215 0.369909 -5.183622 0.484084 0.278556
0.014015 0.000784 0.068188 -1.028325 0.05647016 -4.694608 0.484084 0.278556
0.014418 0.000918 0.069768 0.7849116 0.4018967 4.618771 0.484084 0.278556
0.033586 0.005696 0.064304 4.462074 1.023525 2.680861 0.484084 0.278556
0.034868 0.002187 0.061559 0.329542 -0.03100497 -0.6404594 0.484084 0.278556
0.030121 0.008752 0.065652 -1.137559 1.555909 0.2370138 0.484084 0.278556
0.032641 0.007554 0.06194 -0.2755031 1.53537 -0.5670027 0.484084 0.278556
0.031699 0.00517 0.062991 -4.556163 -1.002829 -3.420963 0.484084 0.278556
0.035707 0.006321 0.056018 0.04016352 0.3572074 -0.5085326 0.484084 0.278556
0.034254 0.002684 0.060947 -0.03264013 -1.182078 0.3611809 0.484084 0.278556
0.020034 0.005432 0.067778 -1.023284 2.137665 0.2192326 0.484084 0.278556
0.021906 0.007373 0.070655 0.6106905 -2.276519 0.2853906 0.484084 0.278556
0.021215 0.007657 0.069336 1.29819 -2.208267 -1.42952 0.484084 0.278556
0.024633 0.013472 0.068668 4.626599 -1.720924 2.970483 0.484084 0.278556
0.024418 0.012888 0.067711 0.2461304 -1.533982 -3.277757 0.484084 0.278556
0.021998 0.013457 0.070704 0.9632462 1.059852 3.28168 0.484084 0.278556
0.020827 0.017338 0.069488 0.6365207 2.245941 0.7368354 0.484084 0.278556
0.017928 0.00825 0.072013 1.550441 -0.2037244 5.182884 0.484084 0.278556
0.018007 0.014548 0.071141 -1.712193 1.621341 3.335921 0.484084 0.278556
0.017485 0.014449 0.070085 -2.975323 2.57776 -1.719117 0.484084 0.278556
0.020367 0.016693 0.068937 -0.5778115 0.9860811 -2.924074 0.484084 0.278556
0.021363 0.013431 0.068869 -0.2512013 0.2955064 -4.54458 0.484084 0.278556
0.017764 0.008473 0.069341 -0.9382621 -0.8736468 -5.884859 0.484084 0.278556
0.010618 0.000344 0.069514 -1.153388 -0.66808 -3.392087 0.484084 0.278556
0.010395 -0.000153 0.070533 -0.4537017 -2.325709 2.810222 0.484084 0.278556
0.01032 0.006213 0.069258 -1.930748 0.4828205 -0.470435 0.484084 0.278556
0.013282 0.007391 0.070347 -2.2835 1.217806 3.97557 0.484084 0.278556
0.01589 0.001813 0.068322 1.020945 -1.781336 -1.367357 0.484084 0.278556
0.016007 0.001804 0.069134 1.501573 -1.666129 0.7301807 0.484084 0.278556
0.014313 0.004711 0.068931 0.0595618 -0.04438125 -5.936862 0.484084 0.278556
0.014507 0.004507 0.071186 0.2406947 -1.169874 5.014089 0.484084 0.278556
0.017259 0.004059 0.069309 1.887291 -1.536377 -0.4634393 0.484084 0.278556
0.027085 0.014892 0.065518 1.157847 -0.8848161 -0.1683272 0.484084 0.278556
0.023767 0.016253 0.067552 -2.087333 -1.608196 -4.025998 0.484084 0.278556
0.02643 0.020719 0.062228 -0.04678458 0.1837093 -0.3770612 0.484084 0.278556
0.024492 0.016968 0.068692 2.229624 1.798845 3.180724 0.484084 0.278556
0.02215 0.018921 0.06663 -1.46692 0.7643737 0.01435396 0.484084 0.278556
0.020949 0.006886 0.069303 1.399862 -0.2321174 -0.4681545 0.484084 0.278556
0.00479 -0.013414 0.075001 -2.73015 1.316381 1.437261 0.484084 0.278556
0.004763 -0.013556 0.074025 -2.253475 1.304941 -1.499587 0.484084 0.278556
0.0045 -0.019098 0.075288 -2.048369 -0.3763398 -1.153819 0.484084 0.278556
0.008559 -0.010184 0.074914 -1.378342 2.786725 4.160446 0.484084 0.278556
0.007034 -0.016742 0.077734 -1.3569 0.4967727 5.250241 0.484084 0.278556
0.01066 -0.012654 0.076061 2.099991 0.4209618 2.50858 0.484084 0.278556
0.010112 -0.017619 0.077408 1.070295 -1.314226 -0.09188811 0.484084 0.278556
0.010467 -0.012871 0.075085 2.600219 -2.314401 -2.58976 0.484084 0.278556
0.00895 -0.011028 0.07313 0.9290034 -3.016342 -4.801876 0.484084 0.278556
0.007489 -0.016853 0.076419 2.125429 -1.110906 -3.912631 0.484084 0.278556
0.013165 -0.008556 0.071963 0.9608345 -0.9475117 -1.593675 0.484084 0.278556
0.011375 -2.8e-05 0.06938 1.23763 1.331388 -2.395086 0.484084 0.278556
0.012884 -0.008178 0.0731 0.8424507 -0.2197576 2.28796 0.484084 0.278556
0.011264 0.000195 0.069905 0.04061201 1.544435 1.559703 0.484084 0.278556
0.006493 -0.004103 0.070654 -3.486683 1.456193 0.6404046 0.484084 0.278556
0.006976 -0.00462 0.068998 -0.9607008 -0.06180631 -2.430218 0.484084 0.278556
0.006924 -0.006966 0.071407 -3.09408 1.41909 1.450681 0.484084 0.278556
0.004723 -0.011297 0.073762 -1.437681 -0.8605992 -0.003707677 0.484084 0.278556
0.009822 -0.005481 0.072749 -0.7942009 2.326819 3.777906 0.484084 0.278556
0.007393 -0.007653 0.070106 -1.886353 -1.454278 -3.249139 0.484084 0.278556
0.010404 -0.00653 0.070526 0.5927218 -3.11083 -3.85041 0.484084 0.278556
0.010811 -0.003188 0.069949 1.47353 -1.116105 -4.635986 0.484084 0.278556
0.010606 -0.00286 0.070907 -0.6536015 1.961982 4.226388 0.484084 0.278556
0.00681 -0.021783 0.076261 -1.917295 -2.413066 4.847694 0.484084 0.278556
0.003601 -0.023272 0.074004 0.1032499 -0.709313 -0.3030897 0.484084 0.278556
0.010778 -0.019611 0.077596 1.333 0.640885 0.2904575 0.484084 0.278556
0.009919 -0.023536 0.07517 0.7380664 -0.300211 0.009381235 0.484084 0.278556
0.007161 -0.021277 0.074971 1.529971 1.968075 -5.343299 0.484084 0.278556
0.007297 -0.027711 0.071824 0.05129305 -0.3159374 -0.2088634 0.484084 0.278556
0.004455 -0.023543 0.073391 -0.9581469 0.6069112 -0.08007583 0.484084 0.278556
0.012909 -0.009678 0.073542 2.584449 -0.2632397 0.07953542 0.484084 0.278556
0.003825 0.009887 0.07421 2.553275 0.4813456 0.9535694 0.484084 0.278556
0.003905 0.009908 0.073089 2.13156 1.483003 -0.8237173 0.484084 0.278556
-0.001743 0.013648 0.074293 1.851362 3.476297 3.787539 0.484084 0.278556
-0.001414 0.013501 0.07311 1.93812 1.378424 -3.705234 0.484084 0.278556
-0.001982 0.010192 0.075749 -1.201188 0.1051897 3.193504 0.484084 0.278556
-0.005595 0.00959 0.073485 -2.352638 0.4694864 0.7325983 0.484084 0.278556
0.003222 0.005866 0.074465 0.9694862 -0.3357857 5.0491 0.484084 0.278556
-0.003393 0.006053 0.074414 -1.222659 -2.147012 2.269203 0.484084 0.278556
-0.00313 0.006191 0.072698 -2.777278 -1.613482 -3.115131 0.484084 0.278556
-0.005196 0.009419 0.072904 -0.9784675 0.5613821 -2.805513 0.484084 0.278556
-0.00193 0.01031 0.073035 -0.1129797 0.9543493 -4.338751 0.484084 0.278556
0.003001 0.006251 0.072779 0.8786387 1.471619 -5.463172 0.484084 0.278556
0.011361 -0.000653 0.068415 0.1479452 -0.02166253 -2.347206 0.484084 0.278556
0.010972 -0.000506 0.069821 2.143863 -1.950133 3.310105 0.484084 0.278556
0.005121 0.000115 0.069364 -0.9886946 -2.051297 -1.028178 0.484084 0.278556
0.003778 0.001718 0.071723 -0.8410716 -3.075571 2.518104 0.484084 0.278556
0.009541 0.005302 0.069836 1.505996 1.428556 -1.040769 0.484084 0.278556
0.010101 0.005341 0.071303 1.165101 0.9416613 0.4968008 0.484084 0.278556
0.006533 0.003473 0.070272 -0.5616297 2.480583 -5.307574 0.484084 0.278556
0.006677 0.003087 0.071628 1.820404 -1.481546 5.128422 0.484084 0.278556
0.007272 0.006097 0.07152 0.6075933 1.46188 0.001606405 0.484084 0.278556
-0.003469 0.016495 0.072097 0.8942473 1.262279 -0.04419184 0.484084 0.278556
-0.004486 0.012995 0.07223 1.6328 -0.6089988 -4.649236 0.484084 0.278556
-0.009199 0.017531 0.069023 -0.2003604 0.1803192 -0.2221586 0.484084 0.278556
-0.004996 0.013241 0.073398 -2.177917 1.482731 4.058439 0.484084 0.278556
-0.007651 0.011808 0.07137 -0.8773076 -1.131177 -0.3615806 0.484084 0.278556
0.005488 0.009321 0.072985 0.06111163 1.232924 0.08846779 0.484084 0.278556
-0.002043 -0.004606 0.071358 -0.04853722 2.585489 0.5004174 0.484084 0.278556
-0.00171 -0.004815 0.070364 -0.6253111 2.417667 -1.924401 0.484084 0.278556
-0.006896 -0.009185 0.0702 -3.134053 2.534412 2.205386 0.484084 0.278556
-0.006184 -0.00931 0.069328 0.4838449 2.589661 -4.210671 0.484084 0.278556
-0.003827 -0.010207 0.071902 -0.8173884 -1.224871 3.303883 0.484084 0.278556
-0.003786 -0.014294 0.070185 -1.041208 -2.015965 1.165767 0.484084 0.278556
0.00157 -0.006161 0.072438 -0.7103274 0.3727113 5.367678 0.484084 0.278556
-0.000144 -0.012117 0.07146 1.329814 -1.988971 3.472356 0.484084 0.278556
0.000364 -0.012225 0.070406 1.892787 -3.023739 -1.815511 0.484084 0.278556
-0.003179 -0.013783 0.069309 -0.1776295 -0.6273866 -2.656645 0.484084 0.278556
-0.003371 -0.010114 0.070141 0.1794626 0.3219843 -4.044927 0.484084 0.278556
0.001547 -0.006269 0.070498 0.3434143 0.9673705 -5.834983 0.484084 0.278556
0.01088 0.000287 0.069031 0.6569577 0.4331688 -2.709292 0.484084 0.278556
0.010676 0.000226 0.070425 1.275651 2.052412 3.360381 0.484084 0.278556
0.009181 -0.005885 0.069046 1.833203 -1.186342 -0.4829343 0.484084 0.278556
0.006292 -0.006478 0.070936 2.146924 -1.792661 3.689364 0.484084 0.278556
0.004821 -0.000334 0.06902 -0.8766718 2.010074 -1.47075 0.484084 0.278556
0.004674 -0.00014 0.069687 -0.9541548 1.669733 0.3625093 0.484084 0.278556
0.005645 -0.003421 0.069396 -0.8864173 0.1640908 -5.847619 0.484084 0.278556
0.005701 -0.003297 0.071403 0.2287633 1.308481 5.155735 0.484084 0.278556
0.003168 -0.002347 0.069947 -1.584309 1.82916 -0.6656578 0.484084 0.278556
-0.009454 -0.010129 0.066952 -0.8575002 1.638954 -0.5880656 0.484084 0.278556
-0.005937 -0.011936 0.06769 2.440984 1.67142 -3.876302 0.484084 0.278556
-0.010565 -0.015691 0.063508 -0.1770423 -0.3762482 -0.4607031 0.484084 0.278556
-0.007063 -0.012753 0.069523 -2.489763 -1.801599 3.356112 0.484084 0.278556
-0.005689 -0.015111 0.06744 1.709668 -1.672724 -0.02609281 0.484084 0.278556
-0.001539 -0.003887 0.070177 -1.182585 0.3972518 -0.3357245 0.484084 0.278556
0.017876 -0.014185 0.067543 -1.284771 -1.78402 2.843122 0.484084 0.278556
0.017054 -0.014084 0.066712 -2.62184 -0.4332853 0.4199919 0.484084 0.278556
0.020503 -0.018137 0.064372 -1.267278 -1.126974 -0.6367497 0.484084 0.278556
0.018562 -0.009538 0.068999 -0.1564779 -0.6770699 5.303154 0.484084 0.278556
0.022335 -0.015309 0.066999 1.777606 -2.406404 4.793653 0.484084 0.278556
0.021858 -0.009836 0.067994 2.843008 0.9132426 2.867664 0.484084 0.278556
0.025057 -0.013201 0.06544 1.363659 -0.2427525 -0.5797162 0.484084 0.278556
0.021768 -0.00938 0.066262 1.053828 1.202204 -2.735976 0.484084 0.278556
0.018285 -0.00918 0.067051 -0.9640405 0.8333708 -5.693056 0.484084 0.278556
0.022109 -0.014774 0.066144 -0.5204746 1.659137 -4.293726 0.484084 0.278556
0.019038 -0.004226 0.067061 0.04330472 0.2576482 -1.986319 0.484084 0.278556
0.012196 0.000365 0.070448 -0.9960463 2.171523 -1.002008 0.484084 0.278556
0.019163 -0.004489 0.068017 2.113693 -0.3667566 1.420905 0.484084 0.278556
0.012272 0.00029 0.070998 -0.08984818 0.7106247 1.964055 0.484084 0.278556
0.012147 -0.005665 0.069291 -3.226305 -2.264385 2.695297 0.484084 0.278556
0.011287 -0.005468 0.067954 -1.507127 -0.1160409 -1.08353 0.484084 0.278556
0.013976 -0.007606 0.068407 -1.584642 -2.109966 2.763646 0.484084 0.278556
0.016286 -0.01307 0.067016 -0.2591884 -1.109743 -0.1931176 0.484084 0.278556
0.015649 -0.004953 0.06931 0.6658228 -0.9983553 4.551872 0.484084 0.278556
0.013831 -0.007334 0.066919 -1.758913 -0.9151098 -2.53249 0.484084 0.278556
0.015497 -0.004694 0.068216 0.1268041 0.05492467 -4.986516 0.484084 0.278556
0.013779 -0.002132 0.069231 -0.6709288 1.642089 -4.591825 0.484084 0.278556
0.01407 -0.002469 0.070543 0.8355239 -1.073444 4.543442 0.484084 0.278556
0.024197 -0.018357 0.063259 2.536173 -4.280618 2.630094 0.484084 0.278556
0.021629 -0.020516 0.061208 0.3910928 -0.1662336 -0.7667302 0.484084 0.278556
0.026448 -0.01434 0.0649 0.4851821 1.126078 0.3890477 0.484084 0.278556
0.026207 -0.016808 0.060866 0.4169485 0.3014461 -0.238664 0.484084 0.278556
0.023731 -0.017671 0.062806 -2.838335 3.978841 -3.291888 0.484084 0.278556
0.02515 -0.020105 0.055527 0.03422016 0.01163423 -0.2406785 0.484084 0.278556
0.021964 -0.020016 0.060265 -0.9405305 -0.2334815 0.5179588 0.484084 0.278556
0.020436 -0.005585 0.067488 1.509206 2.085978 0.1490909 0.484084 0.278556
0.002401 0.004792 0.077746 1.984122 1.625438 0.06427029 0.484084 0.278556
0.001904 0.00463 0.076345 0.5718331 2.330244 -1.427921 0.484084 0.278556
-0.004155 0.004762 0.079932 1.035954 3.870442 3.433928 0.484084 0.278556
-0.004233 0.004732 0.078133 -0.1975058 1.657081 -3.878432 0.484084 0.278556
-0.002138 0.001598 0.080361 0.5685249 -0.7744504 3.360079 0.484084 0.278556
-0.005868 -0.001246 0.079891 -1.236703 -0.6580639 1.348897 0.484084 0.278556
0.003738 0.000884 0.077085 2.548335 0.2377295 4.806575 0.484084 0.278556
-0.001315 -0.002662 0.079158 0.7489395 -2.003429 1.593671 0.484084 0.278556
-0.001494 -0.001955 0.077917 -2.070468 -3.337233 -3.178126 0.484084 0.278556
-0.005716 -0.001178 0.078298 -1.338909 -0.2377623 -1.872854 0.484084 0.278556
-0.002709 0.00161 0.078414 -1.510385 0.519087 -3.681813 0.484084 0.278556
0.003113 0.000968 0.075957 -1.541644 0.6523912 -5.388763 0.484084 0.278556
0.012036 -0.000214 0.068566 -0.7345188 -0.09241683 -2.12643 0.484084 0.278556
0.011959 -0.000227 0.069977 3.717885 -0.2638586 2.055547 0.484084 0.278556
0.007065 -0.002978 0.071288 -0.1127052 -2.072096 -1.036274 0.484084 0.278556
0.005964 -0.0025 0.074252 1.425595 -2.927135 1.630837 0.484084 0.278556
0.007914 0.003436 0.071481 -0.07559651 1.960896 -1.597236 0.484084 0.278556
0.008583 0.004033 0.072358 0.4016149 1.379223 -0.1168545 0.484084 0.278556
0.00693 0.00045 0.072656 -3.561338 1.036755 -4.603098 0.484084 0.278556
0.007523 0.000359 0.073651 3.643255 0.3260208 4.36689 0.484084 0.278556
0.006114 0.003388 0.073501 -0.5875156 1.219395 -0.2414976 0.484084 0.278556
-0.007957 0.006376 0.078291 -0.07531609 1.868131 -0.2895873 0.484084 0.278556
-0.006595 0.002327 0.078045 0.3425723 -0.1315919 -4.961244 0.484084 0.278556
-0.013151 0.003196 0.077364 -0.6459609 -0.02314815 -0.3259163 0.484084 0.278556
-0.006954 0.002216 0.080548 -1.034604 -0.01715618 4.297807 0.484084 0.278556
-0.008735 -0.000578 0.078221 -0.01777437 -2.159554 -0.5008436 0.484084 0.278556
0.002691 0.004366 0.076017 -0.8416563 0.6064722 0.2798389 0.484084 0.278556
0.016782 0.008912 0.076976 2.07995 -1.322911 2.677085 0.483261 0.301304
0.017454 0.008638 0.075953 1.731634 -1.707279 -0.2484776 0.483261 0.301304
0.018109 0.01441 0.076055 2.018288 0.02917868 -0.883215 0.483261 0.301304
0.012932 0.006308 0.076366 0.4066058 -3.313103 4.546478 0.483261 0.301304
0.014792 0.012735 0.07908 0.7041068 0.2192747 5.186697 0.483261 0.301304
0.010768 0.008786 0.077626 -2.343668 -0.2665823 2.497964 0.483261 0.301304
0.011314 0.014383 0.077663 -0.9665239 1.314879 -0.2508483 0.483261 0.301304
0.011009 0.0092 0.076001 -1.575052 1.488423 -2.947965 0.483261 0.301304
0.012901 0.006551 0.075638 -0.06780073 2.280091 -5.049109 0.483261 0.301304
0.014302 0.012714 0.076881 -1.109324 0.6121898 -4.64945 0.483261 0.301304
0.009005 0.005338 0.073194 -0.1286962 2.125482 -1.475464 0.483261 0.301304
0.01032 -0.000597 0.067854 -0.1285237 0.5374195 -3.044356 0.483261 0.301304
0.008719 0.005222 0.074484 -1.553037 0.2406161 1.630558 0.483261 0.301304
0.01007 -0.001781 0.06896 -0.8597144 -1.981016 0.4059243 0.483261 0.301304
0.01497 0.000912 0.072279 3.272671 -2.038408 -0.4834269 0.483261 0.301304
0.014408 0.001675 0.07152 2.173775 0.8122799 -2.851062 0.483261 0.301304
0.015023 0.002919 0.073761 1.947775 -1.737764 2.082269 0.483261 0.301304
0.016881 0.008062 0.076151 0.6373485 1.101815 0.3151281 0.483261 0.301304
0.011661 0.002505 0.073534 -0.2939644 -2.602413 4.101798 0.483261 0.301304
0.014775 0.003951 0.072352 3.090886 1.570112 -3.347087 0.483261 0.301304
0.011716 0.003705 0.072143 0.4507702 4.4391 -3.172654 0.483261 0.301304
0.011311 0.001771 0.070358 0.9155237 2.928568 -3.802063 0.483261 0.301304
0.010871 0.000267 0.071886 -0.7211035 -3.103582 3.5434 0.483261 0.301304
0.015841 0.017593 0.076499 1.341646 3.125186 4.402251 0.483261 0.301304
0.019148 0.018009 0.074403 -0.08322051 0.697113 -0.5114088 0.483261 0.301304
0.012101 0.015746 0.077243 -1.544607 -0.2323219 0.09793344 0.483261 0.301304
0.012957 0.0192 0.074316 -0.5482866 0.1711407 -0.157248 0.483261 0.301304
0.015601 0.017001 0.075593 -1.097818 -2.604205 -5.124527 0.483261 0.301304
0.01657 0.022435 0.070816 -0.02837846 0.1659073 -0.2495487 0.483261 0.301304
0.019131 0.01826 0.073345 0.7081738 -0.7376534 0.2334411 0.483261 0.301304
0.008574 0.006313 0.074675 -1.831069 0.05672407 -0.450262 0.483261 0.301304
0.011461 -0.010318 0.078563 -2.275984 -0.1323571 1.204662 0.483261 0.301304
0.011804 -0.010447 0.07757 -2.995105 0.2656608 -1.859286 0.483261 0.301304
0.013871 -0.015641 0.07735 -2.361115 -1.072541 -1.280053 0.483261 0.301304
0.013594 -0.00583 0.077803 -1.265866 2.375599 3.624408 0.483261 0.301304
0.015877 -0.012386 0.079638 0.2544612 -0.3549574 5.443574 0.483261 0.301304
0.016739 -0.007222 0.07789 2.614533 1.79888 2.733597 0.483261 0.301304
0.019258 -0.012469 0.078273 1.250578 -0.6218451 -0.1127481 0.483261 0.301304
0.016965 -0.007553 0.076566 1.80458 -0.3375464 -2.67164 0.483261 0.301304
0.013872 -0.006408 0.076372 0.5272706 -2.209137 -5.105757 0.483261 0.301304
0.016012 -0.012225 0.078025 0.4988577 0.1072299 -4.530959 0.483261 0.301304
0.016028 -0.003184 0.073757 1.053298 -1.597609 -1.046631 0.483261 0.301304
0.011499 0.000631 0.069022 0.1361553 0.2786005 -2.875616 0.483261 0.301304
0.01589 -0.002946 0.07424 1.794545 1.141136 1.654402 0.483261 0.301304
0.011321 0.001238 0.069773 -0.1267834 2.391898 0.3631926 0.483261 0.301304
0.008506 -0.002777 0.073555 -3.409023 0.05607069 0.1698129 0.483261 0.301304
0.009305 -0.003416 0.072328 -1.373951 -2.070158 -2.078567 0.483261 0.301304
0.010054 -0.00451 0.074795 -2.190738 0.3148013 1.693226 0.483261 0.301304
0.011533 -0.009249 0.077178 -0.3176271 -1.408809 -0.08380675 0.483261 0.301304
0.012499 -0.002222 0.07448 -0.6906635 2.732552 3.550993 0.483261 0.301304
0.010801 -0.004826 0.073817 -1.380336 -3.898251 -2.844692 0.483261 0.301304
0.012863 -0.003176 0.073205 1.642647 -4.229385 -2.850239 0.483261 0.301304
0.012163 -0.001748 0.07108 0.9230174 -3.410928 -3.424117 0.483261 0.301304
0.011903 -0.000442 0.072361 -0.3689641 3.502719 3.111285 0.483261 0.301304
0.017424 -0.01727 0.077632 0.792097 -3.080337 4.457874 0.483261 0.301304
0.014579 -0.019555 0.075672 0.1375463 -0.6041529 -0.4842298 0.483261 0.301304
0.01987 -0.013471 0.077933 1.320817 1.307897 0.02349783 0.483261 0.301304
0.020229 -0.017135 0.075135 1.081242 0.1856536 -0.3415759 0.483261 0.301304
0.017037 -0.016281 0.075951 -1.058055 2.674356 -5.116481 0.483261 0.301304
0.019046 -0.022272 0.071512 0.146836 -0.2655528 -0.3858378 0.483261 0.301304
0.015231 -0.019469 0.074766 -1.223114 0.04628664 0.2135546 0.483261 0.301304
0.016509 -0.00424 0.075335 2.085675 1.281939 -0.5635446 0.483261 0.301304
0.004021 -0.004669 0.061695 -3.222749 0.03851616 0.9674947 0.483536 0.233906
0.004399 -0.004035 0.061904 -1.070853 2.450588 0.1126865 0.483536 0.233906
0.00398 -0.006841 0.057887 -0.7509797 1.430806 -1.378729 0.483536 0.233906
0.006998 -0.005777 0.066167 -3.573089 -1.421413 3.834749 0.483536 0.233906
0.005949 -0.00841 0.062115 -4.266872 -3.247818 2.38651 0.483536 0.233906
0.009014 -0.008298 0.065424 -0.2309179 -2.779377 2.284624 0.483536 0.233906
0.009028 -0.011117 0.063285 0.738097 -1.281758 -0.2541816 0.483536 0.233906
0.009521 -0.007935 0.064752 3.578808 -0.7551635 -1.539358 0.483536 0.233906
0.008451 -0.004976 0.064256 3.854084 1.894617 -3.911268 0.483536 0.233906
0.007037 -0.00782 0.061238 4.039892 1.407335 -2.436957 0.483536 0.233906
0.011843 -0.005995 0.067215 2.249204 0.04933766 -1.437771 0.483536 0.233906
0.01125 0.000144 0.07024 2.567934 2.287796 0.9612612 0.483536 0.233906
0.011558 -0.006626 0.067543 -0.2868827 -2.151924 1.020728 0.483536 0.233906
0.010298 -0.000574 0.070826 -0.8302268 -0.3444809 2.58091 0.483536 0.233906
0.005856 0.000265 0.067053 -2.967272 1.579948 0.6436209 0.483536 0.233906
0.007063 0.000521 0.066282 0.5009789 2.712948 -1.599129 0.483536 0.233906
0.006314 -0.001593 0.06586 -3.418982 -0.07544443 1.005522 0.483536 0.233906
0.004401 -0.003772 0.062268 -1.060986 0.2728589 -1.002941 0.483536 0.233906
0.00872 -0.003423 0.067803 -2.900932 -1.391455 3.490994 0.483536 0.233906
0.007281 -0.001197 0.064767 -0.09266663 2.651151 -3.530468 0.483536 0.233906
0.009993 -0.002762 0.066409 2.976581 0.9209982 -4.433619 0.483536 0.233906
0.010621 -0.001346 0.06783 3.373858 2.165339 -2.796194 0.483536 0.233906
0.009442 -0.002119 0.069043 -3.003881 -2.108827 3.312895 0.483536 0.233906
0.00577 -0.00977 0.058108 -4.051095 -4.072023 -0.001051724 0.483536 0.233906
0.003355 -0.006514 0.0531 0.393722 -0.3664814 -0.5931269 0.483536 0.233906
0.009153 -0.011739 0.062112 0.767419 0.008449733 0.7069979 0.483536 0.233906
0.009213 -0.011408 0.057438 0.3572223 -0.2189355 -0.06874443 0.483536 0.233906
0.006348 -0.00918 0.058082 4.064034 4.074128 -0.6586258 0.483536 0.233906
0.007864 -0.009529 0.050572 0.1124395 -0.0148592 -0.1861276 0.483536 0.233906
0.004691 -0.007178 0.053896 -0.6586074 0.6962259 0.4029058 0.483536 0.233906
0.011674 -0.007229 0.066985 1.884527 -1.134136 0.8753131 0.483536 0.233906
0.01826 0.004859 0.062855 3.375775 0.3838936 0.7305181 0.484000 0.205604
0.017982 0.003585 0.062699 1.181293 -2.000781 0.9521763 0.484000 0.205604
0.017414 0.005445 0.057476 1.399991 -2.306263 -0.9254696 0.484000 0.205604
0.0158 0.006512 0.065837 2.863858 2.576547 3.361006 0.484000 0.205604
0.017037 0.008139 0.060309 3.900662 3.686095 0.5273867 0.484000 0.205604
0.014079 0.008159 0.063964 -0.4896777 3.892814 1.005502 0.484000 0.205604
0.013706 0.009728 0.058099 -0.8304781 0.717942 -0.6885042 0.484000 0.205604
0.013488 0.007498 0.063484 -3.702263 -0.1117806 -1.269836 0.484000 0.205604
0.014342 0.005116 0.064347 -3.907827 -3.634392 -2.319893 0.484000 0.205604
0.015287 0.006735 0.059721 -3.723226 -2.971887 -0.9897051 0.484000 0.205604
0.011397 0.00604 0.066551 -0.9713882 -0.175287 -2.169393 0.484000 0.205604
0.010671 0.00111 0.06958 -2.414298 -1.695059 0.4607247 0.484000 0.205604
0.011623 0.006579 0.066699 -0.6481199 2.152044 0.4175628 0.484000 0.205604
0.011064 0.001549 0.070415 -0.4372992 -0.07516189 2.260325 0.484000 0.205604
0.015141 0.001565 0.067984 3.478521 -2.019258 2.657206 0.484000 0.205604
0.014962 0.000493 0.067415 0.4729889 -1.952459 -0.463028 0.484000 0.205604
0.01596 0.002779 0.067003 3.338353 -0.2279148 1.977892 0.484000 0.205604
0.018177 0.00417 0.062783 0.9245015 -0.3155007 -0.5303705 0.484000 0.205604
0.01372 0.00441 0.068071 2.341612 2.363586 3.213963 0.484000 0.205604
0.015094 0.001843 0.065751 0.85835 -1.868278 -2.176009 0.484000 0.205604
0.01329 0.003925 0.067488 -1.645867 -1.107811 -4.327613 0.484000 0.205604
0.011888 0.002275 0.06763 -1.842225 -1.534175 -3.640177 0.484000 0.205604
0.012694 0.003331 0.069583 1.76237 1.785906 3.739947 0.484000 0.205604
0.016445 0.007515 0.054304 3.738825 3.531131 -1.632066 0.484000 0.205604
0.017598 0.004009 0.05239 -0.4670057 -0.2212253 -0.5747521 0.484000 0.205604
0.013272 0.009909 0.057864 -1.154546 0.6887419 0.6454235 0.484000 0.205604
0.012821 0.007789 0.052591 -0.6804833 0.2956175 -0.1421657 0.484000 0.205604
0.015584 0.006635 0.055023 -3.906099 -4.286416 1.048857 0.484000 0.205604
0.013528 0.004561 0.046493 -0.2108526 -0.1320645 -0.2282436 0.484000 0.205604
0.017155 0.003482 0.052079 0.8607404 -0.4736092 0.5054926 0.484000 0.205604
0.011708 0.007244 0.065938 -2.456005 1.14495 0.6060051 0.484000 0.205604
0.013183 -0.005601 0.063511 -0.4813462 -1.620715 1.757754 0.494738 0.228019
0.012165 -0.004932 0.063375 -2.160974 -1.32364 0.6184567 0.494738 0.228019
0.014291 -0.005208 0.057811 1.445061 -4.910284 -0.4561934 0.494738 0.228019
0.012676 -0.004233 0.058151 -4.004316 0.9213701 -0.159203 0.494738 0.228019
0.015926 -0.002915 0.06021 3.716156 -1.515146 -0.1012808 0.494738 0.228019
0.017748 0.000191 0.057553 2.513083 -0.6783291 -1.606344 0.494738 0.228019
0.015046 -0.00255 0.064975 4.326152 -3.277154 1.608682 0.494738 0.228019
0.017666 0.000426 0.061782 4.06313 -0.4831665 1.282273 0.494738 0.228019
0.017126 0.001555 0.061705 0.6177778 3.847861 -0.3618409 0.494738 0.228019
0.016594 0.000915 0.057708 -1.477881 1.554507 -1.238291 0.494738 0.228019
0.014828 -0.001875 0.059776 -3.342336 1.930735 -1.472727 0.494738 0.228019
0.013925 -0.001827 0.064308 -5.070406 2.940494 -0.2001835 0.494738 0.228019
0.011231 -0.000224 0.070734 -2.363332 2.031708 -0.2858838 0.494738 0.228019
0.011999 -0.000771 0.071239 1.454332 -1.227906 3.521903 0.494738 0.228019
0.014003 0.001872 0.067966 -0.1051101 2.452754 0.7426416 0.494738 0.228019
0.015408 0.000679 0.067106 3.681481 0.1766511 2.05866 0.494738 0.228019
0.009978 -0.003395 0.067586 -2.402756 -0.3234041 -0.004423857 0.494738 0.228019
0.010584 -0.004667 0.068096 -0.5783256 -1.177785 0.1999393 0.494738 0.228019
0.012862 -0.001156 0.067367 -4.608359 2.788349 -2.595551 0.494738 0.228019
0.013373 -0.001523 0.067597 3.822904 -3.425617 2.656459 0.494738 0.228019
0.011573 -0.003803 0.066309 -0.3208032 -0.6193128 -1.074888 0.494738 0.228019
0.012044 -0.004543 0.05384 -0.7336721 -0.9068059 -0.376681 0.494738 0.228019
0.014803 -0.002006 0.056162 -3.976339 2.733272 0.6727241 0.494738 0.228019
0.012657 -0.000226 0.048104 -0.09563369 0.1469393 -0.1841328 0.494738 0.228019
0.015584 -0.002477 0.055715 3.979034 -2.099025 -1.488078 0.494738 0.228019
0.015921 0.000995 0.054872 0.5843005 1.207008 0.3503003 0.494738 0.228019
0.012369 -0.004756 0.063841 -0.1108281 -0.5368479 -0.7120196 0.494738 0.228019
3 0 1 2 
3 0 2 3 
3 1 4 5 
3 1 5 2 
3 4 6 7 
3 4 7 5 
3 6 8 9 
3 6 9 7 
3 8 0 3 
3 8 3 9 
3 10 11 12 
3 13 10 12 
3 14 13 12 
3 15 14 12 
3 11 15 12 
3 16 17 18 
3 17 19 18 
3 19 20 18 
3 20 21 18 
3 21 16 18 
3 22 23 24 
3 22 24 25 
3 23 26 27 
3 23 27 24 
3 26 28 29 
3 26 29 27 
3 28 30 31 
3 28 31 29 
3 30 22 25 
3 30 25 31 
3 25 24 17 
3 25 17 16 
3 24 27 19 
3 24 19 17 
3 27 29 20 
3 27 20 19 
3 29 31 21 
3 29 21 20 
3 31 25 16 
3 31 16 21 
3 32 33 4 
3 32 4 1 
3 33 34 6 
3 33 6 4 
3 34 35 8 
3 34 8 6 
3 35 36 0 
3 35 0 8 
3 36 32 1 
3 36 1 0 
3 9 3 37 
3 9 37 38 
3 7 9 38 
3 7 38 39 
3 5 7 39 
3 5 39 40 
3 2 5 40 
3 2 40 41 
3 3 2 41 
3 3 41 37 
3 38 37 42 
3 38 42 43 
3 39 38 43 
3 39 43 44 
3 40 39 44 
3 40 44 45 
3 41 40 45 
3 41 45 46 
3 37 41 46 
3 37 46 42 
3 43 42 47 
3 43 47 48 
3 44 43 48 
3 44 48 49 
3 45 44 49 
3 45 49 50 
3 46 45 50 
3 46 50 51 
3 42 46 51 
3 42 51 47 
3 52 53 54 
3 52 54 55 
3 56 52 55 
3 56 55 57 
3 58 56 57 
3 58 57 59 
3 60 58 59 
3 60 59 61 
3 53 60 61 
3 53 61 54 
3 55 54 11 
3 55 11 10 
3 57 55 10 
3 57 10 13 
3 59 57 13 
3 59 13 14 
3 61 59 14 
3 61 14 15 
3 54 61 15 
3 54 15 11 
3 62 63 64 
3 64 63 65 
3 66 67 68 
3 69 68 67 
3 69 67 70 
3 70 67 71 
3 72 73 71 
3 73 70 71 
3 74 75 76 
3 76 75 77 
3 74 78 75 
3 75 78 79 
3 66 68 64 
3 68 62 64 
3 72 65 73 
3 63 73 65 
3 76 70 80 
3 80 70 73 
3 76 77 70 
3 70 77 69 
3 77 81 69 
3 69 81 68 
3 74 76 80 
3 78 82 79 
3 78 74 82 
3 82 74 80 
3 83 84 85 
3 64 65 83 
3 66 64 86 
3 86 64 83 
3 84 87 85 
3 86 83 85 
3 87 86 85 
3 72 84 65 
3 65 84 83 
3 79 82 75 
3 75 82 81 
3 77 75 81 
3 87 66 86 
3 72 87 84 
3 82 88 81 
3 81 88 68 
3 82 80 88 
3 88 80 73 
3 68 73 62 
3 62 73 63 
3 66 72 67 
3 67 72 71 
3 66 87 72 
3 68 88 73 
3 89 90 91 
3 92 93 94 
3 94 93 95 
3 96 94 95 
3 97 96 98 
3 96 95 98 
3 99 100 101 
3 101 100 102 
3 102 100 103 
3 103 100 104 
3 91 93 89 
3 92 89 93 
3 98 91 97 
3 90 97 91 
3 105 106 107 
3 107 106 92 
3 108 106 105 
3 108 109 106 
3 106 109 97 
3 110 99 109 
3 102 111 101 
3 103 111 102 
3 104 108 103 
3 103 108 105 
3 104 110 108 
3 108 110 109 
3 93 91 112 
3 112 91 113 
3 93 112 114 
3 114 112 115 
3 116 115 117 
3 112 118 117 
3 115 112 117 
3 98 116 91 
3 91 116 113 
3 98 114 116 
3 116 114 115 
3 100 110 104 
3 99 110 100 
3 103 105 111 
3 111 105 107 
3 101 111 107 
3 118 116 117 
3 107 92 119 
3 119 92 94 
3 96 119 94 
3 109 119 97 
3 97 119 96 
3 92 106 97 
3 107 109 101 
3 101 109 99 
3 93 114 98 
3 112 113 116 
3 112 116 118 
3 93 98 95 
3 89 92 90 
3 90 92 97 
3 107 119 109 
3 120 121 122 
3 122 121 123 
3 124 125 126 
3 127 126 125 
3 127 125 128 
3 128 125 129 
3 130 131 129 
3 131 128 129 
3 132 133 134 
3 134 133 135 
3 132 136 133 
3 133 136 137 
3 124 126 122 
3 126 120 122 
3 130 123 131 
3 121 131 123 
3 134 128 138 
3 138 128 131 
3 134 135 128 
3 128 135 127 
3 135 139 127 
3 127 139 126 
3 132 134 138 
3 136 140 137 
3 136 132 140 
3 140 132 138 
3 141 142 143 
3 122 123 141 
3 124 122 144 
3 144 122 141 
3 142 145 143 
3 144 141 143 
3 145 144 143 
3 130 142 123 
3 123 142 141 
3 137 140 133 
3 133 140 139 
3 135 133 139 
3 145 124 144 
3 130 145 142 
3 140 146 139 
3 139 146 126 
3 140 138 146 
3 146 138 131 
3 126 131 120 
3 120 131 121 
3 124 130 125 
3 125 130 129 
3 124 145 130 
3 126 146 131 
3 147 148 149 
3 150 151 152 
3 152 151 153 
3 154 152 153 
3 155 154 156 
3 154 153 156 
3 157 158 159 
3 159 158 160 
3 160 158 161 
3 161 158 162 
3 149 151 147 
3 150 147 151 
3 156 149 155 
3 148 155 149 
3 163 164 165 
3 165 164 150 
3 166 164 163 
3 166 167 164 
3 164 167 155 
3 168 157 167 
3 160 169 159 
3 161 169 160 
3 162 166 161 
3 161 166 163 
3 162 168 166 
3 166 168 167 
3 151 149 170 
3 170 149 171 
3 151 170 172 
3 172 170 173 
3 174 173 175 
3 170 176 175 
3 173 170 175 
3 156 174 149 
3 149 174 171 
3 156 172 174 
3 174 172 173 
3 158 168 162 
3 157 168 158 
3 161 163 169 
3 169 163 165 
3 159 169 165 
3 176 174 175 
3 165 150 177 
3 177 150 152 
3 154 177 152 
3 167 177 155 
3 155 177 154 
3 150 164 155 
3 165 167 159 
3 159 167 157 
3 151 172 156 
3 170 171 174 
3 170 174 176 
3 151 156 153 
3 147 150 148 
3 148 150 155 
3 165 177 167 
3 178 179 180 
3 180 179 181 
3 182 183 184 
3 185 184 183 
3 185 183 186 
3 186 183 187 
3 188 189 187 
3 189 186 187 
3 190 191 192 
3 192 191 193 
3 190 194 191 
3 191 194 195 
3 182 184 180 
3 184 178 180 
3 188 181 189 
3 179 189 181 
3 192 186 196 
3 196 186 189 
3 192 193 186 
3 186 193 185 
3 193 197 185 
3 185 197 184 
3 190 192 196 
3 194 198 195 
3 194 190 198 
3 198 190 196 
3 199 200 201 
3 180 181 199 
3 182 180 202 
3 202 180 199 
3 200 203 201 
3 202 199 201 
3 203 202 201 
3 188 200 181 
3 181 200 199 
3 195 198 191 
3 191 198 197 
3 193 191 197 
3 203 182 202 
3 188 203 200 
3 198 204 197 
3 197 204 184 
3 198 196 204 
3 204 196 189 
3 184 189 178 
3 178 189 179 
3 182 188 183 
3 183 188 187 
3 182 203 188 
3 184 204 189 
3 205 206 207 
3 207 206 208 
3 209 210 211 
3 212 211 210 
3 212 210 213 
3 213 210 214 
3 215 216 214 
3 216 213 214 
3 217 218 219 
3 219 218 220 
3 217 221 218 
3 218 221 222 
3 209 211 207 
3 211 205 207 
3 215 208 216 
3 206 216 208 
3 219 213 223 
3 223 213 216 
3 219 220 213 
3 213 220 212 
3 220 224 212 
3 212 224 211 
3 217 219 223 
3 221 225 222 
3 221 217 225 
3 225 217 223 
3 226 227 228 
3 207 208 226 
3 209 207 229 
3 229 207 226 
3 227 230 228 
3 229 226 228 
3 230 229 228 
3 215 227 208 
3 208 227 226 
3 222 225 218 
3 218 225 224 
3 220 218 224 
3 230 209 229 
3 215 230 227 
3 225 231 224 
3 224 231 211 
3 225 223 231 
3 231 223 216 
3 211 216 205 
3 205 216 206 
3 209 215 210 
3 210 215 214 
3 209 230 215 
3 211 231 216 
3 232 233 234 
3 235 236 237 
3 237 236 238 
3 239 237 238 
3 240 239 241 
3 239 238 241 
3 242 243 244 
3 244 243 245 
3 245 243 246 
3 246 243 247 
3 234 236 232 
3 235 232 236 
3 241 234 240 
3 233 240 234 
3 248 249 250 
3 250 249 235 
3 251 249 248 
3 251 252 249 
3 249 252 240 
3 253 242 252 
3 245 254 244 
3 246 254 245 
3 247 251 246 
3 246 251 248 
3 247 253 251 
3 251 253 252 
3 236 234 255 
3 255 234 256 
3 236 255 257 
3 257 255 258 
3 259 258 260 
3 255 261 260 
3 258 255 260 
3 241 259 234 
3 234 259 256 
3 241 257 259 
3 259 257 258 
3 243 253 247 
3 242 253 243 
3 246 248 254 
3 254 248 250 
3 244 254 250 
3 261 259 260 
3 250 235 262 
3 262 235 237 
3 239 262 237 
3 252 262 240 
3 240 262 239 
3 235 249 240 
3 250 252 244 
3 244 252 242 
3 236 257 241 
3 255 256 259 
3 255 259 261 
3 236 241 238 
3 232 235 233 
3 233 235 240 
3 250 262 252 
3 263 264 265 
3 265 264 266 
3 267 268 269 
3 270 269 268 
3 270 268 271 
3 271 268 272 
3 273 274 272 
3 274 271 272 
3 275 276 277 
3 277 276 278 
3 275 279 276 
3 276 279 280 
3 267 269 265 
3 269 263 265 
3 273 266 274 
3 264 274 266 
3 277 271 281 
3 281 271 274 
3 277 278 271 
3 271 278 270 
3 278 282 270 
3 270 282 269 
3 275 277 281 
3 279 283 280 
3 279 275 283 
3 283 275 281 
3 284 285 286 
3 265 266 284 
3 267 265 287 
3 287 265 284 
3 285 288 286 
3 287 284 286 
3 288 287 286 
3 273 285 266 
3 266 285 284 
3 280 283 276 
3 276 283 282 
3 278 276 282 
3 288 267 287 
3 273 288 285 
3 283 289 282 
3 282 289 269 
3 283 281 289 
3 289 281 274 
3 269 274 263 
3 263 274 264 
3 267 273 268 
3 268 273 272 
3 267 288 273 
3 269 289 274 
3 290 291 292 
3 293 294 295 
3 295 294 296 
3 297 295 296 
3 298 297 299 
3 297 296 299 
3 300 301 302 
3 302 301 303 
3 303 301 304 
3 304 301 305 
3 292 294 290 
3 293 290 294 
3 299 292 298 
3 291 298 292 
3 306 307 308 
3 308 307 293 
3 309 307 306 
3 309 310 307 
3 307 310 298 
3 311 300 310 
3 303 312 302 
3 304 312 303 
3 305 309 304 
3 304 309 306 
3 305 311 309 
3 309 311 310 
3 294 292 313 
3 313 292 314 
3 294 313 315 
3 315 313 316 
3 317 316 318 
3 313 319 318 
3 316 313 318 
3 299 317 292 
3 292 317 314 
3 299 315 317 
3 317 315 316 
3 301 311 305 
3 300 311 301 
3 304 306 312 
3 312 306 308 
3 302 312 308 
3 319 317 318 
3 308 293 320 
3 320 293 295 
3 297 320 295 
3 310 320 298 
3 298 320 297 
3 293 307 298 
3 308 310 302 
3 302 310 300 
3 294 315 299 
3 313 314 317 
3 313 317 319 
3 294 299 296 
3 290 293 291 
3 291 293 298 
3 308 320 310 
3 321 322 323 
3 324 325 326 
3 326 325 327 
3 328 326 327 
3 329 328 330 
3 328 327 330 
3 331 332 333 
3 333 332 334 
3 334 332 335 
3 335 332 336 
3 323 325 321 
3 324 321 325 
3 330 323 329 
3 322 329 323 
3 337 338 339 
3 339 338 324 
3 340 338 337 
3 340 341 338 
3 338 341 329 
3 342 331 341 
3 334 343 333 
3 335 343 334 
3 336 340 335 
3 335 340 337 
3 336 342 340 
3 340 342 341 
3 325 323 344 
3 344 323 345 
3 325 344 346 
3 346 344 347 
3 348 347 349 
3 344 350 349 
3 347 344 349 
3 330 348 323 
3 323 348 345 
3 330 346 348 
3 348 346 347 
3 332 342 336 
3 331 342 332 
3 335 337 343 
3 343 337 339 
3 333 343 339 
3 350 348 349 
3 339 324 351 
3 351 324 326 
3 328 351 326 
3 341 351 329 
3 329 351 328 
3 324 338 329 
3 339 341 333 
3 333 341 331 
3 325 346 330 
3 344 345 348 
3 344 348 350 
3 325 330 327 
3 321 324 322 
3 322 324 329 
3 339 351 341 
3 352 353 354 
3 355 356 357 
3 357 356 358 
3 359 357 358 
3 360 359 361 
3 359 358 361 
3 362 363 364 
3 364 363 365 
3 365 363 366 
3 366 363 367 
3 354 356 352 
3 355 352 356 
3 361 354 360 
3 353 360 354 
3 368 369 370 
3 370 369 355 
3 371 369 368 
3 371 372 369 
3 369 372 360 
3 373 362 372 
3 365 374 364 
3 366 374 365 
3 367 371 366 
3 366 371 368 
3 367 373 371 
3 371 373 372 
3 356 354 375 
3 375 354 376 
3 356 375 377 
3 377 375 378 
3 379 378 380 
3 375 381 380 
3 378 375 380 
3 361 379 354 
3 354 379 376 
3 361 377 379 
3 379 377 378 
3 363 373 367 
3 362 373 363 
3 366 368 374 
3 374 368 370 
3 364 374 370 
3 381 379 380 
3 370 355 382 
3 382 355 357 
3 359 382 357 
3 372 382 360 
3 360 382 359 
3 355 369 360 
3 370 372 364 
3 364 372 362 
3 356 377 361 
3 375 376 379 
3 375 379 381 
3 356 361 358 
3 352 355 353 
3 353 355 360 
3 370 382 372 
3 383 384 385 
3 386 387 388 
3 388 387 389 
3 390 388 389 
3 391 390 392 
3 390 389 392 
3 393 394 395 
3 395 394 396 
3 396 394 397 
3 397 394 398 
3 385 387 383 
3 386 383 387 
3 392 385 391 
3 384 391 385 
3 399 400 401 
3 401 400 386 
3 402 400 399 
3 402 403 400 
3 400 403 391 
3 404 393 403 
3 396 405 395 
3 397 405 396 
3 398 402 397 
3 397 402 399 
3 398 404 402 
3 402 404 403 
3 387 385 406 
3 406 385 407 
3 387 406 408 
3 408 406 409 
3 410 409 411 
3 406 412 411 
3 409 406 411 
3 392 410 385 
3 385 410 407 
3 392 408 410 
3 410 408 409 
3 394 404 398 
3 393 404 394 
3 397 399 405 
3 405 399 401 
3 395 405 401 
3 412 410 411 
3 401 386 413 
3 413 386 388 
3 390 413 388 
3 403 413 391 
3 391 413 390 
3 386 400 391 
3 401 403 395 
3 395 403 393 
3 387 408 392 
3 406 407 410 
3 406 410 412 
3 387 392 389 
3 383 386 384 
3 384 386 391 
3 401 413 403 
3 414 415 416 
3 416 415 417 
3 418 419 420 
3 421 420 419 
3 421 419 422 
3 422 419 423 
3 424 425 423 
3 425 422 423 
3 426 427 428 
3 428 427 429 
3 426 430 427 
3 427 430 431 
3 418 420 416 
3 420 414 416 
3 424 417 425 
3 415 425 417 
3 428 422 432 
3 432 422 425 
3 428 429 422 
3 422 429 421 
3 429 433 421 
3 421 433 420 
3 426 428 432 
3 430 434 431 
3 430 426 434 
3 434 426 432 
3 435 436 437 
3 416 417 435 
3 418 416 438 
3 438 416 435 
3 436 439 437 
3 438 435 437 
3 439 438 437 
3 424 436 417 
3 417 436 435 
3 431 434 427 
3 427 434 433 
3 429 427 433 
3 439 418 438 
3 424 439 436 
3 434 440 433 
3 433 440 420 
3 434 432 440 
3 440 432 425 
3 420 425 414 
3 414 425 415 
3 418 424 419 
3 419 424 423 
3 418 439 424 
3 420 440 425 
