ply
format ascii 1.0
comment VCGLIB generated
element vertex 451
property float x
property float y
property float z
property float nx
property float ny
property float nz
property float texture_u
property float texture_v
element face 826
property list uchar int vertex_indices
end_header
0.010545 0.001292 0.012397 -0.2495121 4.736191 -1.368034 0.224977 0.030904
0.009997 0.000612 0.014028 -0.1355384 2.957122 3.939898 0.224982 0.030934
0.016726 0.002012 0.012875 0.1045544 1.892452 3.834528 0.238672 0.030932
0.017368 0.002303 0.01151 -0.4134728 4.960026 -0.3339404 0.238668 0.030903
0.010414 -0.000646 0.014233 0.198592 -2.761593 3.106545 0.224982 0.030934
0.016537 0.000684 0.012727 0.56519 -3.309892 2.625104 0.238672 0.030932
0.010511 -0.000706 0.012396 -0.07449174 -3.902885 -2.568873 0.224977 0.030904
0.015686 0.000273 0.01053 0.006099042 -3.113101 -2.939764 0.238668 0.030903
0.010906 0.000596 0.011759 -0.1488685 0.9236817 -4.781143 0.224973 0.030885
0.016729 0.001228 0.010057 -0.8106524 2.078566 -4.352772 0.238665 0.030885
-0.000746 0.00082 -0.008069 -2.226475 0.9215137 -2.775538 0.496375 0.179030
0.000814 0.001327 -0.008068 0.1926346 2.416748 -2.709514 0.496375 0.179030
0.00036 0 -0.008068 0.003757935 2.910383e-11 -4.999999 0.496375 0.179030
-0.000746 -0.00082 -0.008069 -1.56145 -1.843285 -2.757434 0.496375 0.179030
0.000814 -0.001327 -0.008068 1.28188 -2.068704 -2.67962 0.496375 0.179030
0.001778 0 -0.008067 2.37112 0.5737169 -2.649726 0.496375 0.179030
0.053687 0.001208 0.028424 0.7065495 2.39001 2.299487 0.495925 0.152008
0.05253 0.000309 0.028506 -1.966178 1.217364 2.895635 0.495926 0.152008
0.053661 -4e-05 0.028433 0.3884506 0.04014068 4.984499 0.495926 0.152008
0.052956 -0.001072 0.028495 -1.608619 -1.556578 2.813375 0.495926 0.152008
0.05438 -0.001027 0.028381 1.188157 -2.257323 2.227266 0.495925 0.152008
0.054847 0.000382 0.028326 2.655486 0.2363409 1.860786 0.495925 0.152008
0.051911 0.000797 0.020779 -0.2236742 1.074608 -2.695685 0.495925 0.152008
0.051193 0.000198 0.020737 -1.073664 0.01143238 -2.685281 0.495926 0.152008
0.049724 0.000643 0.021315 -3.299921 0.7083561 -1.741119 0.495926 0.152008
0.051951 0.002515 0.021472 -0.3372895 3.369468 -2.11661 0.495926 0.152008
0.051519 -0.000722 0.020762 -0.3081279 -1.002941 -2.711016 0.495926 0.152008
0.050753 -0.002233 0.021419 -1.600501 -3.034046 -2.056688 0.495926 0.152008
0.052432 -0.000692 0.020806 0.8622198 -0.6471111 -2.722872 0.495925 0.152008
0.053549 -0.002139 0.021525 2.449528 -2.52735 -2.71459 0.495926 0.152008
0.052687 0.000247 0.02081 0.9406859 0.5814107 -2.702887 0.495926 0.152008
0.054403 0.000795 0.021494 3.184117 1.450503 -2.761185 0.495925 0.152008
-0.001462 0.001285 0.001979 -2.194623 1.175929 0.8767774 0.187308 0.030941
-0.001462 -0.001285 0.001979 -1.304389 -1.822425 0.5808417 0.187308 0.030941
0.000523 -0.001086 0.008476 -2.84097 -2.597153 1.561611 0.211700 0.030936
0.001011 0.000579 0.008523 -3.440434 3.119199 2.269952 0.211700 0.030936
0.000983 -0.00208 0.00198 1.368848 -2.233947 0.09891667 0.187302 0.030907
0.001634 -0.001228 0.007026 1.725398 -4.7456 -0.6250862 0.211695 0.030905
0.002494 -0 0.001982 2.568161 0.2324207 -0.2324135 0.187298 0.030885
0.002799 6.1e-05 0.006915 4.596413 -0.6348106 -1.695189 0.211692 0.030885
0.000983 0.00208 0.00198 0.2449976 2.273696 0.3156807 0.187302 0.030907
0.002428 0.001445 0.007114 1.559639 3.998385 -0.05838475 0.211695 0.030905
0.032485 0.001697 0.011182 -0.0720453 5.231083 -0.03467214 0.267666 0.030901
0.032892 0.001334 0.009615 0.4435914 2.701141 -4.535718 0.267663 0.030885
0.03227 0.000503 0.009203 0.3688848 -2.699521 -3.164456 0.267666 0.030901
0.032072 -0.000332 0.010878 -0.2054712 -4.341408 2.581498 0.267670 0.030927
0.031941 0.000692 0.011913 -0.3327594 1.155109 4.171295 0.267670 0.030927
0.048059 0.002236 0.014485 0.2331051 5.071117 -0.105515 0.295000 0.030899
0.049666 0.001041 0.014248 2.657732 2.309121 -3.277584 0.294998 0.030885
0.048525 -0.000754 0.013969 1.720994 -3.540136 -1.768082 0.295000 0.030899
0.046712 1.3e-05 0.014839 -1.495019 -4.060577 2.372825 0.295004 0.030922
0.047069 0.002171 0.015322 -2.324773 1.925161 3.25043 0.295004 0.030922
0.051911 0.000797 0.020779 0.9109077 2.486812 0.07176632 0.313193 0.030898
0.052687 0.000247 0.02081 2.22483 0.1300381 -1.073515 0.313190 0.030885
0.052432 -0.000692 0.020806 0.5504193 -2.31672 -0.4233314 0.313193 0.030898
0.051519 -0.000722 0.020762 -1.7419 -1.278778 1.173863 0.313196 0.030919
0.051193 0.000198 0.020737 -1.274182 1.621448 1.391657 0.313196 0.030919
-0.001462 0.001285 0.001979 -1.305562 1.558325 1.748559 0.496375 0.179030
0.000983 0.00208 0.00198 1.127069 1.78295 1.615502 0.496375 0.179030
0.001336 0.003653 -2e-06 1.463661 4.129409 0.9880133 0.496375 0.179030
-0.002958 0.002258 -5e-06 -3.413532 2.622684 1.019891 0.496375 0.179030
-0.001462 -0.001285 0.001979 -1.850455 -0.7791512 1.777384 0.496375 0.179030
-0.002958 -0.002258 -5e-06 -3.533658 -2.480068 0.9730747 0.496375 0.179030
0.000983 -0.00208 0.00198 0.1831864 -2.06018 1.667706 0.496375 0.179030
0.001336 -0.003653 -2e-06 1.318229 -4.200151 0.9061238 0.496375 0.179030
0.002494 -0 0.001982 2.070891 -0.5018612 1.563468 0.496375 0.179030
0.00399 0 0 4.440619 -0.07180119 0.9136815 0.496375 0.179030
0.060622 -0.005731 0.035661 -1.898638 -1.24184 -0.2986568 0.484084 0.278556
0.061353 -0.005386 0.034447 -0.6908115 -2.669069 -1.991181 0.484084 0.278556
0.066273 -0.006413 0.03699 -1.268269 -2.776714 2.997009 0.484084 0.278556
0.066363 -0.006128 0.035848 -0.7333975 -2.792945 -4.116337 0.484084 0.278556
0.065239 -0.003519 0.036739 -0.1317852 1.483198 3.454766 0.484084 0.278556
0.068101 -0.001806 0.035937 1.8765 0.5176179 2.374834 0.484084 0.278556
0.060303 -0.002168 0.034707 -2.087339 0.9189602 4.921937 0.484084 0.278556
0.065146 0.000255 0.035882 -0.4420213 2.683433 2.187214 0.484084 0.278556
0.065459 5e-06 0.034162 2.316169 2.861322 -2.357459 0.484084 0.278556
0.068468 -0.00188 0.034943 1.544232 -0.4715857 -1.410988 0.484084 0.278556
0.065664 -0.003726 0.035204 1.187159 -1.491292 -3.304004 0.484084 0.278556
0.061101 -0.002739 0.033175 1.281796 -2.349788 -5.647708 0.484084 0.278556
0.053416 -0.000702 0.027878 0.7223113 -0.4231399 -2.94327 0.484084 0.278556
0.052819 -0.000343 0.028787 -3.196104 0.9511846 2.067819 0.484084 0.278556
0.057921 0.000841 0.029778 0.4878209 2.188873 -1.534814 0.484084 0.278556
0.059088 0.000401 0.031782 -1.137433 3.595589 2.055654 0.484084 0.278556
0.056271 -0.00433 0.030248 -0.6947333 -2.22507 -0.9495783 0.484084 0.278556
0.055878 -0.004201 0.031066 -1.140607 -1.487068 0.8059337 0.484084 0.278556
0.057847 -0.001889 0.03066 2.598631 -2.316857 -4.836258 0.484084 0.278556
0.057351 -0.001534 0.031656 -3.27582 1.199348 4.491324 0.484084 0.278556
0.057863 -0.004105 0.032 -0.1597154 -1.646264 0.393707 0.484084 0.278556
0.069008 -0.008474 0.035587 -0.6308281 -1.920308 -0.3238631 0.484084 0.278556
0.068487 -0.004948 0.034826 -0.9487059 -0.6064087 -4.764615 0.484084 0.278556
0.074301 -0.006937 0.0341 0.630713 -0.1348785 -0.3374515 0.484084 0.278556
0.068997 -0.004681 0.037137 1.164256 0.3937069 4.202176 0.484084 0.278556
0.070778 -0.00278 0.034826 0.3451162 2.220606 -0.7361189 0.484084 0.278556
0.060732 -0.005741 0.034139 0.4166163 -0.975472 0.3122092 0.484084 0.278556
0.06658 0.000727 0.027331 1.09903 -1.76454 2.935673 0.484084 0.278556
0.066238 -0.000199 0.026407 -0.4771623 -2.308104 0.40409 0.484084 0.278556
0.070369 0.002071 0.024993 0.6646845 -1.56133 -0.6298716 0.484084 0.278556
0.063028 0.002573 0.028073 0.2377227 -0.3125043 5.542453 0.484084 0.278556
0.068709 0.004022 0.027216 2.258615 0.2124775 5.08034 0.484084 0.278556
0.06421 0.005128 0.027737 -0.1000315 2.452075 2.260096 0.484084 0.278556
0.068554 0.006818 0.026022 0.4926233 0.8994817 -0.849856 0.484084 0.278556
0.064039 0.004811 0.026863 -0.4726025 1.780242 -3.563257 0.484084 0.278556
0.062794 0.002501 0.02672 -0.753335 0.3220521 -5.739048 0.484084 0.278556
0.068282 0.00394 0.026589 -1.650291 0.3695218 -4.282873 0.484084 0.278556
0.059158 0.004484 0.026682 0.1082662 -0.07563218 -2.112265 0.484084 0.278556
0.052857 0.000108 0.028444 -1.718821 -0.2815537 -1.261339 0.484084 0.278556
0.059535 0.004718 0.027561 0.9682547 1.642778 1.436226 0.484084 0.278556
0.053005 0.00016 0.030057 -0.345797 0.01890255 1.994427 0.484084 0.278556
0.058406 -0.001603 0.028368 1.138491 -3.52571 2.61183 0.484084 0.278556
0.057976 -0.002201 0.026968 -0.2271265 -1.182698 -1.214925 0.484084 0.278556
0.060391 -0.000533 0.027676 1.355619 -2.548705 2.921975 0.484084 0.278556
0.06588 0.000209 0.026837 1.06684 -0.4327567 -0.00040479 0.484084 0.278556
0.058805 0.001562 0.028799 0.7530113 -0.03903082 4.624325 0.484084 0.278556
0.060239 -0.00071 0.026038 0.4083391 -1.751244 -2.313155 0.484084 0.278556
0.058522 0.001515 0.027408 0.01383007 0.2783725 -4.956384 0.484084 0.278556
0.056085 0.000851 0.028332 -1.191164 0.07669324 -4.522561 0.484084 0.278556
0.056313 0.000913 0.02911 1.069385 0.1674109 4.706293 0.484084 0.278556
0.072202 0.004859 0.024508 4.327603 0.8446801 2.696141 0.484084 0.278556
0.072632 0.002294 0.022569 0.2913233 0.1493691 -0.7941344 0.484084 0.278556
0.069057 0.007583 0.025514 -1.117187 0.9427804 0.3780544 0.484084 0.278556
0.071098 0.006787 0.022283 -0.2837539 0.722564 -0.400911 0.484084 0.278556
0.071099 0.004617 0.023835 -4.623546 -1.193645 -3.452158 0.484084 0.278556
0.073476 0.005226 0.01823 -0.04856402 0.1207662 -0.4173722 0.484084 0.278556
0.072607 0.002011 0.021576 -0.16604 -0.947262 0.4524739 0.484084 0.278556
0.060391 0.005482 0.027076 -1.019566 2.002414 -0.2877005 0.484084 0.278556
0.062312 0.006218 0.029499 0.5273677 -2.256833 1.141937 0.484084 0.278556
0.061896 0.005806 0.02798 1.012706 -1.791045 -1.380554 0.484084 0.278556
0.065072 0.01106 0.028225 3.705874 -1.293655 2.307016 0.484084 0.278556
0.064311 0.011019 0.027438 -0.3771468 -1.773701 -4.462591 0.484084 0.278556
0.062351 0.011245 0.029559 0.6720016 1.471527 3.472363 0.484084 0.278556
0.061273 0.014281 0.028537 1.081572 2.091979 1.327593 0.484084 0.278556
0.059029 0.00702 0.03033 1.748315 -0.2605378 5.386987 0.484084 0.278556
0.058975 0.012496 0.030407 -1.476477 1.309057 2.262358 0.484084 0.278556
0.058896 0.012016 0.029127 -3.32433 2.668913 -1.860393 0.484084 0.278556
0.0609 0.014629 0.027247 -0.1633595 0.7990794 -1.477528 0.484084 0.278556
0.06188 0.011196 0.028229 0.3511893 -0.01379642 -3.944657 0.484084 0.278556
0.058943 0.007146 0.028467 -0.9637635 -0.5808565 -5.185497 0.484084 0.278556
0.05278 0.000302 0.028048 -0.8508682 -0.5384824 -2.19434 0.484084 0.278556
0.053066 0.000475 0.028697 -1.158287 -2.091422 3.496945 0.484084 0.278556
0.053129 0.005289 0.027978 -2.133944 0.7399234 0.01788551 0.484084 0.278556
0.055449 0.006305 0.029216 -2.962672 1.266436 3.147291 0.484084 0.278556
0.05742 0.001593 0.027496 0.9186709 -1.695144 -1.49795 0.484084 0.278556
0.057857 0.00124 0.028493 0.9243978 -1.259062 0.1300287 0.484084 0.278556
0.056153 0.004085 0.027636 0.3844298 0.09181128 -5.848131 0.484084 0.278556
0.056367 0.003847 0.030191 0.1192433 -1.291443 4.916043 0.484084 0.278556
0.058844 0.003239 0.028303 1.660395 -1.366835 -0.7603878 0.484084 0.278556
0.066772 0.0123 0.025176 0.7044256 -0.9926866 -0.6222949 0.484084 0.278556
0.063738 0.013481 0.026857 -2.166097 -1.902005 -3.977803 0.484084 0.278556
0.066038 0.017294 0.022506 -0.04738346 0.2159889 -0.2979477 0.484084 0.278556
0.064262 0.013979 0.027672 2.174474 2.351661 3.304187 0.484084 0.278556
0.062538 0.015684 0.026242 -1.447815 0.7843492 0.08923608 0.484084 0.278556
0.061883 0.005778 0.028322 1.497043 0.01319069 -0.3360303 0.484084 0.278556
0.04903 -0.010958 0.032645 -3.099811 1.369047 1.323596 0.484084 0.278556
0.048799 -0.010945 0.031273 -1.75121 1.196448 -0.9757401 0.484084 0.278556
0.048975 -0.015575 0.033141 -2.479897 -0.1228825 -1.8794 0.484084 0.278556
0.051703 -0.008435 0.032577 -1.79342 3.171345 3.963161 0.484084 0.278556
0.050272 -0.013589 0.035929 -1.809903 0.6917624 4.326247 0.484084 0.278556
0.053464 -0.010202 0.034286 2.101155 1.143159 2.97283 0.484084 0.278556
0.052821 -0.014892 0.035067 1.100276 -1.42009 0.3311976 0.484084 0.278556
0.053838 -0.010968 0.032643 2.209556 -1.403882 -2.146672 0.484084 0.278556
0.051902 -0.008692 0.031853 1.623961 -2.592753 -4.889935 0.484084 0.278556
0.051102 -0.013895 0.033848 1.778931 -1.023615 -3.996065 0.484084 0.278556
0.055012 -0.006546 0.030696 1.564682 -1.203586 -1.806408 0.484084 0.278556
0.053681 0.000111 0.028132 1.643786 1.112859 -3.072775 0.484084 0.278556
0.055131 -0.006736 0.031687 0.7757851 -0.5628873 1.410937 0.484084 0.278556
0.053752 0.001092 0.028903 -0.3568345 1.111618 0.9643344 0.484084 0.278556
0.050057 -0.003336 0.028646 -3.860858 1.544887 0.04350227 0.484084 0.278556
0.050434 -0.003691 0.02763 -1.015733 0.2639844 -2.66619 0.484084 0.278556
0.049986 -0.005478 0.029598 -3.51245 1.239288 1.337994 0.484084 0.278556
0.049239 -0.010332 0.031604 -0.6555051 -1.357731 0.3262588 0.484084 0.278556
0.05242 -0.004331 0.03123 -1.117272 1.924717 3.792022 0.484084 0.278556
0.050622 -0.006355 0.028013 -1.407656 -1.312264 -3.221491 0.484084 0.278556
0.052913 -0.005243 0.029186 1.908875 -3.637323 -3.484388 0.484084 0.278556
0.053221 -0.002632 0.028341 2.170476 -1.04061 -4.281693 0.484084 0.278556
0.053026 -0.002232 0.029511 -1.407635 2.004457 3.910032 0.484084 0.278556
0.050102 -0.018084 0.034629 -2.080019 -2.093746 4.072715 0.484084 0.278556
0.048108 -0.019236 0.031842 -0.1232138 -0.4948878 -0.460263 0.484084 0.278556
0.052776 -0.016041 0.035015 2.274848 0.5231044 0.5989807 0.484084 0.278556
0.052989 -0.019368 0.033204 1.371205 -0.3211688 0.12023 0.484084 0.278556
0.050808 -0.017308 0.032732 2.046068 1.914119 -5.034167 0.484084 0.278556
0.050825 -0.023468 0.029911 0.09638584 -0.404869 -0.4283522 0.484084 0.278556
0.048672 -0.019225 0.031366 -1.178688 0.615234 -0.357007 0.484084 0.278556
0.054569 -0.007855 0.03189 2.300037 0.4623826 0.2072306 0.484084 0.278556
0.048906 0.008372 0.031885 2.102357 -0.1623473 1.134509 0.484084 0.278556
0.049235 0.008531 0.030188 2.174436 1.209795 -0.6565962 0.484084 0.278556
0.044775 0.011499 0.031189 1.379335 2.708211 3.946115 0.484084 0.278556
0.045056 0.011342 0.02961 2.370757 0.8349604 -3.492877 0.484084 0.278556
0.044131 0.00849 0.031511 -1.681207 -0.7116137 3.207848 0.484084 0.278556
0.041033 0.007876 0.029157 -2.553126 0.5970129 1.777236 0.484084 0.278556
0.047615 0.00504 0.030965 -0.406912 -0.5328499 5.500866 0.484084 0.278556
0.042597 0.004964 0.030394 -1.721663 -1.710359 2.247411 0.484084 0.278556
0.042943 0.005218 0.028862 -2.352732 -1.971018 -2.782598 0.484084 0.278556
0.040439 0.008015 0.027516 -0.4132319 0.6367247 -1.249504 0.484084 0.278556
0.044202 0.008501 0.030166 0.343226 0.6812915 -3.155522 0.484084 0.278556
0.047552 0.005337 0.029699 1.514452 0.6678672 -5.244671 0.484084 0.278556
0.053549 -0.000518 0.027175 0.4271962 0.1412409 -2.72737 0.484084 0.278556
0.053557 -0.000678 0.028731 2.104206 -1.943957 2.792821 0.484084 0.278556
0.048677 -0.000119 0.026899 -0.741273 -1.69682 -1.283242 0.484084 0.278556
0.04785 0.001214 0.02944 -1.651338 -3.30012 2.086768 0.484084 0.278556
0.052456 0.004475 0.028308 1.700303 1.426924 -0.9798369 0.484084 0.278556
0.052696 0.004358 0.029387 1.267025 1.015689 0.8354481 0.484084 0.278556
0.050014 0.002802 0.028618 0.3459969 2.463188 -5.414835 0.484084 0.278556
0.050223 0.002415 0.030287 1.225395 -0.9953015 5.193911 0.484084 0.278556
0.050691 0.00498 0.029481 1.10333 1.859311 -0.1557434 0.484084 0.278556
0.043774 0.014254 0.0287 1.20268 1.494331 -0.1754965 0.484084 0.278556
0.042216 0.010713 0.028079 2.246433 -1.161849 -4.238536 0.484084 0.278556
0.037962 0.014312 0.025181 -0.3488117 0.2357969 -0.5046325 0.484084 0.278556
0.041495 0.011086 0.030253 -2.496857 0.933336 3.539556 0.484084 0.278556
0.03942 0.010018 0.027152 -1.060855 -2.103126 -0.5664338 0.484084 0.278556
0.049258 0.008399 0.030553 0.1020657 1.183634 -0.07308921 0.484084 0.278556
0.043918 -0.003421 0.027817 -0.1736299 2.301118 0.5127115 0.484084 0.278556
0.044324 -0.003657 0.026562 -0.3659743 2.351281 -1.173852 0.484084 0.278556
0.041055 -0.00743 0.025608 -4.5888 1.787812 2.543371 0.484084 0.278556
0.041498 -0.006957 0.024024 1.16242 1.783426 -3.038297 0.484084 0.278556
0.043398 -0.008262 0.027768 -1.884872 -1.498396 3.018493 0.484084 0.278556
0.043981 -0.01169 0.026756 -1.297667 -2.122887 0.371132 0.484084 0.278556
0.046503 -0.005004 0.029357 -2.359759 0.4639497 4.848905 0.484084 0.278556
0.046011 -0.010109 0.028863 0.5550885 -1.475064 2.93047 0.484084 0.278556
0.046421 -0.010016 0.027662 3.155926 -2.889477 -2.533056 0.484084 0.278556
0.044407 -0.011105 0.026289 1.093202 -0.8851281 -2.79379 0.484084 0.278556
0.043878 -0.008284 0.026036 1.666115 -0.3404285 -3.946039 0.484084 0.278556
0.046639 -0.005068 0.027766 2.576014 0.7692769 -5.217863 0.484084 0.278556
0.053214 0.000429 0.027688 1.170882 -0.1166977 -1.885149 0.484084 0.278556
0.052552 -2.5e-05 0.028586 1.065432 1.831265 3.87955 0.484084 0.278556
0.051325 -0.004374 0.027852 2.619619 -1.439322 -0.7010099 0.484084 0.278556
0.049861 -0.005369 0.029396 1.941951 -1.29875 2.96247 0.484084 0.278556
0.048239 0.000339 0.025848 -0.609173 1.574645 -0.6702876 0.484084 0.278556
0.048113 0.000736 0.027792 -0.9350619 1.148026 0.656872 0.484084 0.278556
0.049203 -0.002726 0.027397 0.4979673 -0.3580642 -5.861943 0.484084 0.278556
0.049205 -0.002659 0.028901 -1.242032 1.760924 5.1247 0.484084 0.278556
0.047342 -0.001634 0.027275 -1.442313 0.6718278 -0.31757 0.484084 0.278556
0.038842 -0.008226 0.021891 -0.8576313 0.7888105 -0.2739304 0.484084 0.278556
0.042029 -0.009931 0.024089 3.134065 1.168046 -3.657603 0.484084 0.278556
0.038127 -0.012878 0.018841 0.02653304 -0.2413252 -0.2440686 0.484084 0.278556
0.041566 -0.010279 0.02497 -3.11627 -2.10115 2.98304 0.484084 0.278556
0.042757 -0.012173 0.023723 1.281444 -1.098577 0.03705704 0.484084 0.278556
0.044718 -0.003171 0.026709 -1.218151 0.1208512 -0.468096 0.484084 0.278556
0.058836 -0.011771 0.027501 -1.859718 -0.966574 0.8213785 0.484084 0.278556
0.059164 -0.011346 0.026719 -3.242921 0.1549975 -1.406662 0.484084 0.278556
0.061671 -0.014455 0.024642 -2.821164 -1.207411 -1.518578 0.484084 0.278556
0.059776 -0.007597 0.027912 -0.01024216 -0.3834959 4.41326 0.484084 0.278556
0.063125 -0.012715 0.027295 1.297691 -2.122129 4.557665 0.484084 0.278556
0.062422 -0.007942 0.027362 2.558057 1.163013 2.283176 0.484084 0.278556
0.065835 -0.011446 0.025382 1.164622 0.1592686 -0.7678143 0.484084 0.278556
0.062138 -0.007813 0.026696 1.22854 1.480494 -3.413635 0.484084 0.278556
0.05962 -0.007396 0.027063 -0.6479927 0.5481046 -5.773389 0.484084 0.278556
0.062737 -0.011831 0.025671 -0.9387508 2.092245 -4.003416 0.484084 0.278556
0.059996 -0.003253 0.027052 0.2868998 0.6729122 -2.19726 0.484084 0.278556
0.054533 0.000544 0.029343 -1.170107 2.232379 -2.225228 0.484084 0.278556
0.060322 -0.003464 0.02751 1.946631 -0.08125758 0.848031 0.484084 0.278556
0.054544 0.000703 0.030272 0.02256396 0.324726 1.691233 0.484084 0.278556
0.054063 -0.004802 0.028745 -2.928815 -1.451756 0.8897872 0.484084 0.278556
0.054296 -0.004265 0.027726 -1.77719 0.3115476 -2.461219 0.484084 0.278556
0.05574 -0.006297 0.027986 -1.97288 -1.896201 2.030049 0.484084 0.278556
0.058437 -0.010329 0.026865 0.0562619 -1.519897 -0.7426646 0.484084 0.278556
0.05759 -0.004067 0.029404 0.5785611 -0.583739 4.308482 0.484084 0.278556
0.05593 -0.005813 0.026812 -2.83493 -0.8074354 -3.81759 0.484084 0.278556
0.057236 -0.003568 0.026951 -0.02555498 0.1655291 -5.05304 0.484084 0.278556
0.055861 -0.001633 0.0287 -0.9685196 1.78465 -4.331182 0.484084 0.278556
0.055967 -0.001753 0.029099 0.7128869 -0.6121632 4.453716 0.484084 0.278556
0.0646 -0.015191 0.023771 2.430844 -4.193173 2.387909 0.484084 0.278556
0.062032 -0.017143 0.021577 -0.0062778 -0.3027573 -0.6012872 0.484084 0.278556
0.066394 -0.011537 0.024962 0.9819476 1.509761 0.3018353 0.484084 0.278556
0.066351 -0.013468 0.021526 1.003058 0.5702016 -0.5121961 0.484084 0.278556
0.063598 -0.013795 0.022751 -2.875821 3.936267 -3.144845 0.484084 0.278556
0.065141 -0.016256 0.017635 0.1460488 -0.09756339 -0.6091675 0.484084 0.278556
0.062294 -0.016462 0.021107 -1.078347 -0.3764378 0.3728092 0.484084 0.278556
0.06147 -0.004297 0.027066 1.701912 1.338266 -0.339254 0.484084 0.278556
0.046684 0.003627 0.034165 2.222835 1.348891 1.220949 0.484084 0.278556
0.046764 0.003997 0.033226 1.036827 2.124993 -0.1377898 0.484084 0.278556
0.041791 0.003665 0.035396 0.7436438 3.548474 4.625237 0.484084 0.278556
0.041966 0.004197 0.033847 0.203589 1.083421 -3.000212 0.484084 0.278556
0.04319 0.001437 0.036007 -0.05072525 -0.5759645 3.375908 0.484084 0.278556
0.040557 -0.000953 0.035501 -1.6071 -0.5868484 1.268998 0.484084 0.278556
0.047616 0.000829 0.033724 2.402527 0.3569568 4.884019 0.484084 0.278556
0.043868 -0.002068 0.035429 0.9356315 -1.896167 2.36505 0.484084 0.278556
0.043791 -0.001971 0.033982 -2.006104 -3.33587 -2.442895 0.484084 0.278556
0.040998 -0.000859 0.034392 -1.622653 0.1606151 -2.207631 0.484084 0.278556
0.043095 0.001434 0.03496 -1.270311 0.159072 -3.612694 0.484084 0.278556
0.047309 0.000949 0.032828 -1.51706 0.9273347 -4.60574 0.484084 0.278556
0.054047 -7.4e-05 0.027898 -0.4069709 0.1561877 -3.014946 0.484084 0.278556
0.054676 -0.000172 0.028862 3.629382 0.1038827 2.036581 0.484084 0.278556
0.050352 -0.002698 0.029243 0.05007476 -2.312221 -1.397389 0.484084 0.278556
0.049474 -0.001969 0.031863 1.590641 -2.593393 2.336617 0.484084 0.278556
0.051166 0.003127 0.02946 0.4242485 2.074592 -1.078022 0.484084 0.278556
0.05154 0.00308 0.030241 1.017379 1.820119 0.7154363 0.484084 0.278556
0.049972 0.000578 0.029911 -2.998782 1.707387 -4.638513 0.484084 0.278556
0.050504 0.00042 0.031071 3.381695 0.1666939 4.79223 0.484084 0.278556
0.049852 0.002776 0.031239 0.09864205 1.876302 0.4006147 0.484084 0.278556
0.038854 0.005738 0.033677 -0.04649463 1.339377 0.1462155 0.484084 0.278556
0.039939 0.001986 0.03393 1.203191 -0.4501545 -4.774526 0.484084 0.278556
0.03444 0.002693 0.032101 -0.3560222 -0.09189925 -0.2321626 0.484084 0.278556
0.039681 0.001967 0.03517 -1.788543 -0.08099535 4.381184 0.484084 0.278556
0.038341 -0.000167 0.033591 0.1449415 -1.828533 -0.2687395 0.484084 0.278556
0.047139 0.004226 0.03317 -0.7158709 0.7511542 0.3047506 0.484084 0.278556
0.058997 0.007103 0.035085 1.773365 -0.8718765 1.023417 0.483261 0.301304
0.05854 0.00755 0.033802 2.058658 -1.72793 -2.135501 0.483261 0.301304
0.059107 0.012178 0.033766 1.832695 0.1427793 -1.402368 0.483261 0.301304
0.05519 0.005276 0.034382 -0.002107054 -2.904834 3.461573 0.483261 0.301304
0.056595 0.010773 0.035562 0.7203965 0.5490439 5.541085 0.483261 0.301304
0.053571 0.007581 0.034957 -2.444481 0.007199764 2.669411 0.483261 0.301304
0.054133 0.013163 0.034934 -0.3322964 1.088961 -0.2091367 0.483261 0.301304
0.053749 0.008049 0.03338 -1.1377 1.464115 -2.820572 0.483261 0.301304
0.055212 0.005822 0.033178 0.3935305 2.00562 -5.254386 0.483261 0.301304
0.056439 0.010728 0.034652 -0.562826 0.1795043 -4.479696 0.483261 0.301304
0.051999 0.005075 0.030906 0.7975447 1.541527 -0.7527258 0.483261 0.301304
0.052815 -1.9e-05 0.027136 -0.1566516 0.2453665 -2.555851 0.483261 0.301304
0.052135 0.004399 0.031624 -1.643105 0.2645797 1.894361 0.483261 0.301304
0.052448 -0.001208 0.027397 -0.9103877 -1.411538 0.2675872 0.483261 0.301304
0.056725 0.001089 0.030601 2.933866 -2.382854 0.9479385 0.483261 0.301304
0.056906 0.001729 0.029412 1.573137 0.464841 -1.691859 0.483261 0.301304
0.056468 0.003014 0.031556 1.96785 -2.147665 2.670154 0.483261 0.301304
0.05844 0.007062 0.033839 0.6568586 0.528016 0.3708431 0.483261 0.301304
0.054096 0.002444 0.031485 -0.3168525 -2.88687 3.523085 0.483261 0.301304
0.056792 0.003706 0.030473 2.206312 1.565491 -1.50354 0.483261 0.301304
0.054139 0.002788 0.030888 0.5337626 3.991265 -2.724415 0.483261 0.301304
0.053531 0.001469 0.029056 0.8342457 3.182383 -3.182507 0.483261 0.301304
0.053348 0.000779 0.029875 -1.115596 -2.951413 3.547107 0.483261 0.301304
0.057453 0.014649 0.033802 1.296998 3.026291 4.671968 0.483261 0.301304
0.060484 0.015322 0.032177 -0.08718276 0.6545427 -0.4535015 0.483261 0.301304
0.054102 0.013411 0.034698 -1.372066 -0.4136831 0.119435 0.483261 0.301304
0.055816 0.015976 0.03231 -0.7011749 0.3165723 -0.1590784 0.483261 0.301304
0.057334 0.014181 0.03302 -1.282241 -2.828173 -5.035934 0.483261 0.301304
0.058176 0.019469 0.028761 -0.1558213 0.1995148 -0.1906096 0.483261 0.301304
0.060579 0.015245 0.03137 0.6580446 -0.7497019 0.2875283 0.483261 0.301304
0.051661 0.005575 0.032193 -2.087924 -0.1593968 -0.6082816 0.483261 0.301304
0.053883 -0.008608 0.035914 -2.184326 -0.008370876 0.8761376 0.483261 0.301304
0.054278 -0.008698 0.035173 -3.033047 0.2618258 -2.061007 0.483261 0.301304
0.055855 -0.013012 0.034921 -2.363939 -1.12368 -1.602202 0.483261 0.301304
0.055815 -0.00511 0.034865 -1.289438 2.324281 3.886148 0.483261 0.301304
0.057577 -0.010296 0.036932 -0.1377977 -0.02222258 5.379291 0.483261 0.301304
0.058377 -0.005983 0.035432 2.12241 1.851769 3.028283 0.483261 0.301304
0.061072 -0.010701 0.035679 1.084358 -0.6028559 0.02248122 0.483261 0.301304
0.058866 -0.00636 0.033916 1.699857 -0.3434552 -2.403739 0.483261 0.301304
0.055968 -0.005523 0.033862 0.4048508 -2.194225 -5.079377 0.483261 0.301304
0.057721 -0.010157 0.035367 0.436016 -0.2931944 -4.657958 0.483261 0.301304
0.058027 -0.00287 0.031891 0.8106087 -1.721534 -1.415035 0.483261 0.301304
0.053891 0.000394 0.027885 0.1266033 -0.177192 -2.787132 0.483261 0.301304
0.058203 -0.002565 0.032965 1.771483 0.9139965 1.037814 0.483261 0.301304
0.053733 0.001286 0.028343 -0.2966446 2.016851 0.06808242 0.483261 0.301304
0.051678 -0.002453 0.031422 -4.324881 0.6319784 0.4483947 0.483261 0.301304
0.051952 -0.003025 0.030363 -1.186603 -1.338175 -1.825152 0.483261 0.301304
0.052435 -0.003785 0.032925 -3.083806 0.7095131 1.954426 0.483261 0.301304
0.05371 -0.008369 0.035039 -0.02485275 -1.353936 0.5491824 0.483261 0.301304
0.054727 -0.00158 0.032978 -0.8035986 2.594483 3.600534 0.483261 0.301304
0.053025 -0.004766 0.031329 -1.628885 -2.764909 -2.465597 0.483261 0.301304
0.055164 -0.002903 0.031296 1.797968 -3.758553 -3.395674 0.483261 0.301304
0.054401 -0.001156 0.029958 1.062102 -2.886631 -3.720023 0.483261 0.301304
0.054295 -0.000276 0.030877 -0.9406947 3.614713 2.699965 0.483261 0.301304
0.058922 -0.014603 0.035587 0.6234059 -2.979555 4.084392 0.483261 0.301304
0.056621 -0.015886 0.033683 0.1713986 -0.6102434 -0.6163541 0.483261 0.301304
0.061032 -0.011105 0.035412 1.188258 1.270882 -0.115476 0.483261 0.301304
0.061194 -0.014183 0.0331 0.869421 0.2333586 -0.4429851 0.483261 0.301304
0.058656 -0.013735 0.034273 -1.061716 2.495899 -5.234801 0.483261 0.301304
0.060125 -0.018284 0.030252 0.05205888 -0.1597121 -0.4734689 0.483261 0.301304
0.057181 -0.016059 0.032831 -1.235688 0.09301043 0.1546966 0.483261 0.301304
0.058725 -0.003274 0.033099 1.787973 1.17614 -0.3343292 0.483261 0.301304
0.04686 0.000549 0.020383 -1.392997 1.277207 0.8530744 0.483041 0.252569
0.047621 0.000396 0.020119 1.202042 3.006025 0.4760267 0.483041 0.252569
0.046416 -0.000701 0.016521 0.2128021 2.615327 -0.8630254 0.483041 0.252569
0.049324 -0.002456 0.023163 -3.750242 -0.3270192 3.119731 0.483041 0.252569
0.04739 -0.003669 0.01896 -4.910023 -2.496082 1.722322 0.483041 0.252569
0.050298 -0.005253 0.022413 -0.6433549 -2.497718 1.030828 0.483041 0.252569
0.049933 -0.006405 0.019359 1.05992 -1.014923 -1.078691 0.483041 0.252569
0.050781 -0.004317 0.02174 3.980803 -0.4791693 -1.919576 0.483041 0.252569
0.05043 -0.001741 0.022287 4.273243 2.456653 -3.158807 0.483041 0.252569
0.048938 -0.002779 0.01884 4.277536 1.536821 -1.91567 0.483041 0.252569
0.053148 -0.004414 0.02441 1.549453 -0.3704732 -0.7102065 0.483041 0.252569
0.053079 -0.000373 0.028845 3.082473 0.9845781 2.061929 0.483041 0.252569
0.052498 -0.004292 0.024894 -1.303476 -2.503002 0.1589842 0.483041 0.252569
0.052612 -0.000668 0.029587 -0.3243647 -0.4130146 1.87581 0.483041 0.252569
0.049718 0.002157 0.0259 -3.134859 1.973219 1.060133 0.483041 0.252569
0.050806 0.002856 0.025478 0.9034228 2.234453 -0.2323755 0.483041 0.252569
0.050009 0.000775 0.02421 -4.228142 0.456014 0.8213607 0.483041 0.252569
0.04895 0.000694 0.022292 -1.47722 0.977397 -0.8506129 0.483041 0.252569
0.050894 -0.001587 0.025728 -4.033862 -1.377053 2.099529 0.483041 0.252569
0.050446 0.001374 0.023711 0.176485 2.48934 -2.228429 0.483041 0.252569
0.052119 -0.000941 0.024876 3.214612 1.138629 -3.708665 0.483041 0.252569
0.052937 -0.000387 0.026589 4.260502 1.628266 -1.571296 0.483041 0.252569
0.051357 -0.001299 0.027495 -4.010914 -1.902103 1.777768 0.483041 0.252569
0.046776 -0.003614 0.015506 -4.001675 -2.85668 -1.196008 0.483041 0.252569
0.045718 0.000144 0.014464 0.4169635 0.385036 -0.5582725 0.483041 0.252569
0.050117 -0.006738 0.018534 0.8338096 -0.7628093 0.4030303 0.483041 0.252569
0.049314 -0.004831 0.015862 1.13614 -0.6691016 -0.831975 0.483041 0.252569
0.048184 -0.002827 0.016506 4.826073 3.402401 -0.3173557 0.483041 0.252569
0.048455 -0.002372 0.012766 0.6136767 -0.06021565 -0.890484 0.483041 0.252569
0.046262 -0.000355 0.013756 -0.6203336 0.5423813 0.2350088 0.483041 0.252569
0.052551 -0.005034 0.024243 1.548006 -1.258459 0.4558744 0.483041 0.252569
0.053428 0.007052 0.022621 0.6558665 3.468572 0.4886672 0.484000 0.205604
0.054523 0.006426 0.022779 1.77548 0.2411192 0.8080702 0.484000 0.205604
0.052263 0.00663 0.018905 2.297795 0.2852311 -0.9404792 0.484000 0.205604
0.051547 0.005979 0.024841 -1.67028 4.010357 2.933969 0.484000 0.205604
0.050366 0.006929 0.020253 -1.947415 5.201777 0.491383 0.484000 0.205604
0.049684 0.005136 0.022802 -3.837763 2.127783 1.604681 0.484000 0.205604
0.047363 0.005401 0.018315 -0.7142082 -0.08000826 -0.402008 0.484000 0.205604
0.049529 0.004416 0.02248 -0.8027918 -2.40805 -0.5511294 0.484000 0.205604
0.051657 0.004768 0.024044 1.639689 -4.612287 -2.876329 0.484000 0.205604
0.05045 0.00561 0.020138 1.388494 -4.512155 -0.7690151 0.484000 0.205604
0.049803 0.002391 0.024929 0.179425 -1.017874 -1.334443 0.484000 0.205604
0.053629 -0.00011 0.02883 0.6986403 -1.899174 0.3224247 0.484000 0.205604
0.049697 0.003082 0.025394 -2.159148 1.249506 0.8729952 0.484000 0.205604
0.053425 0.000833 0.029693 -0.6202792 0.4975668 2.205842 0.484000 0.205604
0.055209 0.004065 0.027476 2.625879 2.085659 1.935743 0.484000 0.205604
0.055682 0.003271 0.026854 1.663875 -0.77482 -0.9346439 0.484000 0.205604
0.054418 0.004924 0.026384 1.187822 2.693351 1.634128 0.484000 0.205604
0.053754 0.006534 0.023053 0.6092231 1.038141 -1.290704 0.484000 0.205604
0.052331 0.003777 0.027054 -1.389439 2.916095 3.281041 0.484000 0.205604
0.054604 0.003785 0.025262 3.396476 -0.9911732 -2.19083 0.484000 0.205604
0.052358 0.002551 0.025617 0.9720325 -2.885725 -3.851435 0.484000 0.205604
0.052907 0.00208 0.027651 1.38466 -3.35078 -2.631519 0.484000 0.205604
0.052845 0.002405 0.028014 -1.638403 2.737451 3.692656 0.484000 0.205604
0.049773 0.006347 0.016831 -1.170403 4.919356 -2.22781 0.484000 0.205604
0.052888 0.006097 0.016454 0.319593 -0.4687726 -0.7065889 0.484000 0.205604
0.047766 0.005353 0.018164 -1.586652 -0.3779093 1.006998 0.484000 0.205604
0.047617 0.003811 0.015608 -0.7672135 -0.3885029 -0.07359034 0.484000 0.205604
0.05029 0.005238 0.017546 1.55199 -5.252995 1.893291 0.484000 0.205604
0.050059 0.003023 0.013439 0.1288573 -0.365743 -0.4497702 0.484000 0.205604
0.052912 0.005539 0.016406 0.6375595 0.4715211 0.5013902 0.484000 0.205604
0.049414 0.003277 0.024643 -2.121254 -0.8951544 0.5066621 0.484000 0.205604
0.054977 -0.004593 0.023669 -0.8427354 -1.755421 1.514766 0.494120 0.253263
0.054286 -0.004022 0.02345 -2.406031 -1.087351 0.3454851 0.494120 0.253263
0.05568 -0.004024 0.020143 0.5557609 -4.939247 -1.086559 0.494120 0.253263
0.054936 -0.003429 0.020215 -4.214181 0.9180661 0.5562295 0.494120 0.253263
0.0581 -0.002794 0.021719 2.822934 -1.783008 -0.8784735 0.494120 0.253263
0.05922 0.000275 0.019804 2.552096 -0.1111037 -1.590747 0.494120 0.253263
0.057239 -0.002493 0.025333 3.64165 -2.932999 1.794503 0.494120 0.253263
0.058779 0.000438 0.02267 4.283498 -0.08258291 1.838303 0.494120 0.253263
0.058471 0.001685 0.022636 0.6543198 2.673913 -0.4061046 0.494120 0.253263
0.057889 0.000853 0.020214 -1.803818 1.659097 -1.452758 0.494120 0.253263
0.056491 -0.001733 0.021474 -3.460172 2.071811 -0.8028352 0.494120 0.253263
0.055944 -0.001627 0.024591 -5.0175 2.870859 -0.6598579 0.494120 0.253263
0.053295 8.2e-05 0.029824 -1.490295 1.247693 0.006092459 0.494120 0.253263
0.054131 -0.000498 0.029543 2.311506 -2.44733 4.033549 0.494120 0.253263
0.05618 0.002759 0.027705 0.5955029 0.9704261 0.9760964 0.494120 0.253263
0.056741 0.00071 0.026499 4.121625 -0.6990371 2.428431 0.494120 0.253263
0.052236 -0.002855 0.026563 -1.604225 -0.8937365 0.2087924 0.494120 0.253263
0.052996 -0.003677 0.027153 -0.3088977 -1.450822 0.3685611 0.494120 0.253263
0.054701 -0.000837 0.026676 -4.351568 2.764653 -2.960573 0.494120 0.253263
0.055368 -0.00129 0.027094 3.282571 -2.893412 3.150072 0.494120 0.253263
0.053706 -0.003118 0.025739 -0.3331209 -0.9767486 -0.8730071 0.494120 0.253263
0.05359 -0.003792 0.017756 -0.8292268 -0.7718768 0.04419327 0.494120 0.253263
0.05594 -0.001506 0.019381 -3.83725 2.490248 1.910689 0.494120 0.253263
0.053737 -5.4e-05 0.015014 -0.1067253 0.1275621 -0.2109402 0.494120 0.253263
0.056569 -0.001857 0.019201 3.359071 -2.106175 -2.98867 0.494120 0.253263
0.057356 0.001232 0.018629 0.2643566 1.016379 0.3242762 0.494120 0.253263
0.054296 -0.003863 0.023903 -0.3179592 -0.51534 -0.8244348 0.494120 0.253263
0.005266 0.001362 0.011183 1.149378 4.115895 -0.8820638 0.218912 0.030904
0.004321 0.000597 0.012713 -1.951621 3.008024 3.450803 0.218917 0.030935
0.004325 -0.000847 0.012802 -1.71741 -2.686701 2.40758 0.218917 0.030935
0.004884 -0.000944 0.011142 1.071345 -4.445987 -2.030541 0.218912 0.030904
0.005631 0.000352 0.010745 2.584059 -0.04790348 -3.951129 0.218909 0.030885
3 0 1 2 
3 0 2 3 
3 1 4 5 
3 1 5 2 
3 4 6 7 
3 4 7 5 
3 6 8 9 
3 6 9 7 
3 8 0 3 
3 8 3 9 
3 10 11 12 
3 13 10 12 
3 14 13 12 
3 15 14 12 
3 11 15 12 
3 16 17 18 
3 17 19 18 
3 19 20 18 
3 20 21 18 
3 21 16 18 
3 22 23 24 
3 22 24 25 
3 23 26 27 
3 23 27 24 
3 26 28 29 
3 26 29 27 
3 28 30 31 
3 28 31 29 
3 30 22 25 
3 30 25 31 
3 25 24 17 
3 25 17 16 
3 24 27 19 
3 24 19 17 
3 27 29 20 
3 27 20 19 
3 29 31 21 
3 29 21 20 
3 31 25 16 
3 31 16 21 
3 32 33 34 
3 32 34 35 
3 33 36 37 
3 33 37 34 
3 36 38 39 
3 36 39 37 
3 38 40 41 
3 38 41 39 
3 40 32 35 
3 40 35 41 
3 9 3 42 
3 9 42 43 
3 7 9 43 
3 7 43 44 
3 5 7 44 
3 5 44 45 
3 2 5 45 
3 2 45 46 
3 3 2 46 
3 3 46 42 
3 43 42 47 
3 43 47 48 
3 44 43 48 
3 44 48 49 
3 45 44 49 
3 45 49 50 
3 46 45 50 
3 46 50 51 
3 42 46 51 
3 42 51 47 
3 48 47 52 
3 48 52 53 
3 49 48 53 
3 49 53 54 
3 50 49 54 
3 50 54 55 
3 51 50 55 
3 51 55 56 
3 47 51 56 
3 47 56 52 
3 57 58 59 
3 57 59 60 
3 61 57 60 
3 61 60 62 
3 63 61 62 
3 63 62 64 
3 65 63 64 
3 65 64 66 
3 58 65 66 
3 58 66 59 
3 60 59 11 
3 60 11 10 
3 62 60 10 
3 62 10 13 
3 64 62 13 
3 64 13 14 
3 66 64 14 
3 66 14 15 
3 59 66 15 
3 59 15 11 
3 67 68 69 
3 69 68 70 
3 71 72 73 
3 74 73 72 
3 74 72 75 
3 75 72 76 
3 77 78 76 
3 78 75 76 
3 79 80 81 
3 81 80 82 
3 79 83 80 
3 80 83 84 
3 71 73 69 
3 73 67 69 
3 77 70 78 
3 68 78 70 
3 81 75 85 
3 85 75 78 
3 81 82 75 
3 75 82 74 
3 82 86 74 
3 74 86 73 
3 79 81 85 
3 83 87 84 
3 83 79 87 
3 87 79 85 
3 88 89 90 
3 69 70 88 
3 71 69 91 
3 91 69 88 
3 89 92 90 
3 91 88 90 
3 92 91 90 
3 77 89 70 
3 70 89 88 
3 84 87 80 
3 80 87 86 
3 82 80 86 
3 92 71 91 
3 77 92 89 
3 87 93 86 
3 86 93 73 
3 87 85 93 
3 93 85 78 
3 73 78 67 
3 67 78 68 
3 71 77 72 
3 72 77 76 
3 71 92 77 
3 73 93 78 
3 94 95 96 
3 97 98 99 
3 99 98 100 
3 101 99 100 
3 102 101 103 
3 101 100 103 
3 104 105 106 
3 106 105 107 
3 107 105 108 
3 108 105 109 
3 96 98 94 
3 97 94 98 
3 103 96 102 
3 95 102 96 
3 110 111 112 
3 112 111 97 
3 113 111 110 
3 113 114 111 
3 111 114 102 
3 115 104 114 
3 107 116 106 
3 108 116 107 
3 109 113 108 
3 108 113 110 
3 109 115 113 
3 113 115 114 
3 98 96 117 
3 117 96 118 
3 98 117 119 
3 119 117 120 
3 121 120 122 
3 117 123 122 
3 120 117 122 
3 103 121 96 
3 96 121 118 
3 103 119 121 
3 121 119 120 
3 105 115 109 
3 104 115 105 
3 108 110 116 
3 116 110 112 
3 106 116 112 
3 123 121 122 
3 112 97 124 
3 124 97 99 
3 101 124 99 
3 114 124 102 
3 102 124 101 
3 97 111 102 
3 112 114 106 
3 106 114 104 
3 98 119 103 
3 117 118 121 
3 117 121 123 
3 98 103 100 
3 94 97 95 
3 95 97 102 
3 112 124 114 
3 125 126 127 
3 127 126 128 
3 129 130 131 
3 132 131 130 
3 132 130 133 
3 133 130 134 
3 135 136 134 
3 136 133 134 
3 137 138 139 
3 139 138 140 
3 137 141 138 
3 138 141 142 
3 129 131 127 
3 131 125 127 
3 135 128 136 
3 126 136 128 
3 139 133 143 
3 143 133 136 
3 139 140 133 
3 133 140 132 
3 140 144 132 
3 132 144 131 
3 137 139 143 
3 141 145 142 
3 141 137 145 
3 145 137 143 
3 146 147 148 
3 127 128 146 
3 129 127 149 
3 149 127 146 
3 147 150 148 
3 149 146 148 
3 150 149 148 
3 135 147 128 
3 128 147 146 
3 142 145 138 
3 138 145 144 
3 140 138 144 
3 150 129 149 
3 135 150 147 
3 145 151 144 
3 144 151 131 
3 145 143 151 
3 151 143 136 
3 131 136 125 
3 125 136 126 
3 129 135 130 
3 130 135 134 
3 129 150 135 
3 131 151 136 
3 152 153 154 
3 155 156 157 
3 157 156 158 
3 159 157 158 
3 160 159 161 
3 159 158 161 
3 162 163 164 
3 164 163 165 
3 165 163 166 
3 166 163 167 
3 154 156 152 
3 155 152 156 
3 161 154 160 
3 153 160 154 
3 168 169 170 
3 170 169 155 
3 171 169 168 
3 171 172 169 
3 169 172 160 
3 173 162 172 
3 165 174 164 
3 166 174 165 
3 167 171 166 
3 166 171 168 
3 167 173 171 
3 171 173 172 
3 156 154 175 
3 175 154 176 
3 156 175 177 
3 177 175 178 
3 179 178 180 
3 175 181 180 
3 178 175 180 
3 161 179 154 
3 154 179 176 
3 161 177 179 
3 179 177 178 
3 163 173 167 
3 162 173 163 
3 166 168 174 
3 174 168 170 
3 164 174 170 
3 181 179 180 
3 170 155 182 
3 182 155 157 
3 159 182 157 
3 172 182 160 
3 160 182 159 
3 155 169 160 
3 170 172 164 
3 164 172 162 
3 156 177 161 
3 175 176 179 
3 175 179 181 
3 156 161 158 
3 152 155 153 
3 153 155 160 
3 170 182 172 
3 183 184 185 
3 185 184 186 
3 187 188 189 
3 190 189 188 
3 190 188 191 
3 191 188 192 
3 193 194 192 
3 194 191 192 
3 195 196 197 
3 197 196 198 
3 195 199 196 
3 196 199 200 
3 187 189 185 
3 189 183 185 
3 193 186 194 
3 184 194 186 
3 197 191 201 
3 201 191 194 
3 197 198 191 
3 191 198 190 
3 198 202 190 
3 190 202 189 
3 195 197 201 
3 199 203 200 
3 199 195 203 
3 203 195 201 
3 204 205 206 
3 185 186 204 
3 187 185 207 
3 207 185 204 
3 205 208 206 
3 207 204 206 
3 208 207 206 
3 193 205 186 
3 186 205 204 
3 200 203 196 
3 196 203 202 
3 198 196 202 
3 208 187 207 
3 193 208 205 
3 203 209 202 
3 202 209 189 
3 203 201 209 
3 209 201 194 
3 189 194 183 
3 183 194 184 
3 187 193 188 
3 188 193 192 
3 187 208 193 
3 189 209 194 
3 210 211 212 
3 212 211 213 
3 214 215 216 
3 217 216 215 
3 217 215 218 
3 218 215 219 
3 220 221 219 
3 221 218 219 
3 222 223 224 
3 224 223 225 
3 222 226 223 
3 223 226 227 
3 214 216 212 
3 216 210 212 
3 220 213 221 
3 211 221 213 
3 224 218 228 
3 228 218 221 
3 224 225 218 
3 218 225 217 
3 225 229 217 
3 217 229 216 
3 222 224 228 
3 226 230 227 
3 226 222 230 
3 230 222 228 
3 231 232 233 
3 212 213 231 
3 214 212 234 
3 234 212 231 
3 232 235 233 
3 234 231 233 
3 235 234 233 
3 220 232 213 
3 213 232 231 
3 227 230 223 
3 223 230 229 
3 225 223 229 
3 235 214 234 
3 220 235 232 
3 230 236 229 
3 229 236 216 
3 230 228 236 
3 236 228 221 
3 216 221 210 
3 210 221 211 
3 214 220 215 
3 215 220 219 
3 214 235 220 
3 216 236 221 
3 237 238 239 
3 240 241 242 
3 242 241 243 
3 244 242 243 
3 245 244 246 
3 244 243 246 
3 247 248 249 
3 249 248 250 
3 250 248 251 
3 251 248 252 
3 239 241 237 
3 240 237 241 
3 246 239 245 
3 238 245 239 
3 253 254 255 
3 255 254 240 
3 256 254 253 
3 256 257 254 
3 254 257 245 
3 258 247 257 
3 250 259 249 
3 251 259 250 
3 252 256 251 
3 251 256 253 
3 252 258 256 
3 256 258 257 
3 241 239 260 
3 260 239 261 
3 241 260 262 
3 262 260 263 
3 264 263 265 
3 260 266 265 
3 263 260 265 
3 246 264 239 
3 239 264 261 
3 246 262 264 
3 264 262 263 
3 248 258 252 
3 247 258 248 
3 251 253 259 
3 259 253 255 
3 249 259 255 
3 266 264 265 
3 255 240 267 
3 267 240 242 
3 244 267 242 
3 257 267 245 
3 245 267 244 
3 240 254 245 
3 255 257 249 
3 249 257 247 
3 241 262 246 
3 260 261 264 
3 260 264 266 
3 241 246 243 
3 237 240 238 
3 238 240 245 
3 255 267 257 
3 268 269 270 
3 270 269 271 
3 272 273 274 
3 275 274 273 
3 275 273 276 
3 276 273 277 
3 278 279 277 
3 279 276 277 
3 280 281 282 
3 282 281 283 
3 280 284 281 
3 281 284 285 
3 272 274 270 
3 274 268 270 
3 278 271 279 
3 269 279 271 
3 282 276 286 
3 286 276 279 
3 282 283 276 
3 276 283 275 
3 283 287 275 
3 275 287 274 
3 280 282 286 
3 284 288 285 
3 284 280 288 
3 288 280 286 
3 289 290 291 
3 270 271 289 
3 272 270 292 
3 292 270 289 
3 290 293 291 
3 292 289 291 
3 293 292 291 
3 278 290 271 
3 271 290 289 
3 285 288 281 
3 281 288 287 
3 283 281 287 
3 293 272 292 
3 278 293 290 
3 288 294 287 
3 287 294 274 
3 288 286 294 
3 294 286 279 
3 274 279 268 
3 268 279 269 
3 272 278 273 
3 273 278 277 
3 272 293 278 
3 274 294 279 
3 295 296 297 
3 298 299 300 
3 300 299 301 
3 302 300 301 
3 303 302 304 
3 302 301 304 
3 305 306 307 
3 307 306 308 
3 308 306 309 
3 309 306 310 
3 297 299 295 
3 298 295 299 
3 304 297 303 
3 296 303 297 
3 311 312 313 
3 313 312 298 
3 314 312 311 
3 314 315 312 
3 312 315 303 
3 316 305 315 
3 308 317 307 
3 309 317 308 
3 310 314 309 
3 309 314 311 
3 310 316 314 
3 314 316 315 
3 299 297 318 
3 318 297 319 
3 299 318 320 
3 320 318 321 
3 322 321 323 
3 318 324 323 
3 321 318 323 
3 304 322 297 
3 297 322 319 
3 304 320 322 
3 322 320 321 
3 306 316 310 
3 305 316 306 
3 309 311 317 
3 317 311 313 
3 307 317 313 
3 324 322 323 
3 313 298 325 
3 325 298 300 
3 302 325 300 
3 315 325 303 
3 303 325 302 
3 298 312 303 
3 313 315 307 
3 307 315 305 
3 299 320 304 
3 318 319 322 
3 318 322 324 
3 299 304 301 
3 295 298 296 
3 296 298 303 
3 313 325 315 
3 326 327 328 
3 329 330 331 
3 331 330 332 
3 333 331 332 
3 334 333 335 
3 333 332 335 
3 336 337 338 
3 338 337 339 
3 339 337 340 
3 340 337 341 
3 328 330 326 
3 329 326 330 
3 335 328 334 
3 327 334 328 
3 342 343 344 
3 344 343 329 
3 345 343 342 
3 345 346 343 
3 343 346 334 
3 347 336 346 
3 339 348 338 
3 340 348 339 
3 341 345 340 
3 340 345 342 
3 341 347 345 
3 345 347 346 
3 330 328 349 
3 349 328 350 
3 330 349 351 
3 351 349 352 
3 353 352 354 
3 349 355 354 
3 352 349 354 
3 335 353 328 
3 328 353 350 
3 335 351 353 
3 353 351 352 
3 337 347 341 
3 336 347 337 
3 340 342 348 
3 348 342 344 
3 338 348 344 
3 355 353 354 
3 344 329 356 
3 356 329 331 
3 333 356 331 
3 346 356 334 
3 334 356 333 
3 329 343 334 
3 344 346 338 
3 338 346 336 
3 330 351 335 
3 349 350 353 
3 349 353 355 
3 330 335 332 
3 326 329 327 
3 327 329 334 
3 344 356 346 
3 357 358 359 
3 360 361 362 
3 362 361 363 
3 364 362 363 
3 365 364 366 
3 364 363 366 
3 367 368 369 
3 369 368 370 
3 370 368 371 
3 371 368 372 
3 359 361 357 
3 360 357 361 
3 366 359 365 
3 358 365 359 
3 373 374 375 
3 375 374 360 
3 376 374 373 
3 376 377 374 
3 374 377 365 
3 378 367 377 
3 370 379 369 
3 371 379 370 
3 372 376 371 
3 371 376 373 
3 372 378 376 
3 376 378 377 
3 361 359 380 
3 380 359 381 
3 361 380 382 
3 382 380 383 
3 384 383 385 
3 380 386 385 
3 383 380 385 
3 366 384 359 
3 359 384 381 
3 366 382 384 
3 384 382 383 
3 368 378 372 
3 367 378 368 
3 371 373 379 
3 379 373 375 
3 369 379 375 
3 386 384 385 
3 375 360 387 
3 387 360 362 
3 364 387 362 
3 377 387 365 
3 365 387 364 
3 360 374 365 
3 375 377 369 
3 369 377 367 
3 361 382 366 
3 380 381 384 
3 380 384 386 
3 361 366 363 
3 357 360 358 
3 358 360 365 
3 375 387 377 
3 388 389 390 
3 391 392 393 
3 393 392 394 
3 395 393 394 
3 396 395 397 
3 395 394 397 
3 398 399 400 
3 400 399 401 
3 401 399 402 
3 402 399 403 
3 390 392 388 
3 391 388 392 
3 397 390 396 
3 389 396 390 
3 404 405 406 
3 406 405 391 
3 407 405 404 
3 407 408 405 
3 405 408 396 
3 409 398 408 
3 401 410 400 
3 402 410 401 
3 403 407 402 
3 402 407 404 
3 403 409 407 
3 407 409 408 
3 392 390 411 
3 411 390 412 
3 392 411 413 
3 413 411 414 
3 415 414 416 
3 411 417 416 
3 414 411 416 
3 397 415 390 
3 390 415 412 
3 397 413 415 
3 415 413 414 
3 399 409 403 
3 398 409 399 
3 402 404 410 
3 410 404 406 
3 400 410 406 
3 417 415 416 
3 406 391 418 
3 418 391 393 
3 395 418 393 
3 408 418 396 
3 396 418 395 
3 391 405 396 
3 406 408 400 
3 400 408 398 
3 392 413 397 
3 411 412 415 
3 411 415 417 
3 392 397 394 
3 388 391 389 
3 389 391 396 
3 406 418 408 
3 419 420 421 
3 421 420 422 
3 423 424 425 
3 426 425 424 
3 426 424 427 
3 427 424 428 
3 429 430 428 
3 430 427 428 
3 431 432 433 
3 433 432 434 
3 431 435 432 
3 432 435 436 
3 423 425 421 
3 425 419 421 
3 429 422 430 
3 420 430 422 
3 433 427 437 
3 437 427 430 
3 433 434 427 
3 427 434 426 
3 434 438 426 
3 426 438 425 
3 431 433 437 
3 435 439 436 
3 435 431 439 
3 439 431 437 
3 440 441 442 
3 421 422 440 
3 423 421 443 
3 443 421 440 
3 441 444 442 
3 443 440 442 
3 444 443 442 
3 429 441 422 
3 422 441 440 
3 436 439 432 
3 432 439 438 
3 434 432 438 
3 444 423 443 
3 429 444 441 
3 439 445 438 
3 438 445 425 
3 439 437 445 
3 445 437 430 
3 425 430 419 
3 419 430 420 
3 423 429 424 
3 424 429 428 
3 423 444 429 
3 425 445 430 
3 446 447 1 
3 446 1 0 
3 447 448 4 
3 447 4 1 
3 448 449 6 
3 448 6 4 
3 449 450 8 
3 449 8 6 
3 450 446 0 
3 450 0 8 
3 41 35 447 
3 41 447 446 
3 35 34 448 
3 35 448 447 
3 34 37 449 
3 34 449 448 
3 37 39 450 
3 37 450 449 
3 39 41 446 
3 39 446 450 
